<mxfile host="app.diagrams.net" agent="Mozilla/5.0 (Windows NT 10.0; Win64; x64) AppleWebKit/537.36 (KHTML, like Gecko) Chrome/129.0.0.0 Safari/537.36" version="24.7.17">
  <diagram name="페이지-1" id="dpX6-D7zLcIbNKSV-1V8">
    <mxGraphModel dx="3047" dy="1042" grid="1" gridSize="10" guides="1" tooltips="1" connect="1" arrows="1" fold="1" page="1" pageScale="1" pageWidth="827" pageHeight="1169" math="0" shadow="0">
      <root>
        <mxCell id="0" />
        <mxCell id="1" parent="0" />
        <mxCell id="sL9KzqHIcuMjWzqX6_P6-42" value="" style="rounded=0;whiteSpace=wrap;html=1;" parent="1" vertex="1">
          <mxGeometry x="-540" y="110" width="440" height="210" as="geometry" />
        </mxCell>
        <mxCell id="sL9KzqHIcuMjWzqX6_P6-1" value="&lt;div&gt;package dao;&lt;/div&gt;&lt;div&gt;&lt;br&gt;&lt;/div&gt;&lt;div&gt;import java.util.ArrayList;&lt;/div&gt;&lt;div&gt;import dto.Book;&lt;/div&gt;&lt;div&gt;&lt;br&gt;&lt;/div&gt;&lt;div&gt;&lt;br&gt;&lt;/div&gt;&lt;div&gt;public class BookRepository{&lt;/div&gt;&lt;div&gt;&lt;span style=&quot;white-space: pre; white-space: normal;&quot;&gt;&#x9;&lt;/span&gt;&lt;/div&gt;&lt;div&gt;&lt;span style=&quot;white-space: normal;&quot;&gt;&lt;span style=&quot;white-space:pre&quot;&gt;&#x9;&lt;/span&gt;private ArrayList&amp;lt;Book&amp;gt; listOfBooks = new ArrayList&amp;lt;Book&amp;gt;();&lt;/span&gt;&lt;/div&gt;&lt;div&gt;&lt;span style=&quot;white-space: pre; white-space: normal;&quot;&gt;&#x9;&lt;/span&gt;&lt;/div&gt;&lt;div&gt;&lt;span style=&quot;white-space: normal;&quot;&gt;&lt;span style=&quot;white-space:pre&quot;&gt;&#x9;&lt;/span&gt;public BookRepository() {&lt;/span&gt;&lt;/div&gt;&lt;div&gt;&lt;span style=&quot;white-space: pre; white-space: normal;&quot;&gt;&#x9;&lt;/span&gt;&lt;/div&gt;&lt;div&gt;&lt;span style=&quot;white-space: normal;&quot;&gt;&lt;span style=&quot;white-space:pre&quot;&gt;&#x9;&#x9;&lt;/span&gt;Book book1= new Book(&quot;ISBN1234&quot;,&quot;C# 프로그래밍&quot;, 27000);&lt;/span&gt;&lt;/div&gt;&lt;div&gt;&lt;span style=&quot;white-space: normal;&quot;&gt;&lt;span style=&quot;white-space:pre&quot;&gt;&#x9;&#x9;&lt;/span&gt;book1.setAuthor(&quot;우재남&quot;);&lt;/span&gt;&lt;/div&gt;&lt;div&gt;&lt;span style=&quot;white-space: normal;&quot;&gt;&lt;span style=&quot;white-space:pre&quot;&gt;&#x9;&#x9;&lt;/span&gt;book1.setDescription(&quot;C#을 처음 접하는...&quot;);&lt;/span&gt;&lt;/div&gt;&lt;div&gt;&lt;span style=&quot;white-space: normal;&quot;&gt;&lt;span style=&quot;white-space:pre&quot;&gt;&#x9;&#x9;&lt;/span&gt;book1.setPublisher(&quot;한빛아카데미&quot;);&lt;/span&gt;&lt;/div&gt;&lt;div&gt;&lt;span style=&quot;white-space: normal;&quot;&gt;&lt;span style=&quot;white-space:pre&quot;&gt;&#x9;&#x9;&lt;/span&gt;book1.setCategory(&quot;IT모바일&quot;);&lt;/span&gt;&lt;/div&gt;&lt;div&gt;&lt;span style=&quot;white-space: normal;&quot;&gt;&lt;span style=&quot;white-space:pre&quot;&gt;&#x9;&#x9;&lt;/span&gt;book1.setUnitsInStock(1000);&lt;span style=&quot;white-space:pre&quot;&gt;&#x9;&#x9;&lt;/span&gt;&lt;/span&gt;&lt;/div&gt;&lt;div&gt;&lt;span style=&quot;white-space: normal;&quot;&gt;&lt;span style=&quot;white-space:pre&quot;&gt;&#x9;&#x9;&lt;/span&gt;book1.setReleaseDate(&quot;2022/10/06&quot;);&lt;/span&gt;&lt;/div&gt;&lt;div&gt;&lt;span style=&quot;white-space: pre; white-space: normal;&quot;&gt;&#x9;&#x9;&lt;/span&gt;&lt;/div&gt;&lt;div&gt;&lt;span style=&quot;white-space: pre; white-space: normal;&quot;&gt;&#x9;&#x9;&lt;/span&gt;&lt;/div&gt;&lt;div&gt;&lt;span style=&quot;white-space: normal;&quot;&gt;&lt;span style=&quot;white-space:pre&quot;&gt;&#x9;&#x9;&lt;/span&gt;Book book2 = new Book(&quot;ISBN1235&quot;,&quot;자바마스터&quot;, 30000);&lt;/span&gt;&lt;/div&gt;&lt;div&gt;&lt;span style=&quot;white-space: normal;&quot;&gt;&lt;span style=&quot;white-space:pre&quot;&gt;&#x9;&#x9;&lt;/span&gt;book2.setAuthor(&quot;송미영&quot;);&lt;/span&gt;&lt;/div&gt;&lt;div&gt;&lt;span style=&quot;white-space: normal;&quot;&gt;&lt;span style=&quot;white-space:pre&quot;&gt;&#x9;&#x9;&lt;/span&gt;book2.setDescription(&quot;자바를 처음 배우는 학생을 ...&quot;);&lt;/span&gt;&lt;/div&gt;&lt;div&gt;&lt;span style=&quot;white-space: normal;&quot;&gt;&lt;span style=&quot;white-space:pre&quot;&gt;&#x9;&#x9;&lt;/span&gt;book2.setPublisher(&quot;한빛아카데미&quot;);&lt;/span&gt;&lt;/div&gt;&lt;div&gt;&lt;span style=&quot;white-space: normal;&quot;&gt;&lt;span style=&quot;white-space:pre&quot;&gt;&#x9;&#x9;&lt;/span&gt;book2.setCategory(&quot;IT모바일&quot;);&lt;/span&gt;&lt;/div&gt;&lt;div&gt;&lt;span style=&quot;white-space: normal;&quot;&gt;&lt;span style=&quot;white-space:pre&quot;&gt;&#x9;&#x9;&lt;/span&gt;book2.setUnitsInStock(1000);&lt;span style=&quot;white-space:pre&quot;&gt;&#x9;&#x9;&lt;/span&gt;&lt;/span&gt;&lt;/div&gt;&lt;div&gt;&lt;span style=&quot;white-space: normal;&quot;&gt;&lt;span style=&quot;white-space:pre&quot;&gt;&#x9;&#x9;&lt;/span&gt;book2.setReleaseDate(&quot;2023/01/01&quot;);&lt;/span&gt;&lt;/div&gt;&lt;div&gt;&lt;span style=&quot;white-space: pre; white-space: normal;&quot;&gt;&#x9;&#x9;&lt;/span&gt;&lt;/div&gt;&lt;div&gt;&lt;span style=&quot;white-space: pre; white-space: normal;&quot;&gt;&#x9;&#x9;&lt;/span&gt;&lt;/div&gt;&lt;div&gt;&lt;span style=&quot;white-space: normal;&quot;&gt;&lt;span style=&quot;white-space:pre&quot;&gt;&#x9;&#x9;&lt;/span&gt;Book book3= new Book(&quot;ISBN1236&quot;,&quot;파이썬 프로그래밍&quot;, 30000);&lt;/span&gt;&lt;/div&gt;&lt;div&gt;&lt;span style=&quot;white-space: normal;&quot;&gt;&lt;span style=&quot;white-space:pre&quot;&gt;&#x9;&#x9;&lt;/span&gt;book3.setAuthor(&quot;최성철&quot;);&lt;/span&gt;&lt;/div&gt;&lt;div&gt;&lt;span style=&quot;white-space: normal;&quot;&gt;&lt;span style=&quot;white-space:pre&quot;&gt;&#x9;&#x9;&lt;/span&gt;book3.setDescription(&quot; 파이썬으로 프로그래밍을 시작하는 ...&quot;);&lt;/span&gt;&lt;/div&gt;&lt;div&gt;&lt;span style=&quot;white-space: normal;&quot;&gt;&lt;span style=&quot;white-space:pre&quot;&gt;&#x9;&#x9;&lt;/span&gt;book3.setPublisher(&quot;한빛아카데미&quot;);&lt;/span&gt;&lt;/div&gt;&lt;div&gt;&lt;span style=&quot;white-space: normal;&quot;&gt;&lt;span style=&quot;white-space:pre&quot;&gt;&#x9;&#x9;&lt;/span&gt;book3.setCategory(&quot;IT모바일&quot;);&lt;/span&gt;&lt;/div&gt;&lt;div&gt;&lt;span style=&quot;white-space: normal;&quot;&gt;&lt;span style=&quot;white-space:pre&quot;&gt;&#x9;&#x9;&lt;/span&gt;book3.setUnitsInStock(1000);&lt;span style=&quot;white-space:pre&quot;&gt;&#x9;&#x9;&lt;/span&gt;&lt;/span&gt;&lt;/div&gt;&lt;div&gt;&lt;span style=&quot;white-space: normal;&quot;&gt;&lt;span style=&quot;white-space:pre&quot;&gt;&#x9;&#x9;&lt;/span&gt;book3.setReleaseDate(&quot;2023/01/01&quot;);&lt;/span&gt;&lt;/div&gt;&lt;div&gt;&lt;span style=&quot;white-space: pre; white-space: normal;&quot;&gt;&#x9;&#x9;&lt;/span&gt;&lt;/div&gt;&lt;div&gt;&lt;span style=&quot;white-space: pre; white-space: normal;&quot;&gt;&#x9;&#x9;&lt;/span&gt;&lt;/div&gt;&lt;div&gt;&lt;span style=&quot;white-space: pre; white-space: normal;&quot;&gt;&#x9;&#x9;&lt;/span&gt;&lt;/div&gt;&lt;div&gt;&lt;span style=&quot;white-space: normal;&quot;&gt;&lt;span style=&quot;white-space:pre&quot;&gt;&#x9;&#x9;&lt;/span&gt;listOfBooks.add(book1);&lt;/span&gt;&lt;/div&gt;&lt;div&gt;&lt;span style=&quot;white-space: normal;&quot;&gt;&lt;span style=&quot;white-space:pre&quot;&gt;&#x9;&#x9;&lt;/span&gt;listOfBooks.add(book2);&lt;/span&gt;&lt;/div&gt;&lt;div&gt;&lt;span style=&quot;white-space: normal;&quot;&gt;&lt;span style=&quot;white-space:pre&quot;&gt;&#x9;&#x9;&lt;/span&gt;listOfBooks.add(book3);&lt;/span&gt;&lt;/div&gt;&lt;div&gt;&lt;span style=&quot;white-space: pre; white-space: normal;&quot;&gt;&#x9;&#x9;&lt;/span&gt;&lt;/div&gt;&lt;div&gt;&lt;span style=&quot;white-space: pre; white-space: normal;&quot;&gt;&#x9;&#x9;&lt;/span&gt;&lt;/div&gt;&lt;div&gt;&lt;span style=&quot;white-space: normal;&quot;&gt;&lt;span style=&quot;white-space:pre&quot;&gt;&#x9;&lt;/span&gt;}&lt;/span&gt;&lt;/div&gt;&lt;div&gt;&lt;span style=&quot;white-space: pre; white-space: normal;&quot;&gt;&#x9;&lt;/span&gt;&lt;/div&gt;&lt;div&gt;&lt;span style=&quot;white-space: normal;&quot;&gt;&lt;span style=&quot;white-space:pre&quot;&gt;&#x9;&lt;/span&gt;public ArrayList&amp;lt;Book&amp;gt; getAllBooks() {&lt;/span&gt;&lt;/div&gt;&lt;div&gt;&lt;span style=&quot;white-space: normal;&quot;&gt;&lt;span style=&quot;white-space:pre&quot;&gt;&#x9;&#x9;&lt;/span&gt;return listOfBooks;&lt;/span&gt;&lt;/div&gt;&lt;div&gt;&lt;span style=&quot;white-space: normal;&quot;&gt;&lt;span style=&quot;white-space:pre&quot;&gt;&#x9;&lt;/span&gt;}&lt;/span&gt;&lt;/div&gt;&lt;div&gt;&lt;span style=&quot;white-space: pre; white-space: normal;&quot;&gt;&#x9;&lt;/span&gt;&lt;/div&gt;&lt;div&gt;}&lt;/div&gt;" style="rounded=0;whiteSpace=wrap;html=1;align=left;" parent="1" vertex="1">
          <mxGeometry x="270" y="60" width="710" height="570" as="geometry" />
        </mxCell>
        <UserObject label="&lt;div style=&quot;background-color:#191d1f;padding:0px 0px 0px 2px;&quot;&gt;&lt;div style=&quot;color:#d8d8d8;background-color:#191d1f;font-family:&amp;quot;Consolas&amp;quot;;font-size:10pt;white-space:pre;&quot;&gt;&lt;p style=&quot;margin:0;&quot;&gt;&lt;span style=&quot;color:#cc7832;&quot;&gt;package&lt;/span&gt;&lt;span style=&quot;color:#d8d8d8;&quot;&gt; dto;&lt;/span&gt;&lt;/p&gt;&lt;p style=&quot;margin:0;&quot;&gt;&lt;br&gt;&lt;/p&gt;&lt;p style=&quot;margin:0;&quot;&gt;&lt;span style=&quot;color:#cc7832;&quot;&gt;import&lt;/span&gt;&lt;span style=&quot;color:#d8d8d8;&quot;&gt; java.io.Serializable;&lt;/span&gt;&lt;/p&gt;&lt;p style=&quot;margin:0;&quot;&gt;&lt;br&gt;&lt;/p&gt;&lt;p style=&quot;margin:0;&quot;&gt;&lt;span style=&quot;color:#cc7832;&quot;&gt;public&lt;/span&gt;&lt;span style=&quot;color:#d8d8d8;&quot;&gt; &lt;/span&gt;&lt;span style=&quot;color:#cc7832;&quot;&gt;class&lt;/span&gt;&lt;span style=&quot;color:#d8d8d8;&quot;&gt; &lt;/span&gt;&lt;span style=&quot;color:#a9b7c6;&quot;&gt;Book&lt;/span&gt;&lt;span style=&quot;color:#d8d8d8;&quot;&gt; &lt;/span&gt;&lt;span style=&quot;color:#cc7832;&quot;&gt;implements&lt;/span&gt;&lt;span style=&quot;color:#d8d8d8;&quot;&gt; &lt;/span&gt;&lt;span style=&quot;color:#9876aa;&quot;&gt;Serializable&lt;/span&gt;&lt;span style=&quot;color:#d8d8d8;&quot;&gt; {&lt;/span&gt;&lt;/p&gt;&lt;p style=&quot;margin:0;&quot;&gt;&lt;br&gt;&lt;/p&gt;&lt;p style=&quot;margin:0;&quot;&gt;&lt;span style=&quot;color:#d8d8d8;&quot;&gt;&lt;span style=&quot;white-space: pre;&quot;&gt;&amp;nbsp;&amp;nbsp;&amp;nbsp;&amp;nbsp;&lt;/span&gt;&lt;/span&gt;&lt;span style=&quot;color:#cc7832;&quot;&gt;private&lt;/span&gt;&lt;span style=&quot;color:#d8d8d8;&quot;&gt; &lt;/span&gt;&lt;span style=&quot;color:#cc7832;&quot;&gt;static&lt;/span&gt;&lt;span style=&quot;color:#d8d8d8;&quot;&gt; &lt;/span&gt;&lt;span style=&quot;color:#cc7832;&quot;&gt;final&lt;/span&gt;&lt;span style=&quot;color:#d8d8d8;&quot;&gt; &lt;/span&gt;&lt;span style=&quot;color:#cc7832;&quot;&gt;long&lt;/span&gt;&lt;span style=&quot;color:#d8d8d8;&quot;&gt; &lt;/span&gt;&lt;span style=&quot;color:#9876aa;&quot;&gt;serialVersionUID&lt;/span&gt;&lt;span style=&quot;color:#d8d8d8;&quot;&gt; = -&lt;/span&gt;&lt;span style=&quot;color:#6897bb;&quot;&gt;4274700572038677000L&lt;/span&gt;&lt;span style=&quot;color:#d8d8d8;&quot;&gt;;&lt;/span&gt;&lt;/p&gt;&lt;p style=&quot;margin:0;&quot;&gt;&lt;br&gt;&lt;/p&gt;&lt;p style=&quot;margin:0;&quot;&gt;&lt;span style=&quot;color:#d8d8d8;&quot;&gt;&lt;span style=&quot;white-space: pre;&quot;&gt;&amp;nbsp;&amp;nbsp;&amp;nbsp;&amp;nbsp;&lt;/span&gt;&lt;/span&gt;&lt;span style=&quot;color:#cc7832;&quot;&gt;private&lt;/span&gt;&lt;span style=&quot;color:#d8d8d8;&quot;&gt; &lt;/span&gt;&lt;span style=&quot;color:#a9b7c6;&quot;&gt;String&lt;/span&gt;&lt;span style=&quot;color:#d8d8d8;&quot;&gt; &lt;/span&gt;&lt;span style=&quot;color:#bed6ff;&quot;&gt;bookId&lt;/span&gt;&lt;span style=&quot;color:#d8d8d8;&quot;&gt;; &lt;span style=&quot;white-space: pre;&quot;&gt;&amp;nbsp;&amp;nbsp;&amp;nbsp;&amp;nbsp;&lt;/span&gt;&lt;span style=&quot;white-space: pre;&quot;&gt;&amp;nbsp;&amp;nbsp;&amp;nbsp;&amp;nbsp;&lt;/span&gt;    &lt;/span&gt;&lt;span style=&quot;color:#808080;&quot;&gt;//책 ID&lt;/span&gt;&lt;/p&gt;&lt;p style=&quot;margin:0;&quot;&gt;&lt;span style=&quot;color:#d8d8d8;&quot;&gt;&lt;span style=&quot;white-space: pre;&quot;&gt;&amp;nbsp;&amp;nbsp;&amp;nbsp;&amp;nbsp;&lt;/span&gt;&lt;/span&gt;&lt;span style=&quot;color:#cc7832;&quot;&gt;private&lt;/span&gt;&lt;span style=&quot;color:#d8d8d8;&quot;&gt; &lt;/span&gt;&lt;span style=&quot;color:#a9b7c6;&quot;&gt;String&lt;/span&gt;&lt;span style=&quot;color:#d8d8d8;&quot;&gt; &lt;/span&gt;&lt;span style=&quot;color:#bed6ff;&quot;&gt;name&lt;/span&gt;&lt;span style=&quot;color:#d8d8d8;&quot;&gt;;&lt;span style=&quot;white-space: pre;&quot;&gt;&amp;nbsp;&amp;nbsp;&amp;nbsp;&amp;nbsp;&lt;/span&gt;&lt;span style=&quot;white-space: pre;&quot;&gt;&amp;nbsp;&amp;nbsp;&amp;nbsp;&amp;nbsp;&lt;/span&gt;&lt;span style=&quot;white-space: pre;&quot;&gt;&amp;nbsp;&amp;nbsp;&amp;nbsp;&amp;nbsp;&lt;/span&gt;&lt;/span&gt;&lt;span style=&quot;color:#808080;&quot;&gt;//책이름&lt;/span&gt;&lt;/p&gt;&lt;p style=&quot;margin:0;&quot;&gt;&lt;span style=&quot;color:#d8d8d8;&quot;&gt;&lt;span style=&quot;white-space: pre;&quot;&gt;&amp;nbsp;&amp;nbsp;&amp;nbsp;&amp;nbsp;&lt;/span&gt;&lt;/span&gt;&lt;span style=&quot;color:#cc7832;&quot;&gt;private&lt;/span&gt;&lt;span style=&quot;color:#d8d8d8;&quot;&gt; &lt;/span&gt;&lt;span style=&quot;color:#cc7832;&quot;&gt;int&lt;/span&gt;&lt;span style=&quot;color:#d8d8d8;&quot;&gt;  &lt;/span&gt;&lt;span style=&quot;color:#bed6ff;&quot;&gt;unitPrice&lt;/span&gt;&lt;span style=&quot;color:#d8d8d8;&quot;&gt;; &lt;span style=&quot;white-space: pre;&quot;&gt;&amp;nbsp;&amp;nbsp;&amp;nbsp;&amp;nbsp;&lt;/span&gt;&lt;/span&gt;&lt;span style=&quot;color:#808080;&quot;&gt;//가격&lt;/span&gt;&lt;/p&gt;&lt;p style=&quot;margin:0;&quot;&gt;&lt;span style=&quot;color:#d8d8d8;&quot;&gt;&lt;span style=&quot;white-space: pre;&quot;&gt;&amp;nbsp;&amp;nbsp;&amp;nbsp;&amp;nbsp;&lt;/span&gt;&lt;/span&gt;&lt;span style=&quot;color:#cc7832;&quot;&gt;private&lt;/span&gt;&lt;span style=&quot;color:#d8d8d8;&quot;&gt; &lt;/span&gt;&lt;span style=&quot;color:#a9b7c6;&quot;&gt;String&lt;/span&gt;&lt;span style=&quot;color:#d8d8d8;&quot;&gt; &lt;/span&gt;&lt;span style=&quot;color:#bed6ff;&quot;&gt;author&lt;/span&gt;&lt;span style=&quot;color:#d8d8d8;&quot;&gt;;&lt;span style=&quot;white-space: pre;&quot;&gt;&amp;nbsp;&amp;nbsp;&amp;nbsp;&amp;nbsp;&lt;/span&gt;&lt;span style=&quot;white-space: pre;&quot;&gt;&amp;nbsp;&amp;nbsp;&amp;nbsp;&amp;nbsp;&lt;/span&gt;&lt;span style=&quot;white-space: pre;&quot;&gt;&amp;nbsp;&amp;nbsp;&amp;nbsp;&amp;nbsp;&lt;/span&gt;&lt;/span&gt;&lt;span style=&quot;color:#808080;&quot;&gt;//저자&lt;/span&gt;&lt;/p&gt;&lt;p style=&quot;margin:0;&quot;&gt;&lt;span style=&quot;color:#d8d8d8;&quot;&gt;&lt;span style=&quot;white-space: pre;&quot;&gt;&amp;nbsp;&amp;nbsp;&amp;nbsp;&amp;nbsp;&lt;/span&gt;&lt;/span&gt;&lt;span style=&quot;color:#cc7832;&quot;&gt;private&lt;/span&gt;&lt;span style=&quot;color:#d8d8d8;&quot;&gt; &lt;/span&gt;&lt;span style=&quot;color:#a9b7c6;&quot;&gt;String&lt;/span&gt;&lt;span style=&quot;color:#d8d8d8;&quot;&gt; &lt;/span&gt;&lt;span style=&quot;color:#bed6ff;&quot;&gt;description&lt;/span&gt;&lt;span style=&quot;color:#d8d8d8;&quot;&gt;; &lt;span style=&quot;white-space: pre;&quot;&gt;&amp;nbsp;&amp;nbsp;&amp;nbsp;&amp;nbsp;&lt;/span&gt;&lt;/span&gt;&lt;span style=&quot;color:#808080;&quot;&gt;//설명&lt;/span&gt;&lt;/p&gt;&lt;p style=&quot;margin:0;&quot;&gt;&lt;span style=&quot;color:#d8d8d8;&quot;&gt;&lt;span style=&quot;white-space: pre;&quot;&gt;&amp;nbsp;&amp;nbsp;&amp;nbsp;&amp;nbsp;&lt;/span&gt;&lt;/span&gt;&lt;span style=&quot;color:#cc7832;&quot;&gt;private&lt;/span&gt;&lt;span style=&quot;color:#d8d8d8;&quot;&gt; &lt;/span&gt;&lt;span style=&quot;color:#a9b7c6;&quot;&gt;String&lt;/span&gt;&lt;span style=&quot;color:#d8d8d8;&quot;&gt; &lt;/span&gt;&lt;span style=&quot;color:#bed6ff;&quot;&gt;publisher&lt;/span&gt;&lt;span style=&quot;color:#d8d8d8;&quot;&gt;;&lt;span style=&quot;white-space: pre;&quot;&gt;&amp;nbsp;&amp;nbsp;&amp;nbsp;&amp;nbsp;&lt;/span&gt;    &lt;/span&gt;&lt;span style=&quot;color:#808080;&quot;&gt;//출판사&lt;/span&gt;&lt;/p&gt;&lt;p style=&quot;margin:0;&quot;&gt;&lt;span style=&quot;color:#d8d8d8;&quot;&gt;&lt;span style=&quot;white-space: pre;&quot;&gt;&amp;nbsp;&amp;nbsp;&amp;nbsp;&amp;nbsp;&lt;/span&gt;&lt;/span&gt;&lt;span style=&quot;color:#cc7832;&quot;&gt;private&lt;/span&gt;&lt;span style=&quot;color:#d8d8d8;&quot;&gt; &lt;/span&gt;&lt;span style=&quot;color:#a9b7c6;&quot;&gt;String&lt;/span&gt;&lt;span style=&quot;color:#d8d8d8;&quot;&gt; &lt;/span&gt;&lt;span style=&quot;color:#bed6ff;&quot;&gt;category&lt;/span&gt;&lt;span style=&quot;color:#d8d8d8;&quot;&gt;; &lt;span style=&quot;white-space: pre;&quot;&gt;&amp;nbsp;&amp;nbsp;&amp;nbsp;&amp;nbsp;&lt;/span&gt;&lt;span style=&quot;white-space: pre;&quot;&gt;&amp;nbsp;&amp;nbsp;&amp;nbsp;&amp;nbsp;&lt;/span&gt;&lt;/span&gt;&lt;span style=&quot;color:#808080;&quot;&gt;//분류&lt;/span&gt;&lt;/p&gt;&lt;p style=&quot;margin:0;&quot;&gt;&lt;span style=&quot;color:#d8d8d8;&quot;&gt;&lt;span style=&quot;white-space: pre;&quot;&gt;&amp;nbsp;&amp;nbsp;&amp;nbsp;&amp;nbsp;&lt;/span&gt;&lt;/span&gt;&lt;span style=&quot;color:#cc7832;&quot;&gt;private&lt;/span&gt;&lt;span style=&quot;color:#d8d8d8;&quot;&gt; &lt;/span&gt;&lt;span style=&quot;color:#cc7832;&quot;&gt;long&lt;/span&gt;&lt;span style=&quot;color:#d8d8d8;&quot;&gt;   &lt;/span&gt;&lt;span style=&quot;color:#bed6ff;&quot;&gt;unitsInStock&lt;/span&gt;&lt;span style=&quot;color:#d8d8d8;&quot;&gt;; &lt;span style=&quot;white-space: pre;&quot;&gt;&amp;nbsp;&amp;nbsp;&amp;nbsp;&amp;nbsp;&lt;/span&gt;&lt;/span&gt;&lt;span style=&quot;color:#808080;&quot;&gt;//재고개수&lt;/span&gt;&lt;/p&gt;&lt;p style=&quot;margin:0;&quot;&gt;&lt;span style=&quot;color:#d8d8d8;&quot;&gt;&lt;span style=&quot;white-space: pre;&quot;&gt;&amp;nbsp;&amp;nbsp;&amp;nbsp;&amp;nbsp;&lt;/span&gt;&lt;/span&gt;&lt;span style=&quot;color:#cc7832;&quot;&gt;private&lt;/span&gt;&lt;span style=&quot;color:#d8d8d8;&quot;&gt; &lt;/span&gt;&lt;span style=&quot;color:#a9b7c6;&quot;&gt;String&lt;/span&gt;&lt;span style=&quot;color:#d8d8d8;&quot;&gt; &lt;/span&gt;&lt;span style=&quot;color:#bed6ff;&quot;&gt;releaseDate&lt;/span&gt;&lt;span style=&quot;color:#d8d8d8;&quot;&gt;;   &lt;/span&gt;&lt;span style=&quot;color:#808080;&quot;&gt;//출판일(월/년)&lt;/span&gt;&lt;/p&gt;&lt;p style=&quot;margin:0;&quot;&gt;&lt;span style=&quot;color:#d8d8d8;&quot;&gt;&lt;span style=&quot;white-space: pre;&quot;&gt;&amp;nbsp;&amp;nbsp;&amp;nbsp;&amp;nbsp;&lt;/span&gt;&lt;/span&gt;&lt;span style=&quot;color:#cc7832;&quot;&gt;private&lt;/span&gt;&lt;span style=&quot;color:#d8d8d8;&quot;&gt; &lt;/span&gt;&lt;span style=&quot;color:#a9b7c6;&quot;&gt;String&lt;/span&gt;&lt;span style=&quot;color:#d8d8d8;&quot;&gt; &lt;/span&gt;&lt;span style=&quot;color:#bed6ff;&quot;&gt;condition&lt;/span&gt;&lt;span style=&quot;color:#d8d8d8;&quot;&gt;; &lt;span style=&quot;white-space: pre;&quot;&gt;&amp;nbsp;&amp;nbsp;&amp;nbsp;&amp;nbsp;&lt;/span&gt;&lt;span style=&quot;white-space: pre;&quot;&gt;&amp;nbsp;&amp;nbsp;&amp;nbsp;&amp;nbsp;&lt;/span&gt;&lt;/span&gt;&lt;span style=&quot;color:#808080;&quot;&gt;//신제품 or 구제품 or 리퍼브제품&lt;/span&gt;&lt;/p&gt;&lt;p style=&quot;margin:0;&quot;&gt;&lt;span style=&quot;color:#d8d8d8;&quot;&gt;&lt;span style=&quot;white-space: pre;&quot;&gt;&amp;nbsp;&amp;nbsp;&amp;nbsp;&amp;nbsp;&lt;/span&gt;&lt;/span&gt;&lt;/p&gt;&lt;p style=&quot;margin:0;&quot;&gt;&lt;br&gt;&lt;/p&gt;&lt;p style=&quot;margin:0;&quot;&gt;&lt;span style=&quot;color:#d8d8d8;&quot;&gt;&lt;span style=&quot;white-space: pre;&quot;&gt;&amp;nbsp;&amp;nbsp;&amp;nbsp;&amp;nbsp;&lt;/span&gt;&lt;/span&gt;&lt;span style=&quot;color:#cc7832;&quot;&gt;public&lt;/span&gt;&lt;span style=&quot;color:#d8d8d8;&quot;&gt; &lt;/span&gt;&lt;span style=&quot;color:#ffc66d;&quot;&gt;Book&lt;/span&gt;&lt;span style=&quot;color:#d8d8d8;&quot;&gt;() { &lt;/span&gt;&lt;span style=&quot;font-size: 10pt; color: rgb(204, 120, 50);&quot;&gt;super&lt;/span&gt;&lt;span style=&quot;font-size: 10pt;&quot;&gt;();&lt;/span&gt;&lt;span style=&quot;font-size: 10pt;&quot;&gt;}&lt;/span&gt;&lt;/p&gt;&lt;p style=&quot;margin:0;&quot;&gt;&lt;br&gt;&lt;/p&gt;&lt;p style=&quot;margin:0;&quot;&gt;&lt;span style=&quot;color:#d8d8d8;&quot;&gt;&lt;span style=&quot;white-space: pre;&quot;&gt;&amp;nbsp;&amp;nbsp;&amp;nbsp;&amp;nbsp;&lt;/span&gt;&lt;/span&gt;&lt;span style=&quot;color:#cc7832;&quot;&gt;public&lt;/span&gt;&lt;span style=&quot;color:#d8d8d8;&quot;&gt; &lt;/span&gt;&lt;span style=&quot;color:#ffc66d;&quot;&gt;Book&lt;/span&gt;&lt;span style=&quot;color:#d8d8d8;&quot;&gt;(&lt;/span&gt;&lt;span style=&quot;color:#a9b7c6;&quot;&gt;String&lt;/span&gt;&lt;span style=&quot;color:#d8d8d8;&quot;&gt; &lt;/span&gt;&lt;span style=&quot;color:#79abff;&quot;&gt;bookId&lt;/span&gt;&lt;span style=&quot;color:#d8d8d8;&quot;&gt;, &lt;/span&gt;&lt;span style=&quot;color:#a9b7c6;&quot;&gt;String&lt;/span&gt;&lt;span style=&quot;color:#d8d8d8;&quot;&gt; &lt;/span&gt;&lt;span style=&quot;color:#79abff;&quot;&gt;name&lt;/span&gt;&lt;span style=&quot;color:#d8d8d8;&quot;&gt;, &lt;/span&gt;&lt;span style=&quot;color:#a9b7c6;&quot;&gt;Integer&lt;/span&gt;&lt;span style=&quot;color:#d8d8d8;&quot;&gt; &lt;/span&gt;&lt;span style=&quot;color:#79abff;&quot;&gt;unitPrice&lt;/span&gt;&lt;span style=&quot;color:#d8d8d8;&quot;&gt;) {&lt;/span&gt;&lt;/p&gt;&lt;p style=&quot;margin:0;&quot;&gt;&lt;span style=&quot;color:#d8d8d8;&quot;&gt;&lt;span style=&quot;white-space: pre;&quot;&gt;&amp;nbsp;&amp;nbsp;&amp;nbsp;&amp;nbsp;&lt;/span&gt;&lt;span style=&quot;white-space: pre;&quot;&gt;&amp;nbsp;&amp;nbsp;&amp;nbsp;&amp;nbsp;&lt;/span&gt;&lt;/span&gt;&lt;span style=&quot;color:#cc7832;&quot;&gt;this&lt;/span&gt;&lt;span style=&quot;color:#d8d8d8;&quot;&gt;.&lt;/span&gt;&lt;span style=&quot;color:#bed6ff;&quot;&gt;bookId&lt;/span&gt;&lt;span style=&quot;color:#d8d8d8;&quot;&gt; = &lt;/span&gt;&lt;span style=&quot;color:#79abff;&quot;&gt;bookId&lt;/span&gt;&lt;span style=&quot;color:#d8d8d8;&quot;&gt;;&lt;/span&gt;&lt;/p&gt;&lt;p style=&quot;margin:0;&quot;&gt;&lt;span style=&quot;color:#d8d8d8;&quot;&gt;&lt;span style=&quot;white-space: pre;&quot;&gt;&amp;nbsp;&amp;nbsp;&amp;nbsp;&amp;nbsp;&lt;/span&gt;&lt;span style=&quot;white-space: pre;&quot;&gt;&amp;nbsp;&amp;nbsp;&amp;nbsp;&amp;nbsp;&lt;/span&gt;&lt;/span&gt;&lt;span style=&quot;color:#cc7832;&quot;&gt;this&lt;/span&gt;&lt;span style=&quot;color:#d8d8d8;&quot;&gt;.&lt;/span&gt;&lt;span style=&quot;color:#bed6ff;&quot;&gt;name&lt;/span&gt;&lt;span style=&quot;color:#d8d8d8;&quot;&gt; = &lt;/span&gt;&lt;span style=&quot;color:#79abff;&quot;&gt;name&lt;/span&gt;&lt;span style=&quot;color:#d8d8d8;&quot;&gt;;&lt;/span&gt;&lt;/p&gt;&lt;p style=&quot;margin:0;&quot;&gt;&lt;span style=&quot;color:#d8d8d8;&quot;&gt;&lt;span style=&quot;white-space: pre;&quot;&gt;&amp;nbsp;&amp;nbsp;&amp;nbsp;&amp;nbsp;&lt;/span&gt;&lt;span style=&quot;white-space: pre;&quot;&gt;&amp;nbsp;&amp;nbsp;&amp;nbsp;&amp;nbsp;&lt;/span&gt;&lt;/span&gt;&lt;span style=&quot;color:#cc7832;&quot;&gt;this&lt;/span&gt;&lt;span style=&quot;color:#d8d8d8;&quot;&gt;.&lt;/span&gt;&lt;span style=&quot;color:#bed6ff;&quot;&gt;unitPrice&lt;/span&gt;&lt;span style=&quot;color:#d8d8d8;&quot;&gt; = &lt;/span&gt;&lt;span style=&quot;color:#79abff;&quot;&gt;unitPrice&lt;/span&gt;&lt;span style=&quot;color:#d8d8d8;&quot;&gt;;&lt;/span&gt;&lt;/p&gt;&lt;p style=&quot;margin:0;&quot;&gt;&lt;span style=&quot;color:#d8d8d8;&quot;&gt;&lt;span style=&quot;white-space: pre;&quot;&gt;&amp;nbsp;&amp;nbsp;&amp;nbsp;&amp;nbsp;&lt;/span&gt;}&lt;/span&gt;&lt;/p&gt;&lt;p style=&quot;margin:0;&quot;&gt;&lt;span style=&quot;color:#d8d8d8;&quot;&gt;}&lt;/span&gt;&lt;/p&gt;&lt;/div&gt;&lt;/div&gt;" link="&lt;div style=&quot;background-color:#191d1f;padding:0px 0px 0px 2px;&quot;&gt;&lt;div style=&quot;color:#d8d8d8;background-color:#191d1f;font-family:&amp;quot;Consolas&amp;quot;;font-size:10pt;white-space:pre;&quot;&gt;&lt;p style=&quot;margin:0;&quot;&gt;&lt;span style=&quot;color:#cc7832;&quot;&gt;package&lt;/span&gt;&lt;span style=&quot;color:#d8d8d8;&quot;&gt; dto;&lt;/span&gt;&lt;/p&gt;&lt;p style=&quot;margin:0;&quot;&gt;&lt;br&gt;&lt;/p&gt;&lt;p style=&quot;margin:0;&quot;&gt;&lt;span style=&quot;color:#cc7832;&quot;&gt;import&lt;/span&gt;&lt;span style=&quot;color:#d8d8d8;&quot;&gt; java.io.Serializable;&lt;/span&gt;&lt;/p&gt;&lt;p style=&quot;margin:0;&quot;&gt;&lt;br&gt;&lt;/p&gt;&lt;p style=&quot;margin:0;&quot;&gt;&lt;span style=&quot;color:#cc7832;&quot;&gt;public&lt;/span&gt;&lt;span style=&quot;color:#d8d8d8;&quot;&gt; &lt;/span&gt;&lt;span style=&quot;color:#cc7832;&quot;&gt;class&lt;/span&gt;&lt;span style=&quot;color:#d8d8d8;&quot;&gt; &lt;/span&gt;&lt;span style=&quot;color:#a9b7c6;&quot;&gt;Book&lt;/span&gt;&lt;span style=&quot;color:#d8d8d8;&quot;&gt; &lt;/span&gt;&lt;span style=&quot;color:#cc7832;&quot;&gt;implements&lt;/span&gt;&lt;span style=&quot;color:#d8d8d8;&quot;&gt; &lt;/span&gt;&lt;span style=&quot;color:#9876aa;&quot;&gt;Serializable&lt;/span&gt;&lt;span style=&quot;color:#d8d8d8;&quot;&gt; {&lt;/span&gt;&lt;/p&gt;&lt;p style=&quot;margin:0;&quot;&gt;&lt;br&gt;&lt;/p&gt;&lt;p style=&quot;margin:0;&quot;&gt;&lt;span style=&quot;color:#d8d8d8;&quot;&gt;&lt;span style=&quot;white-space: pre;&quot;&gt;&amp;nbsp;&amp;nbsp;&amp;nbsp;&amp;nbsp;&lt;/span&gt;&lt;/span&gt;&lt;span style=&quot;color:#cc7832;&quot;&gt;private&lt;/span&gt;&lt;span style=&quot;color:#d8d8d8;&quot;&gt; &lt;/span&gt;&lt;span style=&quot;color:#cc7832;&quot;&gt;static&lt;/span&gt;&lt;span style=&quot;color:#d8d8d8;&quot;&gt; &lt;/span&gt;&lt;span style=&quot;color:#cc7832;&quot;&gt;final&lt;/span&gt;&lt;span style=&quot;color:#d8d8d8;&quot;&gt; &lt;/span&gt;&lt;span style=&quot;color:#cc7832;&quot;&gt;long&lt;/span&gt;&lt;span style=&quot;color:#d8d8d8;&quot;&gt; &lt;/span&gt;&lt;span style=&quot;color:#9876aa;&quot;&gt;serialVersionUID&lt;/span&gt;&lt;span style=&quot;color:#d8d8d8;&quot;&gt; = -&lt;/span&gt;&lt;span style=&quot;color:#6897bb;&quot;&gt;4274700572038677000L&lt;/span&gt;&lt;span style=&quot;color:#d8d8d8;&quot;&gt;;&lt;/span&gt;&lt;/p&gt;&lt;p style=&quot;margin:0;&quot;&gt;&lt;br&gt;&lt;/p&gt;&lt;p style=&quot;margin:0;&quot;&gt;&lt;span style=&quot;color:#d8d8d8;&quot;&gt;&lt;span style=&quot;white-space: pre;&quot;&gt;&amp;nbsp;&amp;nbsp;&amp;nbsp;&amp;nbsp;&lt;/span&gt;&lt;/span&gt;&lt;span style=&quot;color:#cc7832;&quot;&gt;private&lt;/span&gt;&lt;span style=&quot;color:#d8d8d8;&quot;&gt; &lt;/span&gt;&lt;span style=&quot;color:#a9b7c6;&quot;&gt;String&lt;/span&gt;&lt;span style=&quot;color:#d8d8d8;&quot;&gt; &lt;/span&gt;&lt;span style=&quot;color:#bed6ff;&quot;&gt;bookId&lt;/span&gt;&lt;span style=&quot;color:#d8d8d8;&quot;&gt;; &lt;span style=&quot;white-space: pre;&quot;&gt;&amp;nbsp;&amp;nbsp;&amp;nbsp;&amp;nbsp;&lt;/span&gt;&lt;span style=&quot;white-space: pre;&quot;&gt;&amp;nbsp;&amp;nbsp;&amp;nbsp;&amp;nbsp;&lt;/span&gt;    &lt;/span&gt;&lt;span style=&quot;color:#808080;&quot;&gt;//책 ID&lt;/span&gt;&lt;/p&gt;&lt;p style=&quot;margin:0;&quot;&gt;&lt;span style=&quot;color:#d8d8d8;&quot;&gt;&lt;span style=&quot;white-space: pre;&quot;&gt;&amp;nbsp;&amp;nbsp;&amp;nbsp;&amp;nbsp;&lt;/span&gt;&lt;/span&gt;&lt;span style=&quot;color:#cc7832;&quot;&gt;private&lt;/span&gt;&lt;span style=&quot;color:#d8d8d8;&quot;&gt; &lt;/span&gt;&lt;span style=&quot;color:#a9b7c6;&quot;&gt;String&lt;/span&gt;&lt;span style=&quot;color:#d8d8d8;&quot;&gt; &lt;/span&gt;&lt;span style=&quot;color:#bed6ff;&quot;&gt;name&lt;/span&gt;&lt;span style=&quot;color:#d8d8d8;&quot;&gt;;&lt;span style=&quot;white-space: pre;&quot;&gt;&amp;nbsp;&amp;nbsp;&amp;nbsp;&amp;nbsp;&lt;/span&gt;&lt;span style=&quot;white-space: pre;&quot;&gt;&amp;nbsp;&amp;nbsp;&amp;nbsp;&amp;nbsp;&lt;/span&gt;&lt;span style=&quot;white-space: pre;&quot;&gt;&amp;nbsp;&amp;nbsp;&amp;nbsp;&amp;nbsp;&lt;/span&gt;&lt;/span&gt;&lt;span style=&quot;color:#808080;&quot;&gt;//책이름&lt;/span&gt;&lt;/p&gt;&lt;p style=&quot;margin:0;&quot;&gt;&lt;span style=&quot;color:#d8d8d8;&quot;&gt;&lt;span style=&quot;white-space: pre;&quot;&gt;&amp;nbsp;&amp;nbsp;&amp;nbsp;&amp;nbsp;&lt;/span&gt;&lt;/span&gt;&lt;span style=&quot;color:#cc7832;&quot;&gt;private&lt;/span&gt;&lt;span style=&quot;color:#d8d8d8;&quot;&gt; &lt;/span&gt;&lt;span style=&quot;color:#cc7832;&quot;&gt;int&lt;/span&gt;&lt;span style=&quot;color:#d8d8d8;&quot;&gt;  &lt;/span&gt;&lt;span style=&quot;color:#bed6ff;&quot;&gt;unitPrice&lt;/span&gt;&lt;span style=&quot;color:#d8d8d8;&quot;&gt;; &lt;span style=&quot;white-space: pre;&quot;&gt;&amp;nbsp;&amp;nbsp;&amp;nbsp;&amp;nbsp;&lt;/span&gt;&lt;/span&gt;&lt;span style=&quot;color:#808080;&quot;&gt;//가격&lt;/span&gt;&lt;/p&gt;&lt;p style=&quot;margin:0;&quot;&gt;&lt;span style=&quot;color:#d8d8d8;&quot;&gt;&lt;span style=&quot;white-space: pre;&quot;&gt;&amp;nbsp;&amp;nbsp;&amp;nbsp;&amp;nbsp;&lt;/span&gt;&lt;/span&gt;&lt;span style=&quot;color:#cc7832;&quot;&gt;private&lt;/span&gt;&lt;span style=&quot;color:#d8d8d8;&quot;&gt; &lt;/span&gt;&lt;span style=&quot;color:#a9b7c6;&quot;&gt;String&lt;/span&gt;&lt;span style=&quot;color:#d8d8d8;&quot;&gt; &lt;/span&gt;&lt;span style=&quot;color:#bed6ff;&quot;&gt;author&lt;/span&gt;&lt;span style=&quot;color:#d8d8d8;&quot;&gt;;&lt;span style=&quot;white-space: pre;&quot;&gt;&amp;nbsp;&amp;nbsp;&amp;nbsp;&amp;nbsp;&lt;/span&gt;&lt;span style=&quot;white-space: pre;&quot;&gt;&amp;nbsp;&amp;nbsp;&amp;nbsp;&amp;nbsp;&lt;/span&gt;&lt;span style=&quot;white-space: pre;&quot;&gt;&amp;nbsp;&amp;nbsp;&amp;nbsp;&amp;nbsp;&lt;/span&gt;&lt;/span&gt;&lt;span style=&quot;color:#808080;&quot;&gt;//저자&lt;/span&gt;&lt;/p&gt;&lt;p style=&quot;margin:0;&quot;&gt;&lt;span style=&quot;color:#d8d8d8;&quot;&gt;&lt;span style=&quot;white-space: pre;&quot;&gt;&amp;nbsp;&amp;nbsp;&amp;nbsp;&amp;nbsp;&lt;/span&gt;&lt;/span&gt;&lt;span style=&quot;color:#cc7832;&quot;&gt;private&lt;/span&gt;&lt;span style=&quot;color:#d8d8d8;&quot;&gt; &lt;/span&gt;&lt;span style=&quot;color:#a9b7c6;&quot;&gt;String&lt;/span&gt;&lt;span style=&quot;color:#d8d8d8;&quot;&gt; &lt;/span&gt;&lt;span style=&quot;color:#bed6ff;&quot;&gt;description&lt;/span&gt;&lt;span style=&quot;color:#d8d8d8;&quot;&gt;; &lt;span style=&quot;white-space: pre;&quot;&gt;&amp;nbsp;&amp;nbsp;&amp;nbsp;&amp;nbsp;&lt;/span&gt;&lt;/span&gt;&lt;span style=&quot;color:#808080;&quot;&gt;//설명&lt;/span&gt;&lt;/p&gt;&lt;p style=&quot;margin:0;&quot;&gt;&lt;span style=&quot;color:#d8d8d8;&quot;&gt;&lt;span style=&quot;white-space: pre;&quot;&gt;&amp;nbsp;&amp;nbsp;&amp;nbsp;&amp;nbsp;&lt;/span&gt;&lt;/span&gt;&lt;span style=&quot;color:#cc7832;&quot;&gt;private&lt;/span&gt;&lt;span style=&quot;color:#d8d8d8;&quot;&gt; &lt;/span&gt;&lt;span style=&quot;color:#a9b7c6;&quot;&gt;String&lt;/span&gt;&lt;span style=&quot;color:#d8d8d8;&quot;&gt; &lt;/span&gt;&lt;span style=&quot;color:#bed6ff;&quot;&gt;publisher&lt;/span&gt;&lt;span style=&quot;color:#d8d8d8;&quot;&gt;;&lt;span style=&quot;white-space: pre;&quot;&gt;&amp;nbsp;&amp;nbsp;&amp;nbsp;&amp;nbsp;&lt;/span&gt;    &lt;/span&gt;&lt;span style=&quot;color:#808080;&quot;&gt;//출판사&lt;/span&gt;&lt;/p&gt;&lt;p style=&quot;margin:0;&quot;&gt;&lt;span style=&quot;color:#d8d8d8;&quot;&gt;&lt;span style=&quot;white-space: pre;&quot;&gt;&amp;nbsp;&amp;nbsp;&amp;nbsp;&amp;nbsp;&lt;/span&gt;&lt;/span&gt;&lt;span style=&quot;color:#cc7832;&quot;&gt;private&lt;/span&gt;&lt;span style=&quot;color:#d8d8d8;&quot;&gt; &lt;/span&gt;&lt;span style=&quot;color:#a9b7c6;&quot;&gt;String&lt;/span&gt;&lt;span style=&quot;color:#d8d8d8;&quot;&gt; &lt;/span&gt;&lt;span style=&quot;color:#bed6ff;&quot;&gt;category&lt;/span&gt;&lt;span style=&quot;color:#d8d8d8;&quot;&gt;; &lt;span style=&quot;white-space: pre;&quot;&gt;&amp;nbsp;&amp;nbsp;&amp;nbsp;&amp;nbsp;&lt;/span&gt;&lt;span style=&quot;white-space: pre;&quot;&gt;&amp;nbsp;&amp;nbsp;&amp;nbsp;&amp;nbsp;&lt;/span&gt;&lt;/span&gt;&lt;span style=&quot;color:#808080;&quot;&gt;//분류&lt;/span&gt;&lt;/p&gt;&lt;p style=&quot;margin:0;&quot;&gt;&lt;span style=&quot;color:#d8d8d8;&quot;&gt;&lt;span style=&quot;white-space: pre;&quot;&gt;&amp;nbsp;&amp;nbsp;&amp;nbsp;&amp;nbsp;&lt;/span&gt;&lt;/span&gt;&lt;span style=&quot;color:#cc7832;&quot;&gt;private&lt;/span&gt;&lt;span style=&quot;color:#d8d8d8;&quot;&gt; &lt;/span&gt;&lt;span style=&quot;color:#cc7832;&quot;&gt;long&lt;/span&gt;&lt;span style=&quot;color:#d8d8d8;&quot;&gt;   &lt;/span&gt;&lt;span style=&quot;color:#bed6ff;&quot;&gt;unitsInStock&lt;/span&gt;&lt;span style=&quot;color:#d8d8d8;&quot;&gt;; &lt;span style=&quot;white-space: pre;&quot;&gt;&amp;nbsp;&amp;nbsp;&amp;nbsp;&amp;nbsp;&lt;/span&gt;&lt;/span&gt;&lt;span style=&quot;color:#808080;&quot;&gt;//재고개수&lt;/span&gt;&lt;/p&gt;&lt;p style=&quot;margin:0;&quot;&gt;&lt;span style=&quot;color:#d8d8d8;&quot;&gt;&lt;span style=&quot;white-space: pre;&quot;&gt;&amp;nbsp;&amp;nbsp;&amp;nbsp;&amp;nbsp;&lt;/span&gt;&lt;/span&gt;&lt;span style=&quot;color:#cc7832;&quot;&gt;private&lt;/span&gt;&lt;span style=&quot;color:#d8d8d8;&quot;&gt; &lt;/span&gt;&lt;span style=&quot;color:#a9b7c6;&quot;&gt;String&lt;/span&gt;&lt;span style=&quot;color:#d8d8d8;&quot;&gt; &lt;/span&gt;&lt;span style=&quot;color:#bed6ff;&quot;&gt;releaseDate&lt;/span&gt;&lt;span style=&quot;color:#d8d8d8;&quot;&gt;;   &lt;/span&gt;&lt;span style=&quot;color:#808080;&quot;&gt;//출판일(월/년)&lt;/span&gt;&lt;/p&gt;&lt;p style=&quot;margin:0;&quot;&gt;&lt;span style=&quot;color:#d8d8d8;&quot;&gt;&lt;span style=&quot;white-space: pre;&quot;&gt;&amp;nbsp;&amp;nbsp;&amp;nbsp;&amp;nbsp;&lt;/span&gt;&lt;/span&gt;&lt;span style=&quot;color:#cc7832;&quot;&gt;private&lt;/span&gt;&lt;span style=&quot;color:#d8d8d8;&quot;&gt; &lt;/span&gt;&lt;span style=&quot;color:#a9b7c6;&quot;&gt;String&lt;/span&gt;&lt;span style=&quot;color:#d8d8d8;&quot;&gt; &lt;/span&gt;&lt;span style=&quot;color:#bed6ff;&quot;&gt;condition&lt;/span&gt;&lt;span style=&quot;color:#d8d8d8;&quot;&gt;; &lt;span style=&quot;white-space: pre;&quot;&gt;&amp;nbsp;&amp;nbsp;&amp;nbsp;&amp;nbsp;&lt;/span&gt;&lt;span style=&quot;white-space: pre;&quot;&gt;&amp;nbsp;&amp;nbsp;&amp;nbsp;&amp;nbsp;&lt;/span&gt;&lt;/span&gt;&lt;span style=&quot;color:#808080;&quot;&gt;//신제품 or 구제품 or 리퍼브제품&lt;/span&gt;&lt;/p&gt;&lt;p style=&quot;margin:0;&quot;&gt;&lt;span style=&quot;color:#d8d8d8;&quot;&gt;&lt;span style=&quot;white-space: pre;&quot;&gt;&amp;nbsp;&amp;nbsp;&amp;nbsp;&amp;nbsp;&lt;/span&gt;&lt;/span&gt;&lt;/p&gt;&lt;p style=&quot;margin:0;&quot;&gt;&lt;br&gt;&lt;/p&gt;&lt;p style=&quot;margin:0;&quot;&gt;&lt;span style=&quot;color:#d8d8d8;&quot;&gt;&lt;span style=&quot;white-space: pre;&quot;&gt;&amp;nbsp;&amp;nbsp;&amp;nbsp;&amp;nbsp;&lt;/span&gt;&lt;/span&gt;&lt;span style=&quot;color:#cc7832;&quot;&gt;public&lt;/span&gt;&lt;span style=&quot;color:#d8d8d8;&quot;&gt; &lt;/span&gt;&lt;span style=&quot;color:#ffc66d;&quot;&gt;Book&lt;/span&gt;&lt;span style=&quot;color:#d8d8d8;&quot;&gt;() {&lt;/span&gt;&lt;/p&gt;&lt;p style=&quot;margin:0;&quot;&gt;&lt;span style=&quot;color:#d8d8d8;&quot;&gt;&lt;span style=&quot;white-space: pre;&quot;&gt;&amp;nbsp;&amp;nbsp;&amp;nbsp;&amp;nbsp;&lt;/span&gt;&lt;span style=&quot;white-space: pre;&quot;&gt;&amp;nbsp;&amp;nbsp;&amp;nbsp;&amp;nbsp;&lt;/span&gt;&lt;/span&gt;&lt;span style=&quot;color:#cc7832;&quot;&gt;super&lt;/span&gt;&lt;span style=&quot;color:#d8d8d8;&quot;&gt;();&lt;/span&gt;&lt;/p&gt;&lt;p style=&quot;margin:0;&quot;&gt;&lt;span style=&quot;color:#d8d8d8;&quot;&gt;}&lt;/span&gt;&lt;/p&gt;&lt;p style=&quot;margin:0;&quot;&gt;&lt;br&gt;&lt;/p&gt;&lt;p style=&quot;margin:0;&quot;&gt;&lt;span style=&quot;color:#d8d8d8;&quot;&gt;&lt;span style=&quot;white-space: pre;&quot;&gt;&amp;nbsp;&amp;nbsp;&amp;nbsp;&amp;nbsp;&lt;/span&gt;&lt;/span&gt;&lt;span style=&quot;color:#cc7832;&quot;&gt;public&lt;/span&gt;&lt;span style=&quot;color:#d8d8d8;&quot;&gt; &lt;/span&gt;&lt;span style=&quot;color:#ffc66d;&quot;&gt;Book&lt;/span&gt;&lt;span style=&quot;color:#d8d8d8;&quot;&gt;(&lt;/span&gt;&lt;span style=&quot;color:#a9b7c6;&quot;&gt;String&lt;/span&gt;&lt;span style=&quot;color:#d8d8d8;&quot;&gt; &lt;/span&gt;&lt;span style=&quot;color:#79abff;&quot;&gt;bookId&lt;/span&gt;&lt;span style=&quot;color:#d8d8d8;&quot;&gt;, &lt;/span&gt;&lt;span style=&quot;color:#a9b7c6;&quot;&gt;String&lt;/span&gt;&lt;span style=&quot;color:#d8d8d8;&quot;&gt; &lt;/span&gt;&lt;span style=&quot;color:#79abff;&quot;&gt;name&lt;/span&gt;&lt;span style=&quot;color:#d8d8d8;&quot;&gt;, &lt;/span&gt;&lt;span style=&quot;color:#a9b7c6;&quot;&gt;Integer&lt;/span&gt;&lt;span style=&quot;color:#d8d8d8;&quot;&gt; &lt;/span&gt;&lt;span style=&quot;color:#79abff;&quot;&gt;unitPrice&lt;/span&gt;&lt;span style=&quot;color:#d8d8d8;&quot;&gt;) {&lt;/span&gt;&lt;/p&gt;&lt;p style=&quot;margin:0;&quot;&gt;&lt;span style=&quot;color:#d8d8d8;&quot;&gt;&lt;span style=&quot;white-space: pre;&quot;&gt;&amp;nbsp;&amp;nbsp;&amp;nbsp;&amp;nbsp;&lt;/span&gt;&lt;span style=&quot;white-space: pre;&quot;&gt;&amp;nbsp;&amp;nbsp;&amp;nbsp;&amp;nbsp;&lt;/span&gt;&lt;/span&gt;&lt;span style=&quot;color:#cc7832;&quot;&gt;this&lt;/span&gt;&lt;span style=&quot;color:#d8d8d8;&quot;&gt;.&lt;/span&gt;&lt;span style=&quot;color:#bed6ff;&quot;&gt;bookId&lt;/span&gt;&lt;span style=&quot;color:#d8d8d8;&quot;&gt; = &lt;/span&gt;&lt;span style=&quot;color:#79abff;&quot;&gt;bookId&lt;/span&gt;&lt;span style=&quot;color:#d8d8d8;&quot;&gt;;&lt;/span&gt;&lt;/p&gt;&lt;p style=&quot;margin:0;&quot;&gt;&lt;span style=&quot;color:#d8d8d8;&quot;&gt;&lt;span style=&quot;white-space: pre;&quot;&gt;&amp;nbsp;&amp;nbsp;&amp;nbsp;&amp;nbsp;&lt;/span&gt;&lt;span style=&quot;white-space: pre;&quot;&gt;&amp;nbsp;&amp;nbsp;&amp;nbsp;&amp;nbsp;&lt;/span&gt;&lt;/span&gt;&lt;span style=&quot;color:#cc7832;&quot;&gt;this&lt;/span&gt;&lt;span style=&quot;color:#d8d8d8;&quot;&gt;.&lt;/span&gt;&lt;span style=&quot;color:#bed6ff;&quot;&gt;name&lt;/span&gt;&lt;span style=&quot;color:#d8d8d8;&quot;&gt; = &lt;/span&gt;&lt;span style=&quot;color:#79abff;&quot;&gt;name&lt;/span&gt;&lt;span style=&quot;color:#d8d8d8;&quot;&gt;;&lt;/span&gt;&lt;/p&gt;&lt;p style=&quot;margin:0;&quot;&gt;&lt;span style=&quot;color:#d8d8d8;&quot;&gt;&lt;span style=&quot;white-space: pre;&quot;&gt;&amp;nbsp;&amp;nbsp;&amp;nbsp;&amp;nbsp;&lt;/span&gt;&lt;span style=&quot;white-space: pre;&quot;&gt;&amp;nbsp;&amp;nbsp;&amp;nbsp;&amp;nbsp;&lt;/span&gt;&lt;/span&gt;&lt;span style=&quot;color:#cc7832;&quot;&gt;this&lt;/span&gt;&lt;span style=&quot;color:#d8d8d8;&quot;&gt;.&lt;/span&gt;&lt;span style=&quot;color:#bed6ff;&quot;&gt;unitPrice&lt;/span&gt;&lt;span style=&quot;color:#d8d8d8;&quot;&gt; = &lt;/span&gt;&lt;span style=&quot;color:#79abff;&quot;&gt;unitPrice&lt;/span&gt;&lt;span style=&quot;color:#d8d8d8;&quot;&gt;;&lt;/span&gt;&lt;/p&gt;&lt;p style=&quot;margin:0;&quot;&gt;&lt;span style=&quot;color:#d8d8d8;&quot;&gt;&lt;span style=&quot;white-space: pre;&quot;&gt;&amp;nbsp;&amp;nbsp;&amp;nbsp;&amp;nbsp;&lt;/span&gt;}&lt;/span&gt;&lt;/p&gt;&lt;/div&gt;&lt;/div&gt;" id="sL9KzqHIcuMjWzqX6_P6-2">
          <mxCell style="text;whiteSpace=wrap;html=1;" parent="1" vertex="1">
            <mxGeometry x="1030" y="55" width="560" height="490" as="geometry" />
          </mxCell>
        </UserObject>
        <UserObject label="&lt;div style=&quot;background-color:#191d1f;padding:0px 0px 0px 2px;&quot;&gt;&lt;div style=&quot;color:#d8d8d8;background-color:#191d1f;font-family:&amp;quot;Consolas&amp;quot;;font-size:10pt;white-space:pre;&quot;&gt;&lt;p style=&quot;margin:0;&quot;&gt;&lt;span style=&quot;color:#d8d8d8;&quot;&gt;&amp;lt;%@&lt;/span&gt; &lt;span style=&quot;color:#03a8d8;font-weight:bold;&quot;&gt;page&lt;/span&gt; &lt;span style=&quot;color:#cc7832;&quot;&gt;contentType&lt;/span&gt;&lt;span style=&quot;color:#d8d8d8;&quot;&gt;=&lt;/span&gt;&lt;span style=&quot;color:#a5c25c;&quot;&gt;&quot;text/html; charset=utf-8&quot;&lt;/span&gt;&lt;span style=&quot;color:#d8d8d8;&quot;&gt;%&amp;gt;&lt;/span&gt;&lt;/p&gt;&lt;p style=&quot;margin:0;&quot;&gt;&lt;span style=&quot;color:#d8d8d8;&quot;&gt;&amp;lt;%@&lt;/span&gt; &lt;span style=&quot;color:#03a8d8;font-weight:bold;&quot;&gt;page&lt;/span&gt; &lt;span style=&quot;color:#cc7832;&quot;&gt;import&lt;/span&gt;&lt;span style=&quot;color:#d8d8d8;&quot;&gt;=&lt;/span&gt;&lt;span style=&quot;color:#a5c25c;&quot;&gt;&quot;java.util.ArrayList&quot;&lt;/span&gt;&lt;span style=&quot;color:#d8d8d8;&quot;&gt;%&amp;gt;&lt;/span&gt;&lt;/p&gt;&lt;p style=&quot;margin:0;&quot;&gt;&lt;span style=&quot;color:#d8d8d8;&quot;&gt;&amp;lt;%@&lt;/span&gt; &lt;span style=&quot;color:#03a8d8;font-weight:bold;&quot;&gt;page&lt;/span&gt; &lt;span style=&quot;color:#cc7832;&quot;&gt;import&lt;/span&gt;&lt;span style=&quot;color:#d8d8d8;&quot;&gt;=&lt;/span&gt;&lt;span style=&quot;color:#a5c25c;&quot;&gt;&quot;dto.Book&quot;&lt;/span&gt;&lt;span style=&quot;color:#d8d8d8;&quot;&gt;%&amp;gt;&lt;/span&gt;&lt;/p&gt;&lt;p style=&quot;margin:0;&quot;&gt;&lt;span style=&quot;color:#a9b7c6;&quot;&gt;&amp;lt;&lt;/span&gt;&lt;span style=&quot;color:#03a8d8;font-weight:bold;&quot;&gt;jsp:useBean&lt;/span&gt; &lt;span style=&quot;color:#cc7832;&quot;&gt;id&lt;/span&gt;&lt;span style=&quot;color:#d8d8d8;&quot;&gt;=&lt;/span&gt;&lt;span style=&quot;color:#a5c25c;&quot;&gt;&quot;bookDAO&quot;&lt;/span&gt; &lt;span style=&quot;color:#cc7832;&quot;&gt;class&lt;/span&gt;&lt;span style=&quot;color:#d8d8d8;&quot;&gt;=&lt;/span&gt;&lt;span style=&quot;color:#a5c25c;&quot;&gt;&quot;dao.BookRepository&quot;&lt;/span&gt; &lt;span style=&quot;color:#cc7832;&quot;&gt;scope&lt;/span&gt;&lt;span style=&quot;color:#d8d8d8;&quot;&gt;=&lt;/span&gt;&lt;span style=&quot;color:#a5c25c;&quot;&gt;&quot;session&quot;&lt;/span&gt; &lt;span style=&quot;color:#a9b7c6;&quot;&gt;/&amp;gt;&lt;/span&gt;&lt;/p&gt;&lt;p style=&quot;margin:0;&quot;&gt;&lt;br&gt;&lt;/p&gt;&lt;p style=&quot;margin:0;&quot;&gt;&lt;br&gt;&lt;/p&gt;&lt;p style=&quot;margin:0;&quot;&gt;&lt;span style=&quot;color:#79abff;&quot;&gt;&amp;lt;&lt;/span&gt;&lt;span style=&quot;color:#bed6ff;&quot;&gt;html&lt;/span&gt;&lt;span style=&quot;color:#79abff;&quot;&gt;&amp;gt;&lt;/span&gt;&lt;/p&gt;&lt;p style=&quot;margin:0;&quot;&gt;&lt;span style=&quot;color:#79abff;&quot;&gt;&amp;lt;&lt;/span&gt;&lt;span style=&quot;color:#bed6ff;&quot;&gt;head&lt;/span&gt;&lt;span style=&quot;color:#79abff;&quot;&gt;&amp;gt;&lt;/span&gt;&lt;/p&gt;&lt;p style=&quot;margin:0;&quot;&gt;&lt;span style=&quot;color:#d8d8d8;&quot;&gt; &lt;/span&gt;&lt;span style=&quot;color:#79abff;&quot;&gt;&amp;lt;&lt;/span&gt;&lt;span style=&quot;color:#bed6ff;&quot;&gt;link&lt;/span&gt; &lt;span style=&quot;color:#bed6ff;&quot;&gt;href&lt;/span&gt;&lt;span style=&quot;color:#d8d8d8;&quot;&gt;=&lt;/span&gt;&lt;span style=&quot;color:#a5c25c;&quot;&gt;&quot;https://cdn.jsdelivr.net/npm/bootstrap@5.3.0-alpha1/dist/css/bootstrap.min.css&quot;&lt;/span&gt; &lt;span style=&quot;color:#bed6ff;&quot;&gt;rel&lt;/span&gt;&lt;span style=&quot;color:#d8d8d8;&quot;&gt;=&lt;/span&gt;&lt;span style=&quot;color:#a5c25c;&quot;&gt;&quot;stylesheet&quot;&lt;/span&gt;&lt;span style=&quot;color:#79abff;&quot;&gt;&amp;gt;&lt;/span&gt;&lt;/p&gt;&lt;p style=&quot;margin:0;&quot;&gt;&lt;br&gt;&lt;/p&gt;&lt;p style=&quot;margin:0;&quot;&gt;&lt;span style=&quot;color:#79abff;&quot;&gt;&amp;lt;&lt;/span&gt;&lt;span style=&quot;color:#bed6ff;&quot;&gt;title&lt;/span&gt;&lt;span style=&quot;color:#79abff;&quot;&gt;&amp;gt;&lt;/span&gt;&lt;span style=&quot;color:#d8d8d8;&quot;&gt;도서 목록&lt;/span&gt;&lt;span style=&quot;color:#79abff;&quot;&gt;&amp;lt;/&lt;/span&gt;&lt;span style=&quot;color:#bed6ff;&quot;&gt;title&lt;/span&gt;&lt;span style=&quot;color:#79abff;&quot;&gt;&amp;gt;&lt;/span&gt;&lt;/p&gt;&lt;p style=&quot;margin:0;&quot;&gt;&lt;span style=&quot;color:#79abff;&quot;&gt;&amp;lt;/&lt;/span&gt;&lt;span style=&quot;color:#bed6ff;&quot;&gt;head&lt;/span&gt;&lt;span style=&quot;color:#79abff;&quot;&gt;&amp;gt;&lt;/span&gt;&lt;/p&gt;&lt;p style=&quot;margin:0;&quot;&gt;&lt;span style=&quot;color:#79abff;&quot;&gt;&amp;lt;&lt;/span&gt;&lt;span style=&quot;color:#bed6ff;&quot;&gt;body&lt;/span&gt;&lt;span style=&quot;color:#79abff;&quot;&gt;&amp;gt;&lt;/span&gt;&lt;/p&gt;&lt;p style=&quot;margin:0;&quot;&gt;&lt;span style=&quot;color:#79abff;&quot;&gt;&amp;lt;&lt;/span&gt;&lt;span style=&quot;color:#bed6ff;&quot;&gt;div&lt;/span&gt; &lt;span style=&quot;color:#bed6ff;&quot;&gt;class&lt;/span&gt;&lt;span style=&quot;color:#d8d8d8;&quot;&gt;=&lt;/span&gt;&lt;span style=&quot;color:#a5c25c;&quot;&gt;&quot;container py-4&quot;&lt;/span&gt;&lt;span style=&quot;color:#79abff;&quot;&gt;&amp;gt;&lt;/span&gt;&lt;/p&gt;&lt;p style=&quot;margin:0;&quot;&gt;&lt;span style=&quot;color:#d8d8d8;&quot;&gt;   &lt;/span&gt;&lt;span style=&quot;color:#d8d8d8;&quot;&gt;&amp;lt;%@&lt;/span&gt; &lt;span style=&quot;color:#03a8d8;font-weight:bold;&quot;&gt;include&lt;/span&gt; &lt;span style=&quot;color:#cc7832;&quot;&gt;file&lt;/span&gt;&lt;span style=&quot;color:#d8d8d8;&quot;&gt;=&lt;/span&gt;&lt;span style=&quot;color:#a5c25c;&quot;&gt;&quot;menu.jsp&quot;&lt;/span&gt;&lt;span style=&quot;color:#d8d8d8;&quot;&gt;%&amp;gt;&lt;/span&gt;&lt;span style=&quot;color:#d8d8d8;&quot;&gt;&lt;span style=&quot;white-space: pre;&quot;&gt;&amp;nbsp;&amp;nbsp;&amp;nbsp;&amp;nbsp;&lt;/span&gt;&lt;/span&gt;&lt;/p&gt;&lt;p style=&quot;margin:0;&quot;&gt;&lt;br&gt;&lt;/p&gt;&lt;p style=&quot;margin:0;&quot;&gt;&lt;span style=&quot;color:#d8d8d8;&quot;&gt;   &lt;/span&gt;&lt;span style=&quot;color:#79abff;&quot;&gt;&amp;lt;&lt;/span&gt;&lt;span style=&quot;color:#bed6ff;&quot;&gt;div&lt;/span&gt; &lt;span style=&quot;color:#bed6ff;&quot;&gt;class&lt;/span&gt;&lt;span style=&quot;color:#d8d8d8;&quot;&gt;=&lt;/span&gt;&lt;span style=&quot;color:#a5c25c;&quot;&gt;&quot;p-5 mb-4 bg-body-tertiary rounded-3&quot;&lt;/span&gt;&lt;span style=&quot;color:#79abff;&quot;&gt;&amp;gt;&lt;/span&gt;&lt;/p&gt;&lt;p style=&quot;margin:0;&quot;&gt;&lt;span style=&quot;color:#d8d8d8;&quot;&gt;      &lt;/span&gt;&lt;span style=&quot;color:#79abff;&quot;&gt;&amp;lt;&lt;/span&gt;&lt;span style=&quot;color:#bed6ff;&quot;&gt;div&lt;/span&gt; &lt;span style=&quot;color:#bed6ff;&quot;&gt;class&lt;/span&gt;&lt;span style=&quot;color:#d8d8d8;&quot;&gt;=&lt;/span&gt;&lt;span style=&quot;color:#a5c25c;&quot;&gt;&quot;container-fluid py-5&quot;&lt;/span&gt;&lt;span style=&quot;color:#79abff;&quot;&gt;&amp;gt;&lt;/span&gt;&lt;/p&gt;&lt;p style=&quot;margin:0;&quot;&gt;&lt;span style=&quot;color:#d8d8d8;&quot;&gt;        &lt;/span&gt;&lt;span style=&quot;color:#79abff;&quot;&gt;&amp;lt;&lt;/span&gt;&lt;span style=&quot;color:#bed6ff;&quot;&gt;h1&lt;/span&gt; &lt;span style=&quot;color:#bed6ff;&quot;&gt;class&lt;/span&gt;&lt;span style=&quot;color:#d8d8d8;&quot;&gt;=&lt;/span&gt;&lt;span style=&quot;color:#a5c25c;&quot;&gt;&quot;display-5 fw-bold&quot;&lt;/span&gt;&lt;span style=&quot;color:#79abff;&quot;&gt;&amp;gt;&lt;/span&gt;&lt;span style=&quot;color:#d8d8d8;&quot;&gt;도서목록&lt;/span&gt;&lt;span style=&quot;color:#79abff;&quot;&gt;&amp;lt;/&lt;/span&gt;&lt;span style=&quot;color:#bed6ff;&quot;&gt;h1&lt;/span&gt;&lt;span style=&quot;color:#79abff;&quot;&gt;&amp;gt;&lt;/span&gt;&lt;/p&gt;&lt;p style=&quot;margin:0;&quot;&gt;&lt;span style=&quot;color:#d8d8d8;&quot;&gt;        &lt;/span&gt;&lt;span style=&quot;color:#79abff;&quot;&gt;&amp;lt;&lt;/span&gt;&lt;span style=&quot;color:#bed6ff;&quot;&gt;p&lt;/span&gt; &lt;span style=&quot;color:#bed6ff;&quot;&gt;class&lt;/span&gt;&lt;span style=&quot;color:#d8d8d8;&quot;&gt;=&lt;/span&gt;&lt;span style=&quot;color:#a5c25c;&quot;&gt;&quot;col-md-8 fs-4&quot;&lt;/span&gt;&lt;span style=&quot;color:#79abff;&quot;&gt;&amp;gt;&lt;/span&gt;&lt;span style=&quot;color:#d8d8d8;&quot;&gt;BookList&lt;/span&gt;&lt;span style=&quot;color:#79abff;&quot;&gt;&amp;lt;/&lt;/span&gt;&lt;span style=&quot;color:#bed6ff;&quot;&gt;p&lt;/span&gt;&lt;span style=&quot;color:#79abff;&quot;&gt;&amp;gt;&lt;/span&gt;&lt;span style=&quot;color:#d8d8d8;&quot;&gt;      &lt;/span&gt;&lt;/p&gt;&lt;p style=&quot;margin:0;&quot;&gt;&lt;span style=&quot;color:#d8d8d8;&quot;&gt;      &lt;/span&gt;&lt;span style=&quot;color:#79abff;&quot;&gt;&amp;lt;/&lt;/span&gt;&lt;span style=&quot;color:#bed6ff;&quot;&gt;div&lt;/span&gt;&lt;span style=&quot;color:#79abff;&quot;&gt;&amp;gt;&lt;/span&gt;&lt;/p&gt;&lt;p style=&quot;margin:0;&quot;&gt;&lt;span style=&quot;color:#d8d8d8;&quot;&gt;    &lt;/span&gt;&lt;span style=&quot;color:#79abff;&quot;&gt;&amp;lt;/&lt;/span&gt;&lt;span style=&quot;color:#bed6ff;&quot;&gt;div&lt;/span&gt;&lt;span style=&quot;color:#79abff;&quot;&gt;&amp;gt;&lt;/span&gt;&lt;/p&gt;&lt;p style=&quot;margin:0;&quot;&gt;&lt;span style=&quot;color:#d8d8d8;&quot;&gt;&lt;span style=&quot;white-space: pre;&quot;&gt;&amp;nbsp;&amp;nbsp;&amp;nbsp;&amp;nbsp;&lt;/span&gt;&lt;/span&gt;&lt;span style=&quot;color:#d8d8d8;&quot;&gt;&amp;lt;%&lt;/span&gt;&lt;/p&gt;&lt;p style=&quot;margin:0;&quot;&gt;&lt;span style=&quot;color:#d8d8d8;&quot;&gt;&lt;span style=&quot;white-space: pre;&quot;&gt;&amp;nbsp;&amp;nbsp;&amp;nbsp;&amp;nbsp;&lt;/span&gt;&lt;span style=&quot;white-space: pre;&quot;&gt;&amp;nbsp;&amp;nbsp;&amp;nbsp;&amp;nbsp;&lt;/span&gt;&lt;/span&gt;&lt;span style=&quot;color:#d8d8d8;&quot;&gt;ArrayList&lt;/span&gt;&lt;span style=&quot;color:#d8d8d8;&quot;&gt;&amp;lt;&lt;/span&gt;&lt;span style=&quot;color:#d8d8d8;&quot;&gt;Book&lt;/span&gt;&lt;span style=&quot;color:#d8d8d8;&quot;&gt;&amp;gt; &lt;/span&gt;&lt;span style=&quot;color:#d8d8d8;&quot;&gt;listOfBooks&lt;/span&gt;&lt;span style=&quot;color:#d8d8d8;&quot;&gt; = &lt;/span&gt;&lt;span style=&quot;color:#d8d8d8;&quot;&gt;bookDAO&lt;/span&gt;&lt;span style=&quot;color:#d8d8d8;&quot;&gt;.&lt;/span&gt;&lt;span style=&quot;color:#d8d8d8;&quot;&gt;getAllBooks&lt;/span&gt;&lt;span style=&quot;color:#d8d8d8;&quot;&gt;();&lt;/span&gt;&lt;/p&gt;&lt;p style=&quot;margin:0;&quot;&gt;&lt;span style=&quot;color:#d8d8d8;&quot;&gt;&lt;span style=&quot;white-space: pre;&quot;&gt;&amp;nbsp;&amp;nbsp;&amp;nbsp;&amp;nbsp;&lt;/span&gt;&lt;/span&gt;&lt;span style=&quot;color:#d8d8d8;&quot;&gt;%&amp;gt;&lt;/span&gt;&lt;/p&gt;&lt;p style=&quot;margin:0;&quot;&gt;&lt;span style=&quot;color:#d8d8d8;&quot;&gt;      &lt;/span&gt;&lt;/p&gt;&lt;p style=&quot;margin:0;&quot;&gt;&lt;span style=&quot;color:#d8d8d8;&quot;&gt;&lt;span style=&quot;white-space: pre;&quot;&gt;&amp;nbsp;&amp;nbsp;&amp;nbsp;&amp;nbsp;&lt;/span&gt; &lt;/span&gt;&lt;span style=&quot;color:#79abff;&quot;&gt;&amp;lt;&lt;/span&gt;&lt;span style=&quot;color:#bed6ff;&quot;&gt;div&lt;/span&gt; &lt;span style=&quot;color:#bed6ff;&quot;&gt;class&lt;/span&gt;&lt;span style=&quot;color:#d8d8d8;&quot;&gt;=&lt;/span&gt;&lt;span style=&quot;color:#a5c25c;&quot;&gt;&quot;row align-items-md-stretch   text-center&quot;&lt;/span&gt;&lt;span style=&quot;color:#79abff;&quot;&gt;&amp;gt;&lt;/span&gt;&lt;span style=&quot;color:#d8d8d8;&quot;&gt;&lt;span style=&quot;white-space: pre;&quot;&gt;&amp;nbsp;&amp;nbsp;&amp;nbsp;&amp;nbsp;&lt;/span&gt; &lt;span style=&quot;white-space: pre;&quot;&gt;&amp;nbsp;&amp;nbsp;&amp;nbsp;&amp;nbsp;&lt;/span&gt;&lt;/span&gt;&lt;/p&gt;&lt;p style=&quot;margin:0;&quot;&gt;&lt;span style=&quot;color:#d8d8d8;&quot;&gt;&lt;span style=&quot;white-space: pre;&quot;&gt;&amp;nbsp;&amp;nbsp;&amp;nbsp;&amp;nbsp;&lt;/span&gt; &lt;/span&gt;&lt;span style=&quot;color:#d8d8d8;&quot;&gt;&amp;lt;%&lt;/span&gt;&lt;/p&gt;&lt;p style=&quot;margin:0;&quot;&gt;&lt;span style=&quot;color:#d8d8d8;&quot;&gt;&lt;span style=&quot;white-space: pre;&quot;&gt;&amp;nbsp;&amp;nbsp;&amp;nbsp;&amp;nbsp;&lt;/span&gt;&lt;span style=&quot;white-space: pre;&quot;&gt;&amp;nbsp;&amp;nbsp;&amp;nbsp;&amp;nbsp;&lt;/span&gt;&lt;/span&gt;&lt;span style=&quot;color:#cc7832;&quot;&gt;for&lt;/span&gt;&lt;span style=&quot;color:#d8d8d8;&quot;&gt; (&lt;/span&gt;&lt;span style=&quot;color:#cc7832;&quot;&gt;int&lt;/span&gt;&lt;span style=&quot;color:#d8d8d8;&quot;&gt; &lt;/span&gt;&lt;span style=&quot;color:#d8d8d8;&quot;&gt;i&lt;/span&gt;&lt;span style=&quot;color:#d8d8d8;&quot;&gt; = 0; &lt;/span&gt;&lt;span style=&quot;color:#d8d8d8;&quot;&gt;i&lt;/span&gt;&lt;span style=&quot;color:#d8d8d8;&quot;&gt; &amp;lt; &lt;/span&gt;&lt;span style=&quot;color:#d8d8d8;&quot;&gt;listOfBooks&lt;/span&gt;&lt;span style=&quot;color:#d8d8d8;&quot;&gt;.&lt;/span&gt;&lt;span style=&quot;color:#d8d8d8;&quot;&gt;size&lt;/span&gt;&lt;span style=&quot;color:#d8d8d8;&quot;&gt;(); &lt;/span&gt;&lt;span style=&quot;color:#d8d8d8;&quot;&gt;i&lt;/span&gt;&lt;span style=&quot;color:#d8d8d8;&quot;&gt;++) {&lt;/span&gt;&lt;/p&gt;&lt;p style=&quot;margin:0;&quot;&gt;&lt;span style=&quot;color:#d8d8d8;&quot;&gt;&lt;span style=&quot;white-space: pre;&quot;&gt;&amp;nbsp;&amp;nbsp;&amp;nbsp;&amp;nbsp;&lt;/span&gt;&lt;span style=&quot;white-space: pre;&quot;&gt;&amp;nbsp;&amp;nbsp;&amp;nbsp;&amp;nbsp;&lt;/span&gt;&lt;span style=&quot;white-space: pre;&quot;&gt;&amp;nbsp;&amp;nbsp;&amp;nbsp;&amp;nbsp;&lt;/span&gt;&lt;/span&gt;&lt;span style=&quot;color:#d8d8d8;&quot;&gt;Book&lt;/span&gt;&lt;span style=&quot;color:#d8d8d8;&quot;&gt; &lt;/span&gt;&lt;span style=&quot;color:#d8d8d8;&quot;&gt;book&lt;/span&gt;&lt;span style=&quot;color:#d8d8d8;&quot;&gt; = &lt;/span&gt;&lt;span style=&quot;color:#d8d8d8;&quot;&gt;listOfBooks&lt;/span&gt;&lt;span style=&quot;color:#d8d8d8;&quot;&gt;.&lt;/span&gt;&lt;span style=&quot;color:#d8d8d8;&quot;&gt;get&lt;/span&gt;&lt;span style=&quot;color:#d8d8d8;&quot;&gt;(&lt;/span&gt;&lt;span style=&quot;color:#d8d8d8;&quot;&gt;i&lt;/span&gt;&lt;span style=&quot;color:#d8d8d8;&quot;&gt;);&lt;/span&gt;&lt;/p&gt;&lt;p style=&quot;margin:0;&quot;&gt;&lt;span style=&quot;color:#d8d8d8;&quot;&gt;&lt;span style=&quot;white-space: pre;&quot;&gt;&amp;nbsp;&amp;nbsp;&amp;nbsp;&amp;nbsp;&lt;/span&gt;  &lt;/span&gt;&lt;span style=&quot;color:#d8d8d8;&quot;&gt;%&amp;gt;&lt;/span&gt;&lt;/p&gt;&lt;p style=&quot;margin:0;&quot;&gt;&lt;span style=&quot;color:#d8d8d8;&quot;&gt;     &lt;span style=&quot;white-space: pre;&quot;&gt;&amp;nbsp;&amp;nbsp;&amp;nbsp;&amp;nbsp;&lt;/span&gt;&lt;/span&gt;&lt;span style=&quot;color:#79abff;&quot;&gt;&amp;lt;&lt;/span&gt;&lt;span style=&quot;color:#bed6ff;&quot;&gt;div&lt;/span&gt; &lt;span style=&quot;color:#bed6ff;&quot;&gt;class&lt;/span&gt;&lt;span style=&quot;color:#d8d8d8;&quot;&gt;=&lt;/span&gt;&lt;span style=&quot;color:#a5c25c;&quot;&gt;&quot;col-md-4&quot;&lt;/span&gt;&lt;span style=&quot;color:#79abff;&quot;&gt;&amp;gt;&lt;/span&gt;&lt;/p&gt;&lt;p style=&quot;margin:0;&quot;&gt;&lt;span style=&quot;color:#d8d8d8;&quot;&gt;       &lt;span style=&quot;white-space: pre;&quot;&gt;&amp;nbsp;&amp;nbsp;&amp;nbsp;&amp;nbsp;&lt;/span&gt;&lt;span style=&quot;white-space: pre;&quot;&gt;&amp;nbsp;&amp;nbsp;&amp;nbsp;&amp;nbsp;&lt;/span&gt;&lt;/span&gt;&lt;span style=&quot;color:#79abff;&quot;&gt;&amp;lt;&lt;/span&gt;&lt;span style=&quot;color:#bed6ff;&quot;&gt;div&lt;/span&gt; &lt;span style=&quot;color:#bed6ff;&quot;&gt;class&lt;/span&gt;&lt;span style=&quot;color:#d8d8d8;&quot;&gt;=&lt;/span&gt;&lt;span style=&quot;color:#a5c25c;&quot;&gt;&quot;h-100 p-2&quot;&lt;/span&gt;&lt;span style=&quot;color:#79abff;&quot;&gt;&amp;gt;&lt;/span&gt;&lt;span style=&quot;color:#d8d8d8;&quot;&gt;&lt;span style=&quot;white-space: pre;&quot;&gt;&amp;nbsp;&amp;nbsp;&amp;nbsp;&amp;nbsp;&lt;/span&gt;&lt;/span&gt;&lt;/p&gt;&lt;p style=&quot;margin:0;&quot;&gt;&lt;span style=&quot;color:#d8d8d8;&quot;&gt;&lt;span style=&quot;white-space: pre;&quot;&gt;&amp;nbsp;&amp;nbsp;&amp;nbsp;&amp;nbsp;&lt;/span&gt;&lt;span style=&quot;white-space: pre;&quot;&gt;&amp;nbsp;&amp;nbsp;&amp;nbsp;&amp;nbsp;&lt;/span&gt;&lt;/span&gt;&lt;/p&gt;&lt;p style=&quot;margin:0;&quot;&gt;&lt;span style=&quot;color:#d8d8d8;&quot;&gt;&lt;span style=&quot;white-space: pre;&quot;&gt;&amp;nbsp;&amp;nbsp;&amp;nbsp;&amp;nbsp;&lt;/span&gt;&lt;span style=&quot;white-space: pre;&quot;&gt;&amp;nbsp;&amp;nbsp;&amp;nbsp;&amp;nbsp;&lt;/span&gt;&lt;span style=&quot;white-space: pre;&quot;&gt;&amp;nbsp;&amp;nbsp;&amp;nbsp;&amp;nbsp;&lt;/span&gt;&lt;span style=&quot;white-space: pre;&quot;&gt;&amp;nbsp;&amp;nbsp;&amp;nbsp;&amp;nbsp;&lt;/span&gt;&lt;/span&gt;&lt;span style=&quot;color:#79abff;&quot;&gt;&amp;lt;&lt;/span&gt;&lt;span style=&quot;color:#bed6ff;&quot;&gt;h5&lt;/span&gt;&lt;span style=&quot;color:#79abff;&quot;&gt;&amp;gt;&amp;lt;&lt;/span&gt;&lt;span style=&quot;color:#bed6ff;&quot;&gt;b&lt;/span&gt;&lt;span style=&quot;color:#79abff;&quot;&gt;&amp;gt;&lt;/span&gt;&lt;span style=&quot;color:#d8d8d8;&quot;&gt;&amp;lt;%=book.getName()%&amp;gt;&lt;/span&gt;&lt;span style=&quot;color:#79abff;&quot;&gt;&amp;lt;/&lt;/span&gt;&lt;span style=&quot;color:#bed6ff;&quot;&gt;b&lt;/span&gt;&lt;span style=&quot;color:#79abff;&quot;&gt;&amp;gt;&amp;lt;/&lt;/span&gt;&lt;span style=&quot;color:#bed6ff;&quot;&gt;h5&lt;/span&gt;&lt;span style=&quot;color:#79abff;&quot;&gt;&amp;gt;&lt;/span&gt;&lt;/p&gt;&lt;p style=&quot;margin:0;&quot;&gt;&lt;span style=&quot;color:#d8d8d8;&quot;&gt;&lt;span style=&quot;white-space: pre;&quot;&gt;&amp;nbsp;&amp;nbsp;&amp;nbsp;&amp;nbsp;&lt;/span&gt;&lt;span style=&quot;white-space: pre;&quot;&gt;&amp;nbsp;&amp;nbsp;&amp;nbsp;&amp;nbsp;&lt;/span&gt;&lt;span style=&quot;white-space: pre;&quot;&gt;&amp;nbsp;&amp;nbsp;&amp;nbsp;&amp;nbsp;&lt;/span&gt;&lt;span style=&quot;white-space: pre;&quot;&gt;&amp;nbsp;&amp;nbsp;&amp;nbsp;&amp;nbsp;&lt;/span&gt;&lt;/span&gt;&lt;span style=&quot;color:#79abff;&quot;&gt;&amp;lt;&lt;/span&gt;&lt;span style=&quot;color:#bed6ff;&quot;&gt;p&lt;/span&gt;&lt;span style=&quot;color:#79abff;&quot;&gt;&amp;gt;&lt;/span&gt;&lt;span style=&quot;color:#d8d8d8;&quot;&gt;&amp;lt;%=book.getAuthor()%&amp;gt;&lt;/span&gt;&lt;/p&gt;&lt;p style=&quot;margin:0;&quot;&gt;&lt;span style=&quot;color:#d8d8d8;&quot;&gt;&lt;span style=&quot;white-space: pre;&quot;&gt;&amp;nbsp;&amp;nbsp;&amp;nbsp;&amp;nbsp;&lt;/span&gt;&lt;span style=&quot;white-space: pre;&quot;&gt;&amp;nbsp;&amp;nbsp;&amp;nbsp;&amp;nbsp;&lt;/span&gt;&lt;span style=&quot;white-space: pre;&quot;&gt;&amp;nbsp;&amp;nbsp;&amp;nbsp;&amp;nbsp;&lt;/span&gt;&lt;span style=&quot;white-space: pre;&quot;&gt;&amp;nbsp;&amp;nbsp;&amp;nbsp;&amp;nbsp;&lt;/span&gt;&lt;/span&gt;&lt;span style=&quot;color:#79abff;&quot;&gt;&amp;lt;&lt;/span&gt;&lt;span style=&quot;color:#bed6ff;&quot;&gt;br&lt;/span&gt;&lt;span style=&quot;color:#79abff;&quot;&gt;&amp;gt;&lt;/span&gt;&lt;span style=&quot;color:#d8d8d8;&quot;&gt; &amp;lt;%=book.getPublisher()%&amp;gt; | &amp;lt;%=book.getReleaseDate()%&amp;gt;&lt;/span&gt;&lt;/p&gt;&lt;p style=&quot;margin:0;&quot;&gt;&lt;span style=&quot;color:#d8d8d8;&quot;&gt;&lt;span style=&quot;white-space: pre;&quot;&gt;&amp;nbsp;&amp;nbsp;&amp;nbsp;&amp;nbsp;&lt;/span&gt;&lt;span style=&quot;white-space: pre;&quot;&gt;&amp;nbsp;&amp;nbsp;&amp;nbsp;&amp;nbsp;&lt;/span&gt;&lt;span style=&quot;white-space: pre;&quot;&gt;&amp;nbsp;&amp;nbsp;&amp;nbsp;&amp;nbsp;&lt;/span&gt;&lt;span style=&quot;white-space: pre;&quot;&gt;&amp;nbsp;&amp;nbsp;&amp;nbsp;&amp;nbsp;&lt;/span&gt;&lt;/span&gt;&lt;span style=&quot;color:#79abff;&quot;&gt;&amp;lt;&lt;/span&gt;&lt;span style=&quot;color:#bed6ff;&quot;&gt;p&lt;/span&gt;&lt;span style=&quot;color:#79abff;&quot;&gt;&amp;gt;&lt;/span&gt;&lt;span style=&quot;color:#d8d8d8;&quot;&gt; &amp;lt;%=book.getDescription().substring(0,60)%&amp;gt;...&lt;/span&gt;&lt;/p&gt;&lt;p style=&quot;margin:0;&quot;&gt;&lt;span style=&quot;color:#d8d8d8;&quot;&gt;&lt;span style=&quot;white-space: pre;&quot;&gt;&amp;nbsp;&amp;nbsp;&amp;nbsp;&amp;nbsp;&lt;/span&gt;&lt;span style=&quot;white-space: pre;&quot;&gt;&amp;nbsp;&amp;nbsp;&amp;nbsp;&amp;nbsp;&lt;/span&gt;&lt;span style=&quot;white-space: pre;&quot;&gt;&amp;nbsp;&amp;nbsp;&amp;nbsp;&amp;nbsp;&lt;/span&gt;&lt;span style=&quot;white-space: pre;&quot;&gt;&amp;nbsp;&amp;nbsp;&amp;nbsp;&amp;nbsp;&lt;/span&gt;&lt;/span&gt;&lt;span style=&quot;color:#79abff;&quot;&gt;&amp;lt;&lt;/span&gt;&lt;span style=&quot;color:#bed6ff;&quot;&gt;p&lt;/span&gt;&lt;span style=&quot;color:#79abff;&quot;&gt;&amp;gt;&lt;/span&gt;&lt;span style=&quot;color:#d8d8d8;&quot;&gt;&amp;lt;%=book.getUnitPrice()%&amp;gt;원&lt;/span&gt;&lt;/p&gt;&lt;p style=&quot;margin:0;&quot;&gt;&lt;span style=&quot;color:#d8d8d8;&quot;&gt;&lt;span style=&quot;white-space: pre;&quot;&gt;&amp;nbsp;&amp;nbsp;&amp;nbsp;&amp;nbsp;&lt;/span&gt;&lt;span style=&quot;white-space: pre;&quot;&gt;&amp;nbsp;&amp;nbsp;&amp;nbsp;&amp;nbsp;&lt;/span&gt;&lt;span style=&quot;white-space: pre;&quot;&gt;&amp;nbsp;&amp;nbsp;&amp;nbsp;&amp;nbsp;&lt;/span&gt;&lt;/span&gt;&lt;span style=&quot;color:#79abff;&quot;&gt;&amp;lt;/&lt;/span&gt;&lt;span style=&quot;color:#bed6ff;&quot;&gt;div&lt;/span&gt;&lt;span style=&quot;color:#79abff;&quot;&gt;&amp;gt;&lt;/span&gt;&lt;span style=&quot;color:#d8d8d8;&quot;&gt;&lt;span style=&quot;white-space: pre;&quot;&gt;&amp;nbsp;&amp;nbsp;&amp;nbsp;&amp;nbsp;&lt;/span&gt;&lt;/span&gt;&lt;/p&gt;&lt;p style=&quot;margin:0;&quot;&gt;&lt;span style=&quot;color:#d8d8d8;&quot;&gt;&lt;span style=&quot;white-space: pre;&quot;&gt;&amp;nbsp;&amp;nbsp;&amp;nbsp;&amp;nbsp;&lt;/span&gt;&lt;span style=&quot;white-space: pre;&quot;&gt;&amp;nbsp;&amp;nbsp;&amp;nbsp;&amp;nbsp;&lt;/span&gt;&lt;/span&gt;&lt;span style=&quot;color:#79abff;&quot;&gt;&amp;lt;/&lt;/span&gt;&lt;span style=&quot;color:#bed6ff;&quot;&gt;div&lt;/span&gt;&lt;span style=&quot;color:#79abff;&quot;&gt;&amp;gt;&lt;/span&gt;&lt;span style=&quot;color:#d8d8d8;&quot;&gt;&lt;span style=&quot;white-space: pre;&quot;&gt;&amp;nbsp;&amp;nbsp;&amp;nbsp;&amp;nbsp;&lt;/span&gt;&lt;span style=&quot;white-space: pre;&quot;&gt;&amp;nbsp;&amp;nbsp;&amp;nbsp;&amp;nbsp;&lt;/span&gt;&lt;span style=&quot;white-space: pre;&quot;&gt;&amp;nbsp;&amp;nbsp;&amp;nbsp;&amp;nbsp;&lt;/span&gt;&lt;/span&gt;&lt;/p&gt;&lt;p style=&quot;margin:0;&quot;&gt;&lt;span style=&quot;color:#d8d8d8;&quot;&gt;&lt;span style=&quot;white-space: pre;&quot;&gt;&amp;nbsp;&amp;nbsp;&amp;nbsp;&amp;nbsp;&lt;/span&gt;&lt;span style=&quot;white-space: pre;&quot;&gt;&amp;nbsp;&amp;nbsp;&amp;nbsp;&amp;nbsp;&lt;/span&gt;&lt;/span&gt;&lt;span style=&quot;color:#d8d8d8;&quot;&gt;&amp;lt;%&lt;/span&gt;&lt;/p&gt;&lt;p style=&quot;margin:0;&quot;&gt;&lt;span style=&quot;color:#d8d8d8;&quot;&gt;&lt;span style=&quot;white-space: pre;&quot;&gt;&amp;nbsp;&amp;nbsp;&amp;nbsp;&amp;nbsp;&lt;/span&gt;&lt;span style=&quot;white-space: pre;&quot;&gt;&amp;nbsp;&amp;nbsp;&amp;nbsp;&amp;nbsp;&lt;/span&gt;&lt;span style=&quot;white-space: pre;&quot;&gt;&amp;nbsp;&amp;nbsp;&amp;nbsp;&amp;nbsp;&lt;/span&gt;}&lt;/span&gt;&lt;/p&gt;&lt;p style=&quot;margin:0;&quot;&gt;&lt;span style=&quot;color:#d8d8d8;&quot;&gt;&lt;span style=&quot;white-space: pre;&quot;&gt;&amp;nbsp;&amp;nbsp;&amp;nbsp;&amp;nbsp;&lt;/span&gt;&lt;span style=&quot;white-space: pre;&quot;&gt;&amp;nbsp;&amp;nbsp;&amp;nbsp;&amp;nbsp;&lt;/span&gt;&lt;/span&gt;&lt;span style=&quot;color:#d8d8d8;&quot;&gt;%&amp;gt;&lt;/span&gt;&lt;/p&gt;&lt;p style=&quot;margin:0;&quot;&gt;&lt;span style=&quot;color:#d8d8d8;&quot;&gt;&lt;span style=&quot;white-space: pre;&quot;&gt;&amp;nbsp;&amp;nbsp;&amp;nbsp;&amp;nbsp;&lt;/span&gt;&lt;/span&gt;&lt;/p&gt;&lt;p style=&quot;margin:0;&quot;&gt;&lt;span style=&quot;color:#d8d8d8;&quot;&gt;&lt;span style=&quot;white-space: pre;&quot;&gt;&amp;nbsp;&amp;nbsp;&amp;nbsp;&amp;nbsp;&lt;/span&gt;&lt;span style=&quot;white-space: pre;&quot;&gt;&amp;nbsp;&amp;nbsp;&amp;nbsp;&amp;nbsp;&lt;/span&gt;&lt;/span&gt;&lt;span style=&quot;color:#79abff;&quot;&gt;&amp;lt;/&lt;/span&gt;&lt;span style=&quot;color:#bed6ff;&quot;&gt;div&lt;/span&gt;&lt;span style=&quot;color:#79abff;&quot;&gt;&amp;gt;&lt;/span&gt;&lt;span style=&quot;color:#d8d8d8;&quot;&gt;&lt;span style=&quot;white-space: pre;&quot;&gt;&amp;nbsp;&amp;nbsp;&amp;nbsp;&amp;nbsp;&lt;/span&gt;&lt;/span&gt;&lt;/p&gt;&lt;p style=&quot;margin:0;&quot;&gt;&lt;span style=&quot;color:#d8d8d8;&quot;&gt;&lt;span style=&quot;white-space: pre;&quot;&gt;&amp;nbsp;&amp;nbsp;&amp;nbsp;&amp;nbsp;&lt;/span&gt;&lt;span style=&quot;white-space: pre;&quot;&gt;&amp;nbsp;&amp;nbsp;&amp;nbsp;&amp;nbsp;&lt;/span&gt;&lt;/span&gt;&lt;span style=&quot;color:#d8d8d8;&quot;&gt;&amp;lt;%@&lt;/span&gt; &lt;span style=&quot;color:#03a8d8;font-weight:bold;&quot;&gt;include&lt;/span&gt; &lt;span style=&quot;color:#cc7832;&quot;&gt;file&lt;/span&gt;&lt;span style=&quot;color:#d8d8d8;&quot;&gt;=&lt;/span&gt;&lt;span style=&quot;color:#a5c25c;&quot;&gt;&quot;footer.jsp&quot;&lt;/span&gt;&lt;span style=&quot;color:#d8d8d8;&quot;&gt;%&amp;gt;&lt;/span&gt;&lt;span style=&quot;color:#d8d8d8;&quot;&gt;   &lt;/span&gt;&lt;/p&gt;&lt;p style=&quot;margin:0;&quot;&gt;&lt;span style=&quot;color:#d8d8d8;&quot;&gt;  &lt;/span&gt;&lt;span style=&quot;color:#79abff;&quot;&gt;&amp;lt;/&lt;/span&gt;&lt;span style=&quot;color:#bed6ff;&quot;&gt;div&lt;/span&gt;&lt;span style=&quot;color:#79abff;&quot;&gt;&amp;gt;&lt;/span&gt;&lt;/p&gt;&lt;p style=&quot;margin:0;&quot;&gt;&lt;span style=&quot;color:#79abff;&quot;&gt;&amp;lt;/&lt;/span&gt;&lt;span style=&quot;color:#bed6ff;&quot;&gt;body&lt;/span&gt;&lt;span style=&quot;color:#79abff;&quot;&gt;&amp;gt;&lt;/span&gt;&lt;/p&gt;&lt;p style=&quot;margin:0;&quot;&gt;&lt;span style=&quot;color:#79abff;&quot;&gt;&amp;lt;/&lt;/span&gt;&lt;span style=&quot;color:#bed6ff;&quot;&gt;html&lt;/span&gt;&lt;span style=&quot;color:#79abff;&quot;&gt;&amp;gt;&lt;/span&gt;&lt;/p&gt;&lt;p style=&quot;margin:0;&quot;&gt;&lt;/p&gt;&lt;/div&gt;&lt;/div&gt;" link="&lt;div style=&quot;background-color:#191d1f;padding:0px 0px 0px 2px;&quot;&gt;&lt;div style=&quot;color:#d8d8d8;background-color:#191d1f;font-family:&amp;quot;Consolas&amp;quot;;font-size:10pt;white-space:pre;&quot;&gt;&lt;p style=&quot;margin:0;&quot;&gt;&lt;span style=&quot;color:#d8d8d8;&quot;&gt;&amp;lt;%@&lt;/span&gt; &lt;span style=&quot;color:#03a8d8;font-weight:bold;&quot;&gt;page&lt;/span&gt; &lt;span style=&quot;color:#cc7832;&quot;&gt;contentType&lt;/span&gt;&lt;span style=&quot;color:#d8d8d8;&quot;&gt;=&lt;/span&gt;&lt;span style=&quot;color:#a5c25c;&quot;&gt;&quot;text/html; charset=utf-8&quot;&lt;/span&gt;&lt;span style=&quot;color:#d8d8d8;&quot;&gt;%&amp;gt;&lt;/span&gt;&lt;/p&gt;&lt;p style=&quot;margin:0;&quot;&gt;&lt;span style=&quot;color:#d8d8d8;&quot;&gt;&amp;lt;%@&lt;/span&gt; &lt;span style=&quot;color:#03a8d8;font-weight:bold;&quot;&gt;page&lt;/span&gt; &lt;span style=&quot;color:#cc7832;&quot;&gt;import&lt;/span&gt;&lt;span style=&quot;color:#d8d8d8;&quot;&gt;=&lt;/span&gt;&lt;span style=&quot;color:#a5c25c;&quot;&gt;&quot;java.util.ArrayList&quot;&lt;/span&gt;&lt;span style=&quot;color:#d8d8d8;&quot;&gt;%&amp;gt;&lt;/span&gt;&lt;/p&gt;&lt;p style=&quot;margin:0;&quot;&gt;&lt;span style=&quot;color:#d8d8d8;&quot;&gt;&amp;lt;%@&lt;/span&gt; &lt;span style=&quot;color:#03a8d8;font-weight:bold;&quot;&gt;page&lt;/span&gt; &lt;span style=&quot;color:#cc7832;&quot;&gt;import&lt;/span&gt;&lt;span style=&quot;color:#d8d8d8;&quot;&gt;=&lt;/span&gt;&lt;span style=&quot;color:#a5c25c;&quot;&gt;&quot;dto.Book&quot;&lt;/span&gt;&lt;span style=&quot;color:#d8d8d8;&quot;&gt;%&amp;gt;&lt;/span&gt;&lt;/p&gt;&lt;p style=&quot;margin:0;&quot;&gt;&lt;span style=&quot;color:#a9b7c6;&quot;&gt;&amp;lt;&lt;/span&gt;&lt;span style=&quot;color:#03a8d8;font-weight:bold;&quot;&gt;jsp:useBean&lt;/span&gt; &lt;span style=&quot;color:#cc7832;&quot;&gt;id&lt;/span&gt;&lt;span style=&quot;color:#d8d8d8;&quot;&gt;=&lt;/span&gt;&lt;span style=&quot;color:#a5c25c;&quot;&gt;&quot;bookDAO&quot;&lt;/span&gt; &lt;span style=&quot;color:#cc7832;&quot;&gt;class&lt;/span&gt;&lt;span style=&quot;color:#d8d8d8;&quot;&gt;=&lt;/span&gt;&lt;span style=&quot;color:#a5c25c;&quot;&gt;&quot;dao.BookRepository&quot;&lt;/span&gt; &lt;span style=&quot;color:#cc7832;&quot;&gt;scope&lt;/span&gt;&lt;span style=&quot;color:#d8d8d8;&quot;&gt;=&lt;/span&gt;&lt;span style=&quot;color:#a5c25c;&quot;&gt;&quot;session&quot;&lt;/span&gt; &lt;span style=&quot;color:#a9b7c6;&quot;&gt;/&amp;gt;&lt;/span&gt;&lt;/p&gt;&lt;p style=&quot;margin:0;&quot;&gt;&lt;br&gt;&lt;/p&gt;&lt;p style=&quot;margin:0;&quot;&gt;&lt;br&gt;&lt;/p&gt;&lt;p style=&quot;margin:0;&quot;&gt;&lt;span style=&quot;color:#79abff;&quot;&gt;&amp;lt;&lt;/span&gt;&lt;span style=&quot;color:#bed6ff;&quot;&gt;html&lt;/span&gt;&lt;span style=&quot;color:#79abff;&quot;&gt;&amp;gt;&lt;/span&gt;&lt;/p&gt;&lt;p style=&quot;margin:0;&quot;&gt;&lt;span style=&quot;color:#79abff;&quot;&gt;&amp;lt;&lt;/span&gt;&lt;span style=&quot;color:#bed6ff;&quot;&gt;head&lt;/span&gt;&lt;span style=&quot;color:#79abff;&quot;&gt;&amp;gt;&lt;/span&gt;&lt;/p&gt;&lt;p style=&quot;margin:0;&quot;&gt;&lt;span style=&quot;color:#d8d8d8;&quot;&gt; &lt;/span&gt;&lt;span style=&quot;color:#79abff;&quot;&gt;&amp;lt;&lt;/span&gt;&lt;span style=&quot;color:#bed6ff;&quot;&gt;link&lt;/span&gt; &lt;span style=&quot;color:#bed6ff;&quot;&gt;href&lt;/span&gt;&lt;span style=&quot;color:#d8d8d8;&quot;&gt;=&lt;/span&gt;&lt;span style=&quot;color:#a5c25c;&quot;&gt;&quot;https://cdn.jsdelivr.net/npm/bootstrap@5.3.0-alpha1/dist/css/bootstrap.min.css&quot;&lt;/span&gt; &lt;span style=&quot;color:#bed6ff;&quot;&gt;rel&lt;/span&gt;&lt;span style=&quot;color:#d8d8d8;&quot;&gt;=&lt;/span&gt;&lt;span style=&quot;color:#a5c25c;&quot;&gt;&quot;stylesheet&quot;&lt;/span&gt;&lt;span style=&quot;color:#79abff;&quot;&gt;&amp;gt;&lt;/span&gt;&lt;/p&gt;&lt;p style=&quot;margin:0;&quot;&gt;&lt;br&gt;&lt;/p&gt;&lt;p style=&quot;margin:0;&quot;&gt;&lt;span style=&quot;color:#79abff;&quot;&gt;&amp;lt;&lt;/span&gt;&lt;span style=&quot;color:#bed6ff;&quot;&gt;title&lt;/span&gt;&lt;span style=&quot;color:#79abff;&quot;&gt;&amp;gt;&lt;/span&gt;&lt;span style=&quot;color:#d8d8d8;&quot;&gt;도서 목록&lt;/span&gt;&lt;span style=&quot;color:#79abff;&quot;&gt;&amp;lt;/&lt;/span&gt;&lt;span style=&quot;color:#bed6ff;&quot;&gt;title&lt;/span&gt;&lt;span style=&quot;color:#79abff;&quot;&gt;&amp;gt;&lt;/span&gt;&lt;/p&gt;&lt;p style=&quot;margin:0;&quot;&gt;&lt;span style=&quot;color:#79abff;&quot;&gt;&amp;lt;/&lt;/span&gt;&lt;span style=&quot;color:#bed6ff;&quot;&gt;head&lt;/span&gt;&lt;span style=&quot;color:#79abff;&quot;&gt;&amp;gt;&lt;/span&gt;&lt;/p&gt;&lt;p style=&quot;margin:0;&quot;&gt;&lt;span style=&quot;color:#79abff;&quot;&gt;&amp;lt;&lt;/span&gt;&lt;span style=&quot;color:#bed6ff;&quot;&gt;body&lt;/span&gt;&lt;span style=&quot;color:#79abff;&quot;&gt;&amp;gt;&lt;/span&gt;&lt;/p&gt;&lt;p style=&quot;margin:0;&quot;&gt;&lt;span style=&quot;color:#79abff;&quot;&gt;&amp;lt;&lt;/span&gt;&lt;span style=&quot;color:#bed6ff;&quot;&gt;div&lt;/span&gt; &lt;span style=&quot;color:#bed6ff;&quot;&gt;class&lt;/span&gt;&lt;span style=&quot;color:#d8d8d8;&quot;&gt;=&lt;/span&gt;&lt;span style=&quot;color:#a5c25c;&quot;&gt;&quot;container py-4&quot;&lt;/span&gt;&lt;span style=&quot;color:#79abff;&quot;&gt;&amp;gt;&lt;/span&gt;&lt;/p&gt;&lt;p style=&quot;margin:0;&quot;&gt;&lt;span style=&quot;color:#d8d8d8;&quot;&gt;   &lt;/span&gt;&lt;span style=&quot;color:#d8d8d8;&quot;&gt;&amp;lt;%@&lt;/span&gt; &lt;span style=&quot;color:#03a8d8;font-weight:bold;&quot;&gt;include&lt;/span&gt; &lt;span style=&quot;color:#cc7832;&quot;&gt;file&lt;/span&gt;&lt;span style=&quot;color:#d8d8d8;&quot;&gt;=&lt;/span&gt;&lt;span style=&quot;color:#a5c25c;&quot;&gt;&quot;menu.jsp&quot;&lt;/span&gt;&lt;span style=&quot;color:#d8d8d8;&quot;&gt;%&amp;gt;&lt;/span&gt;&lt;span style=&quot;color:#d8d8d8;&quot;&gt;&lt;span style=&quot;white-space: pre;&quot;&gt;&amp;nbsp;&amp;nbsp;&amp;nbsp;&amp;nbsp;&lt;/span&gt;&lt;/span&gt;&lt;/p&gt;&lt;p style=&quot;margin:0;&quot;&gt;&lt;br&gt;&lt;/p&gt;&lt;p style=&quot;margin:0;&quot;&gt;&lt;span style=&quot;color:#d8d8d8;&quot;&gt;   &lt;/span&gt;&lt;span style=&quot;color:#79abff;&quot;&gt;&amp;lt;&lt;/span&gt;&lt;span style=&quot;color:#bed6ff;&quot;&gt;div&lt;/span&gt; &lt;span style=&quot;color:#bed6ff;&quot;&gt;class&lt;/span&gt;&lt;span style=&quot;color:#d8d8d8;&quot;&gt;=&lt;/span&gt;&lt;span style=&quot;color:#a5c25c;&quot;&gt;&quot;p-5 mb-4 bg-body-tertiary rounded-3&quot;&lt;/span&gt;&lt;span style=&quot;color:#79abff;&quot;&gt;&amp;gt;&lt;/span&gt;&lt;/p&gt;&lt;p style=&quot;margin:0;&quot;&gt;&lt;span style=&quot;color:#d8d8d8;&quot;&gt;      &lt;/span&gt;&lt;span style=&quot;color:#79abff;&quot;&gt;&amp;lt;&lt;/span&gt;&lt;span style=&quot;color:#bed6ff;&quot;&gt;div&lt;/span&gt; &lt;span style=&quot;color:#bed6ff;&quot;&gt;class&lt;/span&gt;&lt;span style=&quot;color:#d8d8d8;&quot;&gt;=&lt;/span&gt;&lt;span style=&quot;color:#a5c25c;&quot;&gt;&quot;container-fluid py-5&quot;&lt;/span&gt;&lt;span style=&quot;color:#79abff;&quot;&gt;&amp;gt;&lt;/span&gt;&lt;/p&gt;&lt;p style=&quot;margin:0;&quot;&gt;&lt;span style=&quot;color:#d8d8d8;&quot;&gt;        &lt;/span&gt;&lt;span style=&quot;color:#79abff;&quot;&gt;&amp;lt;&lt;/span&gt;&lt;span style=&quot;color:#bed6ff;&quot;&gt;h1&lt;/span&gt; &lt;span style=&quot;color:#bed6ff;&quot;&gt;class&lt;/span&gt;&lt;span style=&quot;color:#d8d8d8;&quot;&gt;=&lt;/span&gt;&lt;span style=&quot;color:#a5c25c;&quot;&gt;&quot;display-5 fw-bold&quot;&lt;/span&gt;&lt;span style=&quot;color:#79abff;&quot;&gt;&amp;gt;&lt;/span&gt;&lt;span style=&quot;color:#d8d8d8;&quot;&gt;도서목록&lt;/span&gt;&lt;span style=&quot;color:#79abff;&quot;&gt;&amp;lt;/&lt;/span&gt;&lt;span style=&quot;color:#bed6ff;&quot;&gt;h1&lt;/span&gt;&lt;span style=&quot;color:#79abff;&quot;&gt;&amp;gt;&lt;/span&gt;&lt;/p&gt;&lt;p style=&quot;margin:0;&quot;&gt;&lt;span style=&quot;color:#d8d8d8;&quot;&gt;        &lt;/span&gt;&lt;span style=&quot;color:#79abff;&quot;&gt;&amp;lt;&lt;/span&gt;&lt;span style=&quot;color:#bed6ff;&quot;&gt;p&lt;/span&gt; &lt;span style=&quot;color:#bed6ff;&quot;&gt;class&lt;/span&gt;&lt;span style=&quot;color:#d8d8d8;&quot;&gt;=&lt;/span&gt;&lt;span style=&quot;color:#a5c25c;&quot;&gt;&quot;col-md-8 fs-4&quot;&lt;/span&gt;&lt;span style=&quot;color:#79abff;&quot;&gt;&amp;gt;&lt;/span&gt;&lt;span style=&quot;color:#d8d8d8;&quot;&gt;BookList&lt;/span&gt;&lt;span style=&quot;color:#79abff;&quot;&gt;&amp;lt;/&lt;/span&gt;&lt;span style=&quot;color:#bed6ff;&quot;&gt;p&lt;/span&gt;&lt;span style=&quot;color:#79abff;&quot;&gt;&amp;gt;&lt;/span&gt;&lt;span style=&quot;color:#d8d8d8;&quot;&gt;      &lt;/span&gt;&lt;/p&gt;&lt;p style=&quot;margin:0;&quot;&gt;&lt;span style=&quot;color:#d8d8d8;&quot;&gt;      &lt;/span&gt;&lt;span style=&quot;color:#79abff;&quot;&gt;&amp;lt;/&lt;/span&gt;&lt;span style=&quot;color:#bed6ff;&quot;&gt;div&lt;/span&gt;&lt;span style=&quot;color:#79abff;&quot;&gt;&amp;gt;&lt;/span&gt;&lt;/p&gt;&lt;p style=&quot;margin:0;&quot;&gt;&lt;span style=&quot;color:#d8d8d8;&quot;&gt;    &lt;/span&gt;&lt;span style=&quot;color:#79abff;&quot;&gt;&amp;lt;/&lt;/span&gt;&lt;span style=&quot;color:#bed6ff;&quot;&gt;div&lt;/span&gt;&lt;span style=&quot;color:#79abff;&quot;&gt;&amp;gt;&lt;/span&gt;&lt;/p&gt;&lt;p style=&quot;margin:0;&quot;&gt;&lt;span style=&quot;color:#d8d8d8;&quot;&gt;&lt;span style=&quot;white-space: pre;&quot;&gt;&amp;nbsp;&amp;nbsp;&amp;nbsp;&amp;nbsp;&lt;/span&gt;&lt;/span&gt;&lt;span style=&quot;color:#d8d8d8;&quot;&gt;&amp;lt;%&lt;/span&gt;&lt;/p&gt;&lt;p style=&quot;margin:0;&quot;&gt;&lt;span style=&quot;color:#d8d8d8;&quot;&gt;&lt;span style=&quot;white-space: pre;&quot;&gt;&amp;nbsp;&amp;nbsp;&amp;nbsp;&amp;nbsp;&lt;/span&gt;&lt;span style=&quot;white-space: pre;&quot;&gt;&amp;nbsp;&amp;nbsp;&amp;nbsp;&amp;nbsp;&lt;/span&gt;&lt;/span&gt;&lt;span style=&quot;color:#d8d8d8;&quot;&gt;ArrayList&lt;/span&gt;&lt;span style=&quot;color:#d8d8d8;&quot;&gt;&amp;lt;&lt;/span&gt;&lt;span style=&quot;color:#d8d8d8;&quot;&gt;Book&lt;/span&gt;&lt;span style=&quot;color:#d8d8d8;&quot;&gt;&amp;gt; &lt;/span&gt;&lt;span style=&quot;color:#d8d8d8;&quot;&gt;listOfBooks&lt;/span&gt;&lt;span style=&quot;color:#d8d8d8;&quot;&gt; = &lt;/span&gt;&lt;span style=&quot;color:#d8d8d8;&quot;&gt;bookDAO&lt;/span&gt;&lt;span style=&quot;color:#d8d8d8;&quot;&gt;.&lt;/span&gt;&lt;span style=&quot;color:#d8d8d8;&quot;&gt;getAllBooks&lt;/span&gt;&lt;span style=&quot;color:#d8d8d8;&quot;&gt;();&lt;/span&gt;&lt;/p&gt;&lt;p style=&quot;margin:0;&quot;&gt;&lt;span style=&quot;color:#d8d8d8;&quot;&gt;&lt;span style=&quot;white-space: pre;&quot;&gt;&amp;nbsp;&amp;nbsp;&amp;nbsp;&amp;nbsp;&lt;/span&gt;&lt;/span&gt;&lt;span style=&quot;color:#d8d8d8;&quot;&gt;%&amp;gt;&lt;/span&gt;&lt;/p&gt;&lt;p style=&quot;margin:0;&quot;&gt;&lt;span style=&quot;color:#d8d8d8;&quot;&gt;      &lt;/span&gt;&lt;/p&gt;&lt;p style=&quot;margin:0;&quot;&gt;&lt;span style=&quot;color:#d8d8d8;&quot;&gt;&lt;span style=&quot;white-space: pre;&quot;&gt;&amp;nbsp;&amp;nbsp;&amp;nbsp;&amp;nbsp;&lt;/span&gt; &lt;/span&gt;&lt;span style=&quot;color:#79abff;&quot;&gt;&amp;lt;&lt;/span&gt;&lt;span style=&quot;color:#bed6ff;&quot;&gt;div&lt;/span&gt; &lt;span style=&quot;color:#bed6ff;&quot;&gt;class&lt;/span&gt;&lt;span style=&quot;color:#d8d8d8;&quot;&gt;=&lt;/span&gt;&lt;span style=&quot;color:#a5c25c;&quot;&gt;&quot;row align-items-md-stretch   text-center&quot;&lt;/span&gt;&lt;span style=&quot;color:#79abff;&quot;&gt;&amp;gt;&lt;/span&gt;&lt;span style=&quot;color:#d8d8d8;&quot;&gt;&lt;span style=&quot;white-space: pre;&quot;&gt;&amp;nbsp;&amp;nbsp;&amp;nbsp;&amp;nbsp;&lt;/span&gt; &lt;span style=&quot;white-space: pre;&quot;&gt;&amp;nbsp;&amp;nbsp;&amp;nbsp;&amp;nbsp;&lt;/span&gt;&lt;/span&gt;&lt;/p&gt;&lt;p style=&quot;margin:0;&quot;&gt;&lt;span style=&quot;color:#d8d8d8;&quot;&gt;&lt;span style=&quot;white-space: pre;&quot;&gt;&amp;nbsp;&amp;nbsp;&amp;nbsp;&amp;nbsp;&lt;/span&gt; &lt;/span&gt;&lt;span style=&quot;color:#d8d8d8;&quot;&gt;&amp;lt;%&lt;/span&gt;&lt;/p&gt;&lt;p style=&quot;margin:0;&quot;&gt;&lt;span style=&quot;color:#d8d8d8;&quot;&gt;&lt;span style=&quot;white-space: pre;&quot;&gt;&amp;nbsp;&amp;nbsp;&amp;nbsp;&amp;nbsp;&lt;/span&gt;&lt;span style=&quot;white-space: pre;&quot;&gt;&amp;nbsp;&amp;nbsp;&amp;nbsp;&amp;nbsp;&lt;/span&gt;&lt;/span&gt;&lt;span style=&quot;color:#cc7832;&quot;&gt;for&lt;/span&gt;&lt;span style=&quot;color:#d8d8d8;&quot;&gt; (&lt;/span&gt;&lt;span style=&quot;color:#cc7832;&quot;&gt;int&lt;/span&gt;&lt;span style=&quot;color:#d8d8d8;&quot;&gt; &lt;/span&gt;&lt;span style=&quot;color:#d8d8d8;&quot;&gt;i&lt;/span&gt;&lt;span style=&quot;color:#d8d8d8;&quot;&gt; = 0; &lt;/span&gt;&lt;span style=&quot;color:#d8d8d8;&quot;&gt;i&lt;/span&gt;&lt;span style=&quot;color:#d8d8d8;&quot;&gt; &amp;lt; &lt;/span&gt;&lt;span style=&quot;color:#d8d8d8;&quot;&gt;listOfBooks&lt;/span&gt;&lt;span style=&quot;color:#d8d8d8;&quot;&gt;.&lt;/span&gt;&lt;span style=&quot;color:#d8d8d8;&quot;&gt;size&lt;/span&gt;&lt;span style=&quot;color:#d8d8d8;&quot;&gt;(); &lt;/span&gt;&lt;span style=&quot;color:#d8d8d8;&quot;&gt;i&lt;/span&gt;&lt;span style=&quot;color:#d8d8d8;&quot;&gt;++) {&lt;/span&gt;&lt;/p&gt;&lt;p style=&quot;margin:0;&quot;&gt;&lt;span style=&quot;color:#d8d8d8;&quot;&gt;&lt;span style=&quot;white-space: pre;&quot;&gt;&amp;nbsp;&amp;nbsp;&amp;nbsp;&amp;nbsp;&lt;/span&gt;&lt;span style=&quot;white-space: pre;&quot;&gt;&amp;nbsp;&amp;nbsp;&amp;nbsp;&amp;nbsp;&lt;/span&gt;&lt;span style=&quot;white-space: pre;&quot;&gt;&amp;nbsp;&amp;nbsp;&amp;nbsp;&amp;nbsp;&lt;/span&gt;&lt;/span&gt;&lt;span style=&quot;color:#d8d8d8;&quot;&gt;Book&lt;/span&gt;&lt;span style=&quot;color:#d8d8d8;&quot;&gt; &lt;/span&gt;&lt;span style=&quot;color:#d8d8d8;&quot;&gt;book&lt;/span&gt;&lt;span style=&quot;color:#d8d8d8;&quot;&gt; = &lt;/span&gt;&lt;span style=&quot;color:#d8d8d8;&quot;&gt;listOfBooks&lt;/span&gt;&lt;span style=&quot;color:#d8d8d8;&quot;&gt;.&lt;/span&gt;&lt;span style=&quot;color:#d8d8d8;&quot;&gt;get&lt;/span&gt;&lt;span style=&quot;color:#d8d8d8;&quot;&gt;(&lt;/span&gt;&lt;span style=&quot;color:#d8d8d8;&quot;&gt;i&lt;/span&gt;&lt;span style=&quot;color:#d8d8d8;&quot;&gt;);&lt;/span&gt;&lt;/p&gt;&lt;p style=&quot;margin:0;&quot;&gt;&lt;span style=&quot;color:#d8d8d8;&quot;&gt;&lt;span style=&quot;white-space: pre;&quot;&gt;&amp;nbsp;&amp;nbsp;&amp;nbsp;&amp;nbsp;&lt;/span&gt;  &lt;/span&gt;&lt;span style=&quot;color:#d8d8d8;&quot;&gt;%&amp;gt;&lt;/span&gt;&lt;/p&gt;&lt;p style=&quot;margin:0;&quot;&gt;&lt;span style=&quot;color:#d8d8d8;&quot;&gt;     &lt;span style=&quot;white-space: pre;&quot;&gt;&amp;nbsp;&amp;nbsp;&amp;nbsp;&amp;nbsp;&lt;/span&gt;&lt;/span&gt;&lt;span style=&quot;color:#79abff;&quot;&gt;&amp;lt;&lt;/span&gt;&lt;span style=&quot;color:#bed6ff;&quot;&gt;div&lt;/span&gt; &lt;span style=&quot;color:#bed6ff;&quot;&gt;class&lt;/span&gt;&lt;span style=&quot;color:#d8d8d8;&quot;&gt;=&lt;/span&gt;&lt;span style=&quot;color:#a5c25c;&quot;&gt;&quot;col-md-4&quot;&lt;/span&gt;&lt;span style=&quot;color:#79abff;&quot;&gt;&amp;gt;&lt;/span&gt;&lt;/p&gt;&lt;p style=&quot;margin:0;&quot;&gt;&lt;span style=&quot;color:#d8d8d8;&quot;&gt;       &lt;span style=&quot;white-space: pre;&quot;&gt;&amp;nbsp;&amp;nbsp;&amp;nbsp;&amp;nbsp;&lt;/span&gt;&lt;span style=&quot;white-space: pre;&quot;&gt;&amp;nbsp;&amp;nbsp;&amp;nbsp;&amp;nbsp;&lt;/span&gt;&lt;/span&gt;&lt;span style=&quot;color:#79abff;&quot;&gt;&amp;lt;&lt;/span&gt;&lt;span style=&quot;color:#bed6ff;&quot;&gt;div&lt;/span&gt; &lt;span style=&quot;color:#bed6ff;&quot;&gt;class&lt;/span&gt;&lt;span style=&quot;color:#d8d8d8;&quot;&gt;=&lt;/span&gt;&lt;span style=&quot;color:#a5c25c;&quot;&gt;&quot;h-100 p-2&quot;&lt;/span&gt;&lt;span style=&quot;color:#79abff;&quot;&gt;&amp;gt;&lt;/span&gt;&lt;span style=&quot;color:#d8d8d8;&quot;&gt;&lt;span style=&quot;white-space: pre;&quot;&gt;&amp;nbsp;&amp;nbsp;&amp;nbsp;&amp;nbsp;&lt;/span&gt;&lt;/span&gt;&lt;/p&gt;&lt;p style=&quot;margin:0;&quot;&gt;&lt;span style=&quot;color:#d8d8d8;&quot;&gt;&lt;span style=&quot;white-space: pre;&quot;&gt;&amp;nbsp;&amp;nbsp;&amp;nbsp;&amp;nbsp;&lt;/span&gt;&lt;span style=&quot;white-space: pre;&quot;&gt;&amp;nbsp;&amp;nbsp;&amp;nbsp;&amp;nbsp;&lt;/span&gt;&lt;/span&gt;&lt;/p&gt;&lt;p style=&quot;margin:0;&quot;&gt;&lt;span style=&quot;color:#d8d8d8;&quot;&gt;&lt;span style=&quot;white-space: pre;&quot;&gt;&amp;nbsp;&amp;nbsp;&amp;nbsp;&amp;nbsp;&lt;/span&gt;&lt;span style=&quot;white-space: pre;&quot;&gt;&amp;nbsp;&amp;nbsp;&amp;nbsp;&amp;nbsp;&lt;/span&gt;&lt;span style=&quot;white-space: pre;&quot;&gt;&amp;nbsp;&amp;nbsp;&amp;nbsp;&amp;nbsp;&lt;/span&gt;&lt;span style=&quot;white-space: pre;&quot;&gt;&amp;nbsp;&amp;nbsp;&amp;nbsp;&amp;nbsp;&lt;/span&gt;&lt;/span&gt;&lt;span style=&quot;color:#79abff;&quot;&gt;&amp;lt;&lt;/span&gt;&lt;span style=&quot;color:#bed6ff;&quot;&gt;h5&lt;/span&gt;&lt;span style=&quot;color:#79abff;&quot;&gt;&amp;gt;&amp;lt;&lt;/span&gt;&lt;span style=&quot;color:#bed6ff;&quot;&gt;b&lt;/span&gt;&lt;span style=&quot;color:#79abff;&quot;&gt;&amp;gt;&lt;/span&gt;&lt;span style=&quot;color:#d8d8d8;&quot;&gt;&amp;lt;%=book.getName()%&amp;gt;&lt;/span&gt;&lt;span style=&quot;color:#79abff;&quot;&gt;&amp;lt;/&lt;/span&gt;&lt;span style=&quot;color:#bed6ff;&quot;&gt;b&lt;/span&gt;&lt;span style=&quot;color:#79abff;&quot;&gt;&amp;gt;&amp;lt;/&lt;/span&gt;&lt;span style=&quot;color:#bed6ff;&quot;&gt;h5&lt;/span&gt;&lt;span style=&quot;color:#79abff;&quot;&gt;&amp;gt;&lt;/span&gt;&lt;/p&gt;&lt;p style=&quot;margin:0;&quot;&gt;&lt;span style=&quot;color:#d8d8d8;&quot;&gt;&lt;span style=&quot;white-space: pre;&quot;&gt;&amp;nbsp;&amp;nbsp;&amp;nbsp;&amp;nbsp;&lt;/span&gt;&lt;span style=&quot;white-space: pre;&quot;&gt;&amp;nbsp;&amp;nbsp;&amp;nbsp;&amp;nbsp;&lt;/span&gt;&lt;span style=&quot;white-space: pre;&quot;&gt;&amp;nbsp;&amp;nbsp;&amp;nbsp;&amp;nbsp;&lt;/span&gt;&lt;span style=&quot;white-space: pre;&quot;&gt;&amp;nbsp;&amp;nbsp;&amp;nbsp;&amp;nbsp;&lt;/span&gt;&lt;/span&gt;&lt;span style=&quot;color:#79abff;&quot;&gt;&amp;lt;&lt;/span&gt;&lt;span style=&quot;color:#bed6ff;&quot;&gt;p&lt;/span&gt;&lt;span style=&quot;color:#79abff;&quot;&gt;&amp;gt;&lt;/span&gt;&lt;span style=&quot;color:#d8d8d8;&quot;&gt;&amp;lt;%=book.getAuthor()%&amp;gt;&lt;/span&gt;&lt;/p&gt;&lt;p style=&quot;margin:0;&quot;&gt;&lt;span style=&quot;color:#d8d8d8;&quot;&gt;&lt;span style=&quot;white-space: pre;&quot;&gt;&amp;nbsp;&amp;nbsp;&amp;nbsp;&amp;nbsp;&lt;/span&gt;&lt;span style=&quot;white-space: pre;&quot;&gt;&amp;nbsp;&amp;nbsp;&amp;nbsp;&amp;nbsp;&lt;/span&gt;&lt;span style=&quot;white-space: pre;&quot;&gt;&amp;nbsp;&amp;nbsp;&amp;nbsp;&amp;nbsp;&lt;/span&gt;&lt;span style=&quot;white-space: pre;&quot;&gt;&amp;nbsp;&amp;nbsp;&amp;nbsp;&amp;nbsp;&lt;/span&gt;&lt;/span&gt;&lt;span style=&quot;color:#79abff;&quot;&gt;&amp;lt;&lt;/span&gt;&lt;span style=&quot;color:#bed6ff;&quot;&gt;br&lt;/span&gt;&lt;span style=&quot;color:#79abff;&quot;&gt;&amp;gt;&lt;/span&gt;&lt;span style=&quot;color:#d8d8d8;&quot;&gt; &amp;lt;%=book.getPublisher()%&amp;gt; | &amp;lt;%=book.getReleaseDate()%&amp;gt;&lt;/span&gt;&lt;/p&gt;&lt;p style=&quot;margin:0;&quot;&gt;&lt;span style=&quot;color:#d8d8d8;&quot;&gt;&lt;span style=&quot;white-space: pre;&quot;&gt;&amp;nbsp;&amp;nbsp;&amp;nbsp;&amp;nbsp;&lt;/span&gt;&lt;span style=&quot;white-space: pre;&quot;&gt;&amp;nbsp;&amp;nbsp;&amp;nbsp;&amp;nbsp;&lt;/span&gt;&lt;span style=&quot;white-space: pre;&quot;&gt;&amp;nbsp;&amp;nbsp;&amp;nbsp;&amp;nbsp;&lt;/span&gt;&lt;span style=&quot;white-space: pre;&quot;&gt;&amp;nbsp;&amp;nbsp;&amp;nbsp;&amp;nbsp;&lt;/span&gt;&lt;/span&gt;&lt;span style=&quot;color:#79abff;&quot;&gt;&amp;lt;&lt;/span&gt;&lt;span style=&quot;color:#bed6ff;&quot;&gt;p&lt;/span&gt;&lt;span style=&quot;color:#79abff;&quot;&gt;&amp;gt;&lt;/span&gt;&lt;span style=&quot;color:#d8d8d8;&quot;&gt; &amp;lt;%=book.getDescription().substring(0,60)%&amp;gt;...&lt;/span&gt;&lt;/p&gt;&lt;p style=&quot;margin:0;&quot;&gt;&lt;span style=&quot;color:#d8d8d8;&quot;&gt;&lt;span style=&quot;white-space: pre;&quot;&gt;&amp;nbsp;&amp;nbsp;&amp;nbsp;&amp;nbsp;&lt;/span&gt;&lt;span style=&quot;white-space: pre;&quot;&gt;&amp;nbsp;&amp;nbsp;&amp;nbsp;&amp;nbsp;&lt;/span&gt;&lt;span style=&quot;white-space: pre;&quot;&gt;&amp;nbsp;&amp;nbsp;&amp;nbsp;&amp;nbsp;&lt;/span&gt;&lt;span style=&quot;white-space: pre;&quot;&gt;&amp;nbsp;&amp;nbsp;&amp;nbsp;&amp;nbsp;&lt;/span&gt;&lt;/span&gt;&lt;span style=&quot;color:#79abff;&quot;&gt;&amp;lt;&lt;/span&gt;&lt;span style=&quot;color:#bed6ff;&quot;&gt;p&lt;/span&gt;&lt;span style=&quot;color:#79abff;&quot;&gt;&amp;gt;&lt;/span&gt;&lt;span style=&quot;color:#d8d8d8;&quot;&gt;&amp;lt;%=book.getUnitPrice()%&amp;gt;원&lt;/span&gt;&lt;/p&gt;&lt;p style=&quot;margin:0;&quot;&gt;&lt;span style=&quot;color:#d8d8d8;&quot;&gt;&lt;span style=&quot;white-space: pre;&quot;&gt;&amp;nbsp;&amp;nbsp;&amp;nbsp;&amp;nbsp;&lt;/span&gt;&lt;span style=&quot;white-space: pre;&quot;&gt;&amp;nbsp;&amp;nbsp;&amp;nbsp;&amp;nbsp;&lt;/span&gt;&lt;span style=&quot;white-space: pre;&quot;&gt;&amp;nbsp;&amp;nbsp;&amp;nbsp;&amp;nbsp;&lt;/span&gt;&lt;/span&gt;&lt;span style=&quot;color:#79abff;&quot;&gt;&amp;lt;/&lt;/span&gt;&lt;span style=&quot;color:#bed6ff;&quot;&gt;div&lt;/span&gt;&lt;span style=&quot;color:#79abff;&quot;&gt;&amp;gt;&lt;/span&gt;&lt;span style=&quot;color:#d8d8d8;&quot;&gt;&lt;span style=&quot;white-space: pre;&quot;&gt;&amp;nbsp;&amp;nbsp;&amp;nbsp;&amp;nbsp;&lt;/span&gt;&lt;/span&gt;&lt;/p&gt;&lt;p style=&quot;margin:0;&quot;&gt;&lt;span style=&quot;color:#d8d8d8;&quot;&gt;&lt;span style=&quot;white-space: pre;&quot;&gt;&amp;nbsp;&amp;nbsp;&amp;nbsp;&amp;nbsp;&lt;/span&gt;&lt;span style=&quot;white-space: pre;&quot;&gt;&amp;nbsp;&amp;nbsp;&amp;nbsp;&amp;nbsp;&lt;/span&gt;&lt;/span&gt;&lt;span style=&quot;color:#79abff;&quot;&gt;&amp;lt;/&lt;/span&gt;&lt;span style=&quot;color:#bed6ff;&quot;&gt;div&lt;/span&gt;&lt;span style=&quot;color:#79abff;&quot;&gt;&amp;gt;&lt;/span&gt;&lt;span style=&quot;color:#d8d8d8;&quot;&gt;&lt;span style=&quot;white-space: pre;&quot;&gt;&amp;nbsp;&amp;nbsp;&amp;nbsp;&amp;nbsp;&lt;/span&gt;&lt;span style=&quot;white-space: pre;&quot;&gt;&amp;nbsp;&amp;nbsp;&amp;nbsp;&amp;nbsp;&lt;/span&gt;&lt;span style=&quot;white-space: pre;&quot;&gt;&amp;nbsp;&amp;nbsp;&amp;nbsp;&amp;nbsp;&lt;/span&gt;&lt;/span&gt;&lt;/p&gt;&lt;p style=&quot;margin:0;&quot;&gt;&lt;span style=&quot;color:#d8d8d8;&quot;&gt;&lt;span style=&quot;white-space: pre;&quot;&gt;&amp;nbsp;&amp;nbsp;&amp;nbsp;&amp;nbsp;&lt;/span&gt;&lt;span style=&quot;white-space: pre;&quot;&gt;&amp;nbsp;&amp;nbsp;&amp;nbsp;&amp;nbsp;&lt;/span&gt;&lt;/span&gt;&lt;span style=&quot;color:#d8d8d8;&quot;&gt;&amp;lt;%&lt;/span&gt;&lt;/p&gt;&lt;p style=&quot;margin:0;&quot;&gt;&lt;span style=&quot;color:#d8d8d8;&quot;&gt;&lt;span style=&quot;white-space: pre;&quot;&gt;&amp;nbsp;&amp;nbsp;&amp;nbsp;&amp;nbsp;&lt;/span&gt;&lt;span style=&quot;white-space: pre;&quot;&gt;&amp;nbsp;&amp;nbsp;&amp;nbsp;&amp;nbsp;&lt;/span&gt;&lt;span style=&quot;white-space: pre;&quot;&gt;&amp;nbsp;&amp;nbsp;&amp;nbsp;&amp;nbsp;&lt;/span&gt;}&lt;/span&gt;&lt;/p&gt;&lt;p style=&quot;margin:0;&quot;&gt;&lt;span style=&quot;color:#d8d8d8;&quot;&gt;&lt;span style=&quot;white-space: pre;&quot;&gt;&amp;nbsp;&amp;nbsp;&amp;nbsp;&amp;nbsp;&lt;/span&gt;&lt;span style=&quot;white-space: pre;&quot;&gt;&amp;nbsp;&amp;nbsp;&amp;nbsp;&amp;nbsp;&lt;/span&gt;&lt;/span&gt;&lt;span style=&quot;color:#d8d8d8;&quot;&gt;%&amp;gt;&lt;/span&gt;&lt;/p&gt;&lt;p style=&quot;margin:0;&quot;&gt;&lt;span style=&quot;color:#d8d8d8;&quot;&gt;&lt;span style=&quot;white-space: pre;&quot;&gt;&amp;nbsp;&amp;nbsp;&amp;nbsp;&amp;nbsp;&lt;/span&gt;&lt;/span&gt;&lt;/p&gt;&lt;p style=&quot;margin:0;&quot;&gt;&lt;span style=&quot;color:#d8d8d8;&quot;&gt;&lt;span style=&quot;white-space: pre;&quot;&gt;&amp;nbsp;&amp;nbsp;&amp;nbsp;&amp;nbsp;&lt;/span&gt;&lt;span style=&quot;white-space: pre;&quot;&gt;&amp;nbsp;&amp;nbsp;&amp;nbsp;&amp;nbsp;&lt;/span&gt;&lt;/span&gt;&lt;span style=&quot;color:#79abff;&quot;&gt;&amp;lt;/&lt;/span&gt;&lt;span style=&quot;color:#bed6ff;&quot;&gt;div&lt;/span&gt;&lt;span style=&quot;color:#79abff;&quot;&gt;&amp;gt;&lt;/span&gt;&lt;span style=&quot;color:#d8d8d8;&quot;&gt;&lt;span style=&quot;white-space: pre;&quot;&gt;&amp;nbsp;&amp;nbsp;&amp;nbsp;&amp;nbsp;&lt;/span&gt;&lt;/span&gt;&lt;/p&gt;&lt;p style=&quot;margin:0;&quot;&gt;&lt;span style=&quot;color:#d8d8d8;&quot;&gt;&lt;span style=&quot;white-space: pre;&quot;&gt;&amp;nbsp;&amp;nbsp;&amp;nbsp;&amp;nbsp;&lt;/span&gt;&lt;span style=&quot;white-space: pre;&quot;&gt;&amp;nbsp;&amp;nbsp;&amp;nbsp;&amp;nbsp;&lt;/span&gt;&lt;/span&gt;&lt;span style=&quot;color:#d8d8d8;&quot;&gt;&amp;lt;%@&lt;/span&gt; &lt;span style=&quot;color:#03a8d8;font-weight:bold;&quot;&gt;include&lt;/span&gt; &lt;span style=&quot;color:#cc7832;&quot;&gt;file&lt;/span&gt;&lt;span style=&quot;color:#d8d8d8;&quot;&gt;=&lt;/span&gt;&lt;span style=&quot;color:#a5c25c;&quot;&gt;&quot;footer.jsp&quot;&lt;/span&gt;&lt;span style=&quot;color:#d8d8d8;&quot;&gt;%&amp;gt;&lt;/span&gt;&lt;span style=&quot;color:#d8d8d8;&quot;&gt;   &lt;/span&gt;&lt;/p&gt;&lt;p style=&quot;margin:0;&quot;&gt;&lt;span style=&quot;color:#d8d8d8;&quot;&gt;  &lt;/span&gt;&lt;span style=&quot;color:#79abff;&quot;&gt;&amp;lt;/&lt;/span&gt;&lt;span style=&quot;color:#bed6ff;&quot;&gt;div&lt;/span&gt;&lt;span style=&quot;color:#79abff;&quot;&gt;&amp;gt;&lt;/span&gt;&lt;/p&gt;&lt;p style=&quot;margin:0;&quot;&gt;&lt;span style=&quot;color:#79abff;&quot;&gt;&amp;lt;/&lt;/span&gt;&lt;span style=&quot;color:#bed6ff;&quot;&gt;body&lt;/span&gt;&lt;span style=&quot;color:#79abff;&quot;&gt;&amp;gt;&lt;/span&gt;&lt;/p&gt;&lt;p style=&quot;margin:0;&quot;&gt;&lt;span style=&quot;color:#79abff;&quot;&gt;&amp;lt;/&lt;/span&gt;&lt;span style=&quot;color:#bed6ff;&quot;&gt;html&lt;/span&gt;&lt;span style=&quot;color:#79abff;&quot;&gt;&amp;gt;&lt;/span&gt;&lt;/p&gt;&lt;p style=&quot;margin:0;&quot;&gt;&lt;/p&gt;&lt;/div&gt;&lt;/div&gt;" id="sL9KzqHIcuMjWzqX6_P6-5">
          <mxCell style="text;whiteSpace=wrap;html=1;" parent="1" vertex="1">
            <mxGeometry x="270" y="660" width="850" height="820" as="geometry" />
          </mxCell>
        </UserObject>
        <mxCell id="sL9KzqHIcuMjWzqX6_P6-6" value="Book" style="swimlane;fontStyle=0;childLayout=stackLayout;horizontal=1;startSize=30;horizontalStack=0;resizeParent=1;resizeParentMax=0;resizeLast=0;collapsible=1;marginBottom=0;whiteSpace=wrap;html=1;" parent="1" vertex="1">
          <mxGeometry x="1600" y="60" width="140" height="120" as="geometry" />
        </mxCell>
        <mxCell id="sL9KzqHIcuMjWzqX6_P6-7" value="String bookId" style="text;strokeColor=none;fillColor=none;align=left;verticalAlign=middle;spacingLeft=4;spacingRight=4;overflow=hidden;points=[[0,0.5],[1,0.5]];portConstraint=eastwest;rotatable=0;whiteSpace=wrap;html=1;" parent="sL9KzqHIcuMjWzqX6_P6-6" vertex="1">
          <mxGeometry y="30" width="140" height="30" as="geometry" />
        </mxCell>
        <mxCell id="sL9KzqHIcuMjWzqX6_P6-8" value="String name" style="text;strokeColor=none;fillColor=none;align=left;verticalAlign=middle;spacingLeft=4;spacingRight=4;overflow=hidden;points=[[0,0.5],[1,0.5]];portConstraint=eastwest;rotatable=0;whiteSpace=wrap;html=1;" parent="sL9KzqHIcuMjWzqX6_P6-6" vertex="1">
          <mxGeometry y="60" width="140" height="30" as="geometry" />
        </mxCell>
        <mxCell id="sL9KzqHIcuMjWzqX6_P6-9" value="int unitPrice" style="text;strokeColor=none;fillColor=none;align=left;verticalAlign=middle;spacingLeft=4;spacingRight=4;overflow=hidden;points=[[0,0.5],[1,0.5]];portConstraint=eastwest;rotatable=0;whiteSpace=wrap;html=1;" parent="sL9KzqHIcuMjWzqX6_P6-6" vertex="1">
          <mxGeometry y="90" width="140" height="30" as="geometry" />
        </mxCell>
        <mxCell id="sL9KzqHIcuMjWzqX6_P6-10" value="BookRepository" style="swimlane;fontStyle=0;childLayout=stackLayout;horizontal=1;startSize=30;horizontalStack=0;resizeParent=1;resizeParentMax=0;resizeLast=0;collapsible=1;marginBottom=0;whiteSpace=wrap;html=1;" parent="1" vertex="1">
          <mxGeometry x="1770" y="260" width="240" height="120" as="geometry" />
        </mxCell>
        <mxCell id="sL9KzqHIcuMjWzqX6_P6-11" value="ArrayList&amp;lt;Book&amp;gt; listOfBooks" style="text;strokeColor=none;fillColor=none;align=left;verticalAlign=middle;spacingLeft=4;spacingRight=4;overflow=hidden;points=[[0,0.5],[1,0.5]];portConstraint=eastwest;rotatable=0;whiteSpace=wrap;html=1;" parent="sL9KzqHIcuMjWzqX6_P6-10" vertex="1">
          <mxGeometry y="30" width="240" height="30" as="geometry" />
        </mxCell>
        <mxCell id="sL9KzqHIcuMjWzqX6_P6-12" value="BookRepository(){}" style="text;strokeColor=none;fillColor=none;align=left;verticalAlign=middle;spacingLeft=4;spacingRight=4;overflow=hidden;points=[[0,0.5],[1,0.5]];portConstraint=eastwest;rotatable=0;whiteSpace=wrap;html=1;" parent="sL9KzqHIcuMjWzqX6_P6-10" vertex="1">
          <mxGeometry y="60" width="240" height="30" as="geometry" />
        </mxCell>
        <mxCell id="sL9KzqHIcuMjWzqX6_P6-13" value="ArrayList&amp;lt;Book&amp;gt; getAllBooks(){}" style="text;strokeColor=none;fillColor=none;align=left;verticalAlign=middle;spacingLeft=4;spacingRight=4;overflow=hidden;points=[[0,0.5],[1,0.5]];portConstraint=eastwest;rotatable=0;whiteSpace=wrap;html=1;" parent="sL9KzqHIcuMjWzqX6_P6-10" vertex="1">
          <mxGeometry y="90" width="240" height="30" as="geometry" />
        </mxCell>
        <mxCell id="sL9KzqHIcuMjWzqX6_P6-21" value="Book@1-----book1&amp;nbsp;" style="swimlane;fontStyle=0;childLayout=stackLayout;horizontal=1;startSize=30;horizontalStack=0;resizeParent=1;resizeParentMax=0;resizeLast=0;collapsible=1;marginBottom=0;whiteSpace=wrap;html=1;" parent="1" vertex="1">
          <mxGeometry x="-80" y="110" width="190" height="120" as="geometry" />
        </mxCell>
        <mxCell id="sL9KzqHIcuMjWzqX6_P6-22" value="String bookId = ISBN1234" style="text;strokeColor=none;fillColor=none;align=left;verticalAlign=middle;spacingLeft=4;spacingRight=4;overflow=hidden;points=[[0,0.5],[1,0.5]];portConstraint=eastwest;rotatable=0;whiteSpace=wrap;html=1;" parent="sL9KzqHIcuMjWzqX6_P6-21" vertex="1">
          <mxGeometry y="30" width="190" height="30" as="geometry" />
        </mxCell>
        <mxCell id="sL9KzqHIcuMjWzqX6_P6-23" value="String name = C#프로그래밍" style="text;strokeColor=none;fillColor=none;align=left;verticalAlign=middle;spacingLeft=4;spacingRight=4;overflow=hidden;points=[[0,0.5],[1,0.5]];portConstraint=eastwest;rotatable=0;whiteSpace=wrap;html=1;" parent="sL9KzqHIcuMjWzqX6_P6-21" vertex="1">
          <mxGeometry y="60" width="190" height="30" as="geometry" />
        </mxCell>
        <mxCell id="sL9KzqHIcuMjWzqX6_P6-24" value="int unitPrice = 27000" style="text;strokeColor=none;fillColor=none;align=left;verticalAlign=middle;spacingLeft=4;spacingRight=4;overflow=hidden;points=[[0,0.5],[1,0.5]];portConstraint=eastwest;rotatable=0;whiteSpace=wrap;html=1;" parent="sL9KzqHIcuMjWzqX6_P6-21" vertex="1">
          <mxGeometry y="90" width="190" height="30" as="geometry" />
        </mxCell>
        <mxCell id="sL9KzqHIcuMjWzqX6_P6-25" value="Book@2-----book2" style="swimlane;fontStyle=0;childLayout=stackLayout;horizontal=1;startSize=30;horizontalStack=0;resizeParent=1;resizeParentMax=0;resizeLast=0;collapsible=1;marginBottom=0;whiteSpace=wrap;html=1;" parent="1" vertex="1">
          <mxGeometry x="-80" y="240" width="190" height="120" as="geometry" />
        </mxCell>
        <mxCell id="sL9KzqHIcuMjWzqX6_P6-26" value="String bookId = ISBN1234" style="text;strokeColor=none;fillColor=none;align=left;verticalAlign=middle;spacingLeft=4;spacingRight=4;overflow=hidden;points=[[0,0.5],[1,0.5]];portConstraint=eastwest;rotatable=0;whiteSpace=wrap;html=1;" parent="sL9KzqHIcuMjWzqX6_P6-25" vertex="1">
          <mxGeometry y="30" width="190" height="30" as="geometry" />
        </mxCell>
        <mxCell id="sL9KzqHIcuMjWzqX6_P6-27" value="String name = C#프로그래밍" style="text;strokeColor=none;fillColor=none;align=left;verticalAlign=middle;spacingLeft=4;spacingRight=4;overflow=hidden;points=[[0,0.5],[1,0.5]];portConstraint=eastwest;rotatable=0;whiteSpace=wrap;html=1;" parent="sL9KzqHIcuMjWzqX6_P6-25" vertex="1">
          <mxGeometry y="60" width="190" height="30" as="geometry" />
        </mxCell>
        <mxCell id="sL9KzqHIcuMjWzqX6_P6-28" value="int unitPrice = 27000" style="text;strokeColor=none;fillColor=none;align=left;verticalAlign=middle;spacingLeft=4;spacingRight=4;overflow=hidden;points=[[0,0.5],[1,0.5]];portConstraint=eastwest;rotatable=0;whiteSpace=wrap;html=1;" parent="sL9KzqHIcuMjWzqX6_P6-25" vertex="1">
          <mxGeometry y="90" width="190" height="30" as="geometry" />
        </mxCell>
        <mxCell id="sL9KzqHIcuMjWzqX6_P6-29" value="books_jsp" style="swimlane;fontStyle=0;childLayout=stackLayout;horizontal=1;startSize=30;horizontalStack=0;resizeParent=1;resizeParentMax=0;resizeLast=0;collapsible=1;marginBottom=0;whiteSpace=wrap;html=1;" parent="1" vertex="1">
          <mxGeometry x="120" y="750" width="140" height="60" as="geometry" />
        </mxCell>
        <mxCell id="sL9KzqHIcuMjWzqX6_P6-33" style="edgeStyle=orthogonalEdgeStyle;rounded=0;orthogonalLoop=1;jettySize=auto;html=1;" parent="sL9KzqHIcuMjWzqX6_P6-29" source="sL9KzqHIcuMjWzqX6_P6-32" edge="1">
          <mxGeometry relative="1" as="geometry">
            <mxPoint x="-99.99999999999955" y="-300" as="targetPoint" />
          </mxGeometry>
        </mxCell>
        <mxCell id="sL9KzqHIcuMjWzqX6_P6-32" value="service(){}" style="text;strokeColor=none;fillColor=none;align=left;verticalAlign=middle;spacingLeft=4;spacingRight=4;overflow=hidden;points=[[0,0.5],[1,0.5]];portConstraint=eastwest;rotatable=0;whiteSpace=wrap;html=1;" parent="sL9KzqHIcuMjWzqX6_P6-29" vertex="1">
          <mxGeometry y="30" width="140" height="30" as="geometry" />
        </mxCell>
        <mxCell id="sL9KzqHIcuMjWzqX6_P6-34" value="Book@3-----book3" style="swimlane;fontStyle=0;childLayout=stackLayout;horizontal=1;startSize=30;horizontalStack=0;resizeParent=1;resizeParentMax=0;resizeLast=0;collapsible=1;marginBottom=0;whiteSpace=wrap;html=1;" parent="1" vertex="1">
          <mxGeometry x="-80" y="370" width="190" height="120" as="geometry" />
        </mxCell>
        <mxCell id="sL9KzqHIcuMjWzqX6_P6-35" value="String bookId = ISBN1234" style="text;strokeColor=none;fillColor=none;align=left;verticalAlign=middle;spacingLeft=4;spacingRight=4;overflow=hidden;points=[[0,0.5],[1,0.5]];portConstraint=eastwest;rotatable=0;whiteSpace=wrap;html=1;" parent="sL9KzqHIcuMjWzqX6_P6-34" vertex="1">
          <mxGeometry y="30" width="190" height="30" as="geometry" />
        </mxCell>
        <mxCell id="sL9KzqHIcuMjWzqX6_P6-36" value="String name = C#프로그래밍" style="text;strokeColor=none;fillColor=none;align=left;verticalAlign=middle;spacingLeft=4;spacingRight=4;overflow=hidden;points=[[0,0.5],[1,0.5]];portConstraint=eastwest;rotatable=0;whiteSpace=wrap;html=1;" parent="sL9KzqHIcuMjWzqX6_P6-34" vertex="1">
          <mxGeometry y="60" width="190" height="30" as="geometry" />
        </mxCell>
        <mxCell id="sL9KzqHIcuMjWzqX6_P6-37" value="int unitPrice = 27000" style="text;strokeColor=none;fillColor=none;align=left;verticalAlign=middle;spacingLeft=4;spacingRight=4;overflow=hidden;points=[[0,0.5],[1,0.5]];portConstraint=eastwest;rotatable=0;whiteSpace=wrap;html=1;" parent="sL9KzqHIcuMjWzqX6_P6-34" vertex="1">
          <mxGeometry y="90" width="190" height="30" as="geometry" />
        </mxCell>
        <mxCell id="sL9KzqHIcuMjWzqX6_P6-38" value="Book@3" style="shape=cube;whiteSpace=wrap;html=1;boundedLbl=1;backgroundOutline=1;darkOpacity=0.05;darkOpacity2=0.1;" parent="1" vertex="1">
          <mxGeometry x="-240" y="200" width="120" height="80" as="geometry" />
        </mxCell>
        <mxCell id="sL9KzqHIcuMjWzqX6_P6-39" value="Book@2" style="shape=cube;whiteSpace=wrap;html=1;boundedLbl=1;backgroundOutline=1;darkOpacity=0.05;darkOpacity2=0.1;" parent="1" vertex="1">
          <mxGeometry x="-340" y="200" width="120" height="80" as="geometry" />
        </mxCell>
        <mxCell id="sL9KzqHIcuMjWzqX6_P6-40" value="Book@1" style="shape=cube;whiteSpace=wrap;html=1;boundedLbl=1;backgroundOutline=1;darkOpacity=0.05;darkOpacity2=0.1;" parent="1" vertex="1">
          <mxGeometry x="-440" y="200" width="120" height="80" as="geometry" />
        </mxCell>
        <mxCell id="sL9KzqHIcuMjWzqX6_P6-41" value="ArrayList&amp;lt;Book&amp;gt; listOfBooks" style="text;html=1;align=center;verticalAlign=middle;whiteSpace=wrap;rounded=0;" parent="1" vertex="1">
          <mxGeometry x="-350" y="155" width="200" height="30" as="geometry" />
        </mxCell>
        <mxCell id="sL9KzqHIcuMjWzqX6_P6-43" value="ArrayList&amp;lt;Book&amp;gt; @4" style="text;html=1;align=center;verticalAlign=middle;whiteSpace=wrap;rounded=0;" parent="1" vertex="1">
          <mxGeometry x="-413" y="110" width="223" height="30" as="geometry" />
        </mxCell>
        <mxCell id="hI6aEkzv5kinHOjtL3IV-5" value="" style="group" vertex="1" connectable="0" parent="1">
          <mxGeometry x="1690" y="410" width="540" height="470" as="geometry" />
        </mxCell>
        <UserObject label="&lt;div style=&quot;background-color:#191d1f;padding:0px 0px 0px 2px;&quot;&gt;&lt;div style=&quot;color:#d8d8d8;background-color:#191d1f;font-family:&amp;quot;Consolas&amp;quot;;font-size:10pt;white-space:pre;&quot;&gt;&lt;p style=&quot;margin:0;&quot;&gt;&lt;span style=&quot;color:#d8d8d8;&quot;&gt;&amp;lt;%@&lt;/span&gt; &lt;span style=&quot;color:#03a8d8;font-weight:bold;&quot;&gt;page&lt;/span&gt; &lt;span style=&quot;color:#cc7832;&quot;&gt;contentType&lt;/span&gt;&lt;span style=&quot;color:#d8d8d8;&quot;&gt;=&lt;/span&gt;&lt;span style=&quot;color:#a5c25c;&quot;&gt;&quot;text/html; charset=utf-8&quot;&lt;/span&gt;&lt;span style=&quot;color:#d8d8d8;&quot;&gt;%&amp;gt;&lt;/span&gt;&lt;/p&gt;&lt;p style=&quot;margin:0;&quot;&gt;&lt;span style=&quot;color:#d8d8d8;&quot;&gt;&amp;lt;%@&lt;/span&gt; &lt;span style=&quot;color:#03a8d8;font-weight:bold;&quot;&gt;page&lt;/span&gt; &lt;span style=&quot;color:#cc7832;&quot;&gt;import&lt;/span&gt;&lt;span style=&quot;color:#d8d8d8;&quot;&gt;=&lt;/span&gt;&lt;span style=&quot;color:#a5c25c;&quot;&gt;&quot;java.util.ArrayList&quot;&lt;/span&gt;&lt;span style=&quot;color:#d8d8d8;&quot;&gt;%&amp;gt;&lt;/span&gt;&lt;/p&gt;&lt;p style=&quot;margin:0;&quot;&gt;&lt;span style=&quot;color:#d8d8d8;&quot;&gt;&amp;lt;%@&lt;/span&gt; &lt;span style=&quot;color:#03a8d8;font-weight:bold;&quot;&gt;page&lt;/span&gt; &lt;span style=&quot;color:#cc7832;&quot;&gt;import&lt;/span&gt;&lt;span style=&quot;color:#d8d8d8;&quot;&gt;=&lt;/span&gt;&lt;span style=&quot;color:#a5c25c;&quot;&gt;&quot;dto.Book&quot;&lt;/span&gt;&lt;span style=&quot;color:#d8d8d8;&quot;&gt;%&amp;gt;&lt;/span&gt;&lt;/p&gt;&lt;p style=&quot;margin:0;&quot;&gt;&lt;span style=&quot;color:#a9b7c6;&quot;&gt;&amp;lt;&lt;/span&gt;&lt;span style=&quot;color:#03a8d8;font-weight:bold;&quot;&gt;jsp:useBean&lt;/span&gt; &lt;span style=&quot;color:#cc7832;&quot;&gt;id&lt;/span&gt;&lt;span style=&quot;color:#d8d8d8;&quot;&gt;=&lt;/span&gt;&lt;span style=&quot;color:#a5c25c;&quot;&gt;&quot;bookDAO&quot;&lt;/span&gt; &lt;span style=&quot;color:#cc7832;&quot;&gt;class&lt;/span&gt;&lt;span style=&quot;color:#d8d8d8;&quot;&gt;=&lt;/span&gt;&lt;span style=&quot;color:#a5c25c;&quot;&gt;&quot;dao.BookRepository&quot;&lt;/span&gt; &lt;span style=&quot;color:#cc7832;&quot;&gt;scope&lt;/span&gt;&lt;span style=&quot;color:#d8d8d8;&quot;&gt;=&lt;/span&gt;&lt;span style=&quot;color:#a5c25c;&quot;&gt;&quot;session&quot;&lt;/span&gt; &lt;span style=&quot;color:#a9b7c6;&quot;&gt;/&amp;gt;&lt;/span&gt;&lt;/p&gt;&lt;p style=&quot;margin:0;&quot;&gt;&lt;br&gt;&lt;/p&gt;&lt;p style=&quot;margin:0;&quot;&gt;&lt;span style=&quot;color:#d8d8d8;&quot;&gt;&lt;span style=&quot;white-space: pre;&quot;&gt;&amp;nbsp;&amp;nbsp;&amp;nbsp;&amp;nbsp;&lt;/span&gt;&lt;/span&gt;&lt;span style=&quot;color:#d8d8d8;&quot;&gt;&amp;lt;%&lt;/span&gt;&lt;/p&gt;&lt;p style=&quot;margin:0;&quot;&gt;&lt;span style=&quot;color:#d8d8d8;&quot;&gt;&lt;span style=&quot;white-space: pre;&quot;&gt;&amp;nbsp;&amp;nbsp;&amp;nbsp;&amp;nbsp;&lt;/span&gt;&lt;span style=&quot;white-space: pre;&quot;&gt;&amp;nbsp;&amp;nbsp;&amp;nbsp;&amp;nbsp;&lt;/span&gt;&lt;/span&gt;&lt;span style=&quot;color:#d8d8d8;&quot;&gt;ArrayList&lt;/span&gt;&lt;span style=&quot;color:#d8d8d8;&quot;&gt;&amp;lt;&lt;/span&gt;&lt;span style=&quot;color:#d8d8d8;&quot;&gt;Book&lt;/span&gt;&lt;span style=&quot;color:#d8d8d8;&quot;&gt;&amp;gt; &lt;/span&gt;&lt;span style=&quot;color:#d8d8d8;&quot;&gt;listOfBooks&lt;/span&gt;&lt;span style=&quot;color:#d8d8d8;&quot;&gt; = &lt;/span&gt;&lt;span style=&quot;color:#d8d8d8;&quot;&gt;bookDAO&lt;/span&gt;&lt;span style=&quot;color:#d8d8d8;&quot;&gt;.&lt;/span&gt;&lt;span style=&quot;color:#d8d8d8;&quot;&gt;getAllBooks&lt;/span&gt;&lt;span style=&quot;color:#d8d8d8;&quot;&gt;();&lt;/span&gt;&lt;/p&gt;&lt;p style=&quot;margin:0;&quot;&gt;&lt;span style=&quot;color:#d8d8d8;&quot;&gt;&lt;span style=&quot;white-space: pre;&quot;&gt;&amp;nbsp;&amp;nbsp;&amp;nbsp;&amp;nbsp;&lt;/span&gt;&lt;/span&gt;&lt;span style=&quot;color:#d8d8d8;&quot;&gt;%&amp;gt;&lt;/span&gt;&lt;/p&gt;&lt;p style=&quot;margin:0;&quot;&gt;&lt;span style=&quot;color:#d8d8d8;&quot;&gt;      &lt;/span&gt;&lt;/p&gt;&lt;p style=&quot;margin:0;&quot;&gt;&lt;span style=&quot;color:#d8d8d8;&quot;&gt;&lt;span style=&quot;white-space: pre;&quot;&gt;&amp;nbsp;&amp;nbsp;&amp;nbsp;&amp;nbsp;&lt;/span&gt; &lt;span style=&quot;white-space: pre;&quot;&gt;&amp;nbsp;&amp;nbsp;&amp;nbsp;&amp;nbsp;&lt;/span&gt;&lt;/span&gt;&lt;/p&gt;&lt;p style=&quot;margin:0;&quot;&gt;&lt;span style=&quot;color:#d8d8d8;&quot;&gt;&lt;span style=&quot;white-space: pre;&quot;&gt;&amp;nbsp;&amp;nbsp;&amp;nbsp;&amp;nbsp;&lt;/span&gt; &lt;/span&gt;&lt;span style=&quot;color:#d8d8d8;&quot;&gt;&amp;lt;%&lt;/span&gt;&lt;/p&gt;&lt;p style=&quot;margin:0;&quot;&gt;&lt;span style=&quot;color:#d8d8d8;&quot;&gt;&lt;span style=&quot;white-space: pre;&quot;&gt;&amp;nbsp;&amp;nbsp;&amp;nbsp;&amp;nbsp;&lt;/span&gt;&lt;span style=&quot;white-space: pre;&quot;&gt;&amp;nbsp;&amp;nbsp;&amp;nbsp;&amp;nbsp;&lt;/span&gt;&lt;/span&gt;&lt;span style=&quot;color:#cc7832;&quot;&gt;for&lt;/span&gt;&lt;span style=&quot;color:#d8d8d8;&quot;&gt; (&lt;/span&gt;&lt;span style=&quot;color:#cc7832;&quot;&gt;int&lt;/span&gt;&lt;span style=&quot;color:#d8d8d8;&quot;&gt; &lt;/span&gt;&lt;span style=&quot;color:#d8d8d8;&quot;&gt;i&lt;/span&gt;&lt;span style=&quot;color:#d8d8d8;&quot;&gt; = 0; &lt;/span&gt;&lt;span style=&quot;color:#d8d8d8;&quot;&gt;i&lt;/span&gt;&lt;span style=&quot;color:#d8d8d8;&quot;&gt; &amp;lt; &lt;/span&gt;&lt;span style=&quot;color:#d8d8d8;&quot;&gt;listOfBooks&lt;/span&gt;&lt;span style=&quot;color:#d8d8d8;&quot;&gt;.&lt;/span&gt;&lt;span style=&quot;color:#d8d8d8;&quot;&gt;size&lt;/span&gt;&lt;span style=&quot;color:#d8d8d8;&quot;&gt;(); &lt;/span&gt;&lt;span style=&quot;color:#d8d8d8;&quot;&gt;i&lt;/span&gt;&lt;span style=&quot;color:#d8d8d8;&quot;&gt;++) {&lt;/span&gt;&lt;/p&gt;&lt;p style=&quot;margin:0;&quot;&gt;&lt;span style=&quot;color:#d8d8d8;&quot;&gt;&lt;span style=&quot;white-space: pre;&quot;&gt;&amp;nbsp;&amp;nbsp;&amp;nbsp;&amp;nbsp;&lt;/span&gt;&lt;span style=&quot;white-space: pre;&quot;&gt;&amp;nbsp;&amp;nbsp;&amp;nbsp;&amp;nbsp;&lt;/span&gt;&lt;span style=&quot;white-space: pre;&quot;&gt;&amp;nbsp;&amp;nbsp;&amp;nbsp;&amp;nbsp;&lt;/span&gt;&lt;/span&gt;&lt;span style=&quot;color:#d8d8d8;&quot;&gt;Book&lt;/span&gt;&lt;span style=&quot;color:#d8d8d8;&quot;&gt; &lt;/span&gt;&lt;span style=&quot;color:#d8d8d8;&quot;&gt;book&lt;/span&gt;&lt;span style=&quot;color:#d8d8d8;&quot;&gt; = &lt;/span&gt;&lt;span style=&quot;color:#d8d8d8;&quot;&gt;listOfBooks&lt;/span&gt;&lt;span style=&quot;color:#d8d8d8;&quot;&gt;.&lt;/span&gt;&lt;span style=&quot;color:#d8d8d8;&quot;&gt;get&lt;/span&gt;&lt;span style=&quot;color:#d8d8d8;&quot;&gt;(&lt;/span&gt;&lt;span style=&quot;color:#d8d8d8;&quot;&gt;i&lt;/span&gt;&lt;span style=&quot;color:#d8d8d8;&quot;&gt;);&lt;/span&gt;&lt;/p&gt;&lt;p style=&quot;margin:0;&quot;&gt;&lt;span style=&quot;color:#d8d8d8;&quot;&gt;&lt;span style=&quot;white-space: pre;&quot;&gt;&amp;nbsp;&amp;nbsp;&amp;nbsp;&amp;nbsp;&lt;/span&gt;  &lt;/span&gt;&lt;span style=&quot;color:#d8d8d8;&quot;&gt;%&amp;gt;&lt;/span&gt;&lt;/p&gt;&lt;p style=&quot;margin:0;&quot;&gt;&lt;span style=&quot;font-size: 10pt;&quot;&gt;&amp;nbsp;&amp;nbsp;&amp;nbsp;&amp;nbsp;&lt;/span&gt;&lt;br&gt;&lt;/p&gt;&lt;p style=&quot;margin:0;&quot;&gt;&lt;span style=&quot;color:#d8d8d8;&quot;&gt;&lt;span style=&quot;white-space: pre;&quot;&gt;&amp;nbsp;&amp;nbsp;&amp;nbsp;&amp;nbsp;&lt;/span&gt;&lt;span style=&quot;white-space: pre;&quot;&gt;&amp;nbsp;&amp;nbsp;&amp;nbsp;&amp;nbsp;&lt;/span&gt;&lt;span style=&quot;white-space: pre;&quot;&gt;&amp;nbsp;&amp;nbsp;&amp;nbsp;&amp;nbsp;&lt;/span&gt;&lt;span style=&quot;white-space: pre;&quot;&gt;&amp;nbsp;&amp;nbsp;&lt;/span&gt;&lt;/span&gt;&lt;span style=&quot;color:#d8d8d8;&quot;&gt;&amp;lt;%=book.getName()%&amp;gt;&lt;/span&gt;&lt;/p&gt;&lt;p style=&quot;margin:0;&quot;&gt;&lt;span style=&quot;color:#d8d8d8;&quot;&gt;&lt;span style=&quot;white-space: pre;&quot;&gt;&amp;nbsp;&amp;nbsp;&amp;nbsp;&amp;nbsp;&lt;/span&gt;&lt;span style=&quot;white-space: pre;&quot;&gt;&amp;nbsp;&amp;nbsp;&amp;nbsp;&amp;nbsp;&lt;/span&gt;&lt;span style=&quot;white-space: pre;&quot;&gt;&amp;nbsp;&amp;nbsp;&amp;nbsp;&amp;nbsp;&lt;/span&gt;&lt;span style=&quot;white-space: pre;&quot;&gt;&amp;nbsp;&amp;nbsp;&lt;/span&gt;&lt;/span&gt;&lt;span style=&quot;color:#d8d8d8;&quot;&gt;&amp;lt;%=book.getAuthor()%&amp;gt;&lt;/span&gt;&lt;/p&gt;&lt;p style=&quot;margin:0;&quot;&gt;&lt;span style=&quot;color:#d8d8d8;&quot;&gt;&lt;span style=&quot;white-space: pre;&quot;&gt;&amp;nbsp;&amp;nbsp;&amp;nbsp;&amp;nbsp;&lt;/span&gt;&lt;span style=&quot;white-space: pre;&quot;&gt;&amp;nbsp;&amp;nbsp;&amp;nbsp;&amp;nbsp;&lt;/span&gt;&lt;span style=&quot;white-space: pre;&quot;&gt;&amp;nbsp;&amp;nbsp;&amp;nbsp;&amp;nbsp;&lt;/span&gt;&lt;span style=&quot;white-space: pre;&quot;&gt;&amp;nbsp;&amp;nbsp;&lt;/span&gt;&lt;/span&gt;&lt;span style=&quot;color:#d8d8d8;&quot;&gt;&amp;lt;%=book.getPublisher()%&amp;gt;  &lt;/span&gt;&lt;/p&gt;&lt;p style=&quot;margin:0;&quot;&gt;&lt;span style=&quot;color:#d8d8d8;&quot;&gt;              &amp;lt;%=book.getReleaseDate()%&amp;gt;&lt;/span&gt;&lt;/p&gt;&lt;p style=&quot;margin:0;&quot;&gt;&lt;span style=&quot;color:#d8d8d8;&quot;&gt;&lt;span style=&quot;white-space: pre;&quot;&gt;&amp;nbsp;&amp;nbsp;&amp;nbsp;&amp;nbsp;&lt;/span&gt;&lt;span style=&quot;white-space: pre;&quot;&gt;&amp;nbsp;&amp;nbsp;&amp;nbsp;&amp;nbsp;&lt;/span&gt;&lt;span style=&quot;white-space: pre;&quot;&gt;&amp;nbsp;&amp;nbsp;&amp;nbsp;&amp;nbsp;&lt;/span&gt;&lt;span style=&quot;white-space: pre;&quot;&gt;&amp;nbsp;&amp;nbsp;&lt;/span&gt;&lt;/span&gt;&lt;span style=&quot;color:#d8d8d8;&quot;&gt;&amp;lt;%=book.getDescription().substring(0,60)%&amp;gt;...&lt;/span&gt;&lt;/p&gt;&lt;p style=&quot;margin:0;&quot;&gt;&lt;span style=&quot;color:#d8d8d8;&quot;&gt;&lt;span style=&quot;white-space: pre;&quot;&gt;&amp;nbsp;&amp;nbsp;&amp;nbsp;&amp;nbsp;&lt;/span&gt;&lt;span style=&quot;white-space: pre;&quot;&gt;&amp;nbsp;&amp;nbsp;&amp;nbsp;&amp;nbsp;&lt;/span&gt;&lt;span style=&quot;white-space: pre;&quot;&gt;&amp;nbsp;&amp;nbsp;&amp;nbsp;&amp;nbsp;&lt;/span&gt;&lt;span style=&quot;white-space: pre;&quot;&gt;&amp;nbsp;&amp;nbsp;&lt;/span&gt;&lt;/span&gt;&lt;span style=&quot;color:#d8d8d8;&quot;&gt;&amp;lt;%=book.getUnitPrice()%&amp;gt;원&lt;/span&gt;&lt;/p&gt;&lt;p style=&quot;margin:0;&quot;&gt;&lt;span style=&quot;color:#d8d8d8;&quot;&gt;&lt;span style=&quot;white-space: pre;&quot;&gt;&amp;nbsp;&amp;nbsp;&amp;nbsp;&amp;nbsp;&lt;/span&gt;&lt;span style=&quot;white-space: pre;&quot;&gt;&amp;nbsp;&amp;nbsp;&amp;nbsp;&amp;nbsp;&lt;/span&gt;&lt;/span&gt;&lt;span style=&quot;color:#d8d8d8;&quot;&gt;&lt;span style=&quot;white-space: pre;&quot;&gt;&amp;nbsp;&amp;nbsp;&lt;/span&gt;&lt;/span&gt;&lt;/p&gt;&lt;p style=&quot;margin:0;&quot;&gt;&lt;span style=&quot;color:#d8d8d8;&quot;&gt;&lt;span style=&quot;white-space: pre;&quot;&gt;&amp;nbsp;&amp;nbsp;&amp;nbsp;&amp;nbsp;&lt;/span&gt;&lt;/span&gt;&lt;span style=&quot;color:#d8d8d8;&quot;&gt;&lt;span style=&quot;white-space: pre;&quot;&gt;&amp;nbsp;&amp;nbsp;&amp;nbsp;&amp;nbsp;&lt;/span&gt;&lt;span style=&quot;white-space: pre;&quot;&gt;&amp;nbsp;&amp;nbsp;&amp;nbsp;&amp;nbsp;&lt;/span&gt;&lt;/span&gt;&lt;/p&gt;&lt;p style=&quot;margin:0;&quot;&gt;&lt;span style=&quot;color:#d8d8d8;&quot;&gt;&lt;span style=&quot;white-space: pre;&quot;&gt;&amp;nbsp;&amp;nbsp;&amp;nbsp;&amp;nbsp;&lt;/span&gt;&lt;span style=&quot;white-space: pre;&quot;&gt;&amp;nbsp;&amp;nbsp;&amp;nbsp;&amp;nbsp;&lt;/span&gt;&lt;/span&gt;&lt;span style=&quot;color:#d8d8d8;&quot;&gt;&amp;lt;%&lt;/span&gt;&lt;/p&gt;&lt;p style=&quot;margin:0;&quot;&gt;&lt;span style=&quot;color:#d8d8d8;&quot;&gt;&lt;span style=&quot;white-space: pre;&quot;&gt;&amp;nbsp;&amp;nbsp;&amp;nbsp;&amp;nbsp;&lt;/span&gt;&lt;span style=&quot;white-space: pre;&quot;&gt;&amp;nbsp;&amp;nbsp;&amp;nbsp;&amp;nbsp;&lt;/span&gt;&lt;span style=&quot;white-space: pre;&quot;&gt;&amp;nbsp;&amp;nbsp;&amp;nbsp;&amp;nbsp;&lt;/span&gt;}&lt;/span&gt;&lt;/p&gt;&lt;p style=&quot;margin:0;&quot;&gt;&lt;span style=&quot;color:#d8d8d8;&quot;&gt;&lt;span style=&quot;white-space: pre;&quot;&gt;&amp;nbsp;&amp;nbsp;&amp;nbsp;&amp;nbsp;&lt;/span&gt;&lt;span style=&quot;white-space: pre;&quot;&gt;&amp;nbsp;&amp;nbsp;&amp;nbsp;&amp;nbsp;&lt;/span&gt;&lt;/span&gt;&lt;span style=&quot;color:#d8d8d8;&quot;&gt;%&amp;gt;&lt;/span&gt;&lt;/p&gt;&lt;p style=&quot;margin:0;&quot;&gt;&lt;br&gt;&lt;/p&gt;&lt;p style=&quot;margin:0;&quot;&gt;&lt;/p&gt;&lt;/div&gt;&lt;/div&gt;" link="&lt;div style=&quot;background-color:#191d1f;padding:0px 0px 0px 2px;&quot;&gt;&lt;div style=&quot;color:#d8d8d8;background-color:#191d1f;font-family:&amp;quot;Consolas&amp;quot;;font-size:10pt;white-space:pre;&quot;&gt;&lt;p style=&quot;margin:0;&quot;&gt;&lt;span style=&quot;color:#d8d8d8;&quot;&gt;&amp;lt;%@&lt;/span&gt; &lt;span style=&quot;color:#03a8d8;font-weight:bold;&quot;&gt;page&lt;/span&gt; &lt;span style=&quot;color:#cc7832;&quot;&gt;contentType&lt;/span&gt;&lt;span style=&quot;color:#d8d8d8;&quot;&gt;=&lt;/span&gt;&lt;span style=&quot;color:#a5c25c;&quot;&gt;&quot;text/html; charset=utf-8&quot;&lt;/span&gt;&lt;span style=&quot;color:#d8d8d8;&quot;&gt;%&amp;gt;&lt;/span&gt;&lt;/p&gt;&lt;p style=&quot;margin:0;&quot;&gt;&lt;span style=&quot;color:#d8d8d8;&quot;&gt;&amp;lt;%@&lt;/span&gt; &lt;span style=&quot;color:#03a8d8;font-weight:bold;&quot;&gt;page&lt;/span&gt; &lt;span style=&quot;color:#cc7832;&quot;&gt;import&lt;/span&gt;&lt;span style=&quot;color:#d8d8d8;&quot;&gt;=&lt;/span&gt;&lt;span style=&quot;color:#a5c25c;&quot;&gt;&quot;java.util.ArrayList&quot;&lt;/span&gt;&lt;span style=&quot;color:#d8d8d8;&quot;&gt;%&amp;gt;&lt;/span&gt;&lt;/p&gt;&lt;p style=&quot;margin:0;&quot;&gt;&lt;span style=&quot;color:#d8d8d8;&quot;&gt;&amp;lt;%@&lt;/span&gt; &lt;span style=&quot;color:#03a8d8;font-weight:bold;&quot;&gt;page&lt;/span&gt; &lt;span style=&quot;color:#cc7832;&quot;&gt;import&lt;/span&gt;&lt;span style=&quot;color:#d8d8d8;&quot;&gt;=&lt;/span&gt;&lt;span style=&quot;color:#a5c25c;&quot;&gt;&quot;dto.Book&quot;&lt;/span&gt;&lt;span style=&quot;color:#d8d8d8;&quot;&gt;%&amp;gt;&lt;/span&gt;&lt;/p&gt;&lt;p style=&quot;margin:0;&quot;&gt;&lt;span style=&quot;color:#a9b7c6;&quot;&gt;&amp;lt;&lt;/span&gt;&lt;span style=&quot;color:#03a8d8;font-weight:bold;&quot;&gt;jsp:useBean&lt;/span&gt; &lt;span style=&quot;color:#cc7832;&quot;&gt;id&lt;/span&gt;&lt;span style=&quot;color:#d8d8d8;&quot;&gt;=&lt;/span&gt;&lt;span style=&quot;color:#a5c25c;&quot;&gt;&quot;bookDAO&quot;&lt;/span&gt; &lt;span style=&quot;color:#cc7832;&quot;&gt;class&lt;/span&gt;&lt;span style=&quot;color:#d8d8d8;&quot;&gt;=&lt;/span&gt;&lt;span style=&quot;color:#a5c25c;&quot;&gt;&quot;dao.BookRepository&quot;&lt;/span&gt; &lt;span style=&quot;color:#cc7832;&quot;&gt;scope&lt;/span&gt;&lt;span style=&quot;color:#d8d8d8;&quot;&gt;=&lt;/span&gt;&lt;span style=&quot;color:#a5c25c;&quot;&gt;&quot;session&quot;&lt;/span&gt; &lt;span style=&quot;color:#a9b7c6;&quot;&gt;/&amp;gt;&lt;/span&gt;&lt;/p&gt;&lt;p style=&quot;margin:0;&quot;&gt;&lt;br&gt;&lt;/p&gt;&lt;p style=&quot;margin:0;&quot;&gt;&lt;br&gt;&lt;/p&gt;&lt;p style=&quot;margin:0;&quot;&gt;&lt;span style=&quot;color:#79abff;&quot;&gt;&amp;lt;&lt;/span&gt;&lt;span style=&quot;color:#bed6ff;&quot;&gt;html&lt;/span&gt;&lt;span style=&quot;color:#79abff;&quot;&gt;&amp;gt;&lt;/span&gt;&lt;/p&gt;&lt;p style=&quot;margin:0;&quot;&gt;&lt;span style=&quot;color:#79abff;&quot;&gt;&amp;lt;&lt;/span&gt;&lt;span style=&quot;color:#bed6ff;&quot;&gt;head&lt;/span&gt;&lt;span style=&quot;color:#79abff;&quot;&gt;&amp;gt;&lt;/span&gt;&lt;/p&gt;&lt;p style=&quot;margin:0;&quot;&gt;&lt;span style=&quot;color:#d8d8d8;&quot;&gt; &lt;/span&gt;&lt;span style=&quot;color:#79abff;&quot;&gt;&amp;lt;&lt;/span&gt;&lt;span style=&quot;color:#bed6ff;&quot;&gt;link&lt;/span&gt; &lt;span style=&quot;color:#bed6ff;&quot;&gt;href&lt;/span&gt;&lt;span style=&quot;color:#d8d8d8;&quot;&gt;=&lt;/span&gt;&lt;span style=&quot;color:#a5c25c;&quot;&gt;&quot;https://cdn.jsdelivr.net/npm/bootstrap@5.3.0-alpha1/dist/css/bootstrap.min.css&quot;&lt;/span&gt; &lt;span style=&quot;color:#bed6ff;&quot;&gt;rel&lt;/span&gt;&lt;span style=&quot;color:#d8d8d8;&quot;&gt;=&lt;/span&gt;&lt;span style=&quot;color:#a5c25c;&quot;&gt;&quot;stylesheet&quot;&lt;/span&gt;&lt;span style=&quot;color:#79abff;&quot;&gt;&amp;gt;&lt;/span&gt;&lt;/p&gt;&lt;p style=&quot;margin:0;&quot;&gt;&lt;br&gt;&lt;/p&gt;&lt;p style=&quot;margin:0;&quot;&gt;&lt;span style=&quot;color:#79abff;&quot;&gt;&amp;lt;&lt;/span&gt;&lt;span style=&quot;color:#bed6ff;&quot;&gt;title&lt;/span&gt;&lt;span style=&quot;color:#79abff;&quot;&gt;&amp;gt;&lt;/span&gt;&lt;span style=&quot;color:#d8d8d8;&quot;&gt;도서 목록&lt;/span&gt;&lt;span style=&quot;color:#79abff;&quot;&gt;&amp;lt;/&lt;/span&gt;&lt;span style=&quot;color:#bed6ff;&quot;&gt;title&lt;/span&gt;&lt;span style=&quot;color:#79abff;&quot;&gt;&amp;gt;&lt;/span&gt;&lt;/p&gt;&lt;p style=&quot;margin:0;&quot;&gt;&lt;span style=&quot;color:#79abff;&quot;&gt;&amp;lt;/&lt;/span&gt;&lt;span style=&quot;color:#bed6ff;&quot;&gt;head&lt;/span&gt;&lt;span style=&quot;color:#79abff;&quot;&gt;&amp;gt;&lt;/span&gt;&lt;/p&gt;&lt;p style=&quot;margin:0;&quot;&gt;&lt;span style=&quot;color:#79abff;&quot;&gt;&amp;lt;&lt;/span&gt;&lt;span style=&quot;color:#bed6ff;&quot;&gt;body&lt;/span&gt;&lt;span style=&quot;color:#79abff;&quot;&gt;&amp;gt;&lt;/span&gt;&lt;/p&gt;&lt;p style=&quot;margin:0;&quot;&gt;&lt;span style=&quot;color:#79abff;&quot;&gt;&amp;lt;&lt;/span&gt;&lt;span style=&quot;color:#bed6ff;&quot;&gt;div&lt;/span&gt; &lt;span style=&quot;color:#bed6ff;&quot;&gt;class&lt;/span&gt;&lt;span style=&quot;color:#d8d8d8;&quot;&gt;=&lt;/span&gt;&lt;span style=&quot;color:#a5c25c;&quot;&gt;&quot;container py-4&quot;&lt;/span&gt;&lt;span style=&quot;color:#79abff;&quot;&gt;&amp;gt;&lt;/span&gt;&lt;/p&gt;&lt;p style=&quot;margin:0;&quot;&gt;&lt;span style=&quot;color:#d8d8d8;&quot;&gt;   &lt;/span&gt;&lt;span style=&quot;color:#d8d8d8;&quot;&gt;&amp;lt;%@&lt;/span&gt; &lt;span style=&quot;color:#03a8d8;font-weight:bold;&quot;&gt;include&lt;/span&gt; &lt;span style=&quot;color:#cc7832;&quot;&gt;file&lt;/span&gt;&lt;span style=&quot;color:#d8d8d8;&quot;&gt;=&lt;/span&gt;&lt;span style=&quot;color:#a5c25c;&quot;&gt;&quot;menu.jsp&quot;&lt;/span&gt;&lt;span style=&quot;color:#d8d8d8;&quot;&gt;%&amp;gt;&lt;/span&gt;&lt;span style=&quot;color:#d8d8d8;&quot;&gt;&lt;span style=&quot;white-space: pre;&quot;&gt;&amp;nbsp;&amp;nbsp;&amp;nbsp;&amp;nbsp;&lt;/span&gt;&lt;/span&gt;&lt;/p&gt;&lt;p style=&quot;margin:0;&quot;&gt;&lt;br&gt;&lt;/p&gt;&lt;p style=&quot;margin:0;&quot;&gt;&lt;span style=&quot;color:#d8d8d8;&quot;&gt;   &lt;/span&gt;&lt;span style=&quot;color:#79abff;&quot;&gt;&amp;lt;&lt;/span&gt;&lt;span style=&quot;color:#bed6ff;&quot;&gt;div&lt;/span&gt; &lt;span style=&quot;color:#bed6ff;&quot;&gt;class&lt;/span&gt;&lt;span style=&quot;color:#d8d8d8;&quot;&gt;=&lt;/span&gt;&lt;span style=&quot;color:#a5c25c;&quot;&gt;&quot;p-5 mb-4 bg-body-tertiary rounded-3&quot;&lt;/span&gt;&lt;span style=&quot;color:#79abff;&quot;&gt;&amp;gt;&lt;/span&gt;&lt;/p&gt;&lt;p style=&quot;margin:0;&quot;&gt;&lt;span style=&quot;color:#d8d8d8;&quot;&gt;      &lt;/span&gt;&lt;span style=&quot;color:#79abff;&quot;&gt;&amp;lt;&lt;/span&gt;&lt;span style=&quot;color:#bed6ff;&quot;&gt;div&lt;/span&gt; &lt;span style=&quot;color:#bed6ff;&quot;&gt;class&lt;/span&gt;&lt;span style=&quot;color:#d8d8d8;&quot;&gt;=&lt;/span&gt;&lt;span style=&quot;color:#a5c25c;&quot;&gt;&quot;container-fluid py-5&quot;&lt;/span&gt;&lt;span style=&quot;color:#79abff;&quot;&gt;&amp;gt;&lt;/span&gt;&lt;/p&gt;&lt;p style=&quot;margin:0;&quot;&gt;&lt;span style=&quot;color:#d8d8d8;&quot;&gt;        &lt;/span&gt;&lt;span style=&quot;color:#79abff;&quot;&gt;&amp;lt;&lt;/span&gt;&lt;span style=&quot;color:#bed6ff;&quot;&gt;h1&lt;/span&gt; &lt;span style=&quot;color:#bed6ff;&quot;&gt;class&lt;/span&gt;&lt;span style=&quot;color:#d8d8d8;&quot;&gt;=&lt;/span&gt;&lt;span style=&quot;color:#a5c25c;&quot;&gt;&quot;display-5 fw-bold&quot;&lt;/span&gt;&lt;span style=&quot;color:#79abff;&quot;&gt;&amp;gt;&lt;/span&gt;&lt;span style=&quot;color:#d8d8d8;&quot;&gt;도서목록&lt;/span&gt;&lt;span style=&quot;color:#79abff;&quot;&gt;&amp;lt;/&lt;/span&gt;&lt;span style=&quot;color:#bed6ff;&quot;&gt;h1&lt;/span&gt;&lt;span style=&quot;color:#79abff;&quot;&gt;&amp;gt;&lt;/span&gt;&lt;/p&gt;&lt;p style=&quot;margin:0;&quot;&gt;&lt;span style=&quot;color:#d8d8d8;&quot;&gt;        &lt;/span&gt;&lt;span style=&quot;color:#79abff;&quot;&gt;&amp;lt;&lt;/span&gt;&lt;span style=&quot;color:#bed6ff;&quot;&gt;p&lt;/span&gt; &lt;span style=&quot;color:#bed6ff;&quot;&gt;class&lt;/span&gt;&lt;span style=&quot;color:#d8d8d8;&quot;&gt;=&lt;/span&gt;&lt;span style=&quot;color:#a5c25c;&quot;&gt;&quot;col-md-8 fs-4&quot;&lt;/span&gt;&lt;span style=&quot;color:#79abff;&quot;&gt;&amp;gt;&lt;/span&gt;&lt;span style=&quot;color:#d8d8d8;&quot;&gt;BookList&lt;/span&gt;&lt;span style=&quot;color:#79abff;&quot;&gt;&amp;lt;/&lt;/span&gt;&lt;span style=&quot;color:#bed6ff;&quot;&gt;p&lt;/span&gt;&lt;span style=&quot;color:#79abff;&quot;&gt;&amp;gt;&lt;/span&gt;&lt;span style=&quot;color:#d8d8d8;&quot;&gt;      &lt;/span&gt;&lt;/p&gt;&lt;p style=&quot;margin:0;&quot;&gt;&lt;span style=&quot;color:#d8d8d8;&quot;&gt;      &lt;/span&gt;&lt;span style=&quot;color:#79abff;&quot;&gt;&amp;lt;/&lt;/span&gt;&lt;span style=&quot;color:#bed6ff;&quot;&gt;div&lt;/span&gt;&lt;span style=&quot;color:#79abff;&quot;&gt;&amp;gt;&lt;/span&gt;&lt;/p&gt;&lt;p style=&quot;margin:0;&quot;&gt;&lt;span style=&quot;color:#d8d8d8;&quot;&gt;    &lt;/span&gt;&lt;span style=&quot;color:#79abff;&quot;&gt;&amp;lt;/&lt;/span&gt;&lt;span style=&quot;color:#bed6ff;&quot;&gt;div&lt;/span&gt;&lt;span style=&quot;color:#79abff;&quot;&gt;&amp;gt;&lt;/span&gt;&lt;/p&gt;&lt;p style=&quot;margin:0;&quot;&gt;&lt;span style=&quot;color:#d8d8d8;&quot;&gt;&lt;span style=&quot;white-space: pre;&quot;&gt;&amp;nbsp;&amp;nbsp;&amp;nbsp;&amp;nbsp;&lt;/span&gt;&lt;/span&gt;&lt;span style=&quot;color:#d8d8d8;&quot;&gt;&amp;lt;%&lt;/span&gt;&lt;/p&gt;&lt;p style=&quot;margin:0;&quot;&gt;&lt;span style=&quot;color:#d8d8d8;&quot;&gt;&lt;span style=&quot;white-space: pre;&quot;&gt;&amp;nbsp;&amp;nbsp;&amp;nbsp;&amp;nbsp;&lt;/span&gt;&lt;span style=&quot;white-space: pre;&quot;&gt;&amp;nbsp;&amp;nbsp;&amp;nbsp;&amp;nbsp;&lt;/span&gt;&lt;/span&gt;&lt;span style=&quot;color:#d8d8d8;&quot;&gt;ArrayList&lt;/span&gt;&lt;span style=&quot;color:#d8d8d8;&quot;&gt;&amp;lt;&lt;/span&gt;&lt;span style=&quot;color:#d8d8d8;&quot;&gt;Book&lt;/span&gt;&lt;span style=&quot;color:#d8d8d8;&quot;&gt;&amp;gt; &lt;/span&gt;&lt;span style=&quot;color:#d8d8d8;&quot;&gt;listOfBooks&lt;/span&gt;&lt;span style=&quot;color:#d8d8d8;&quot;&gt; = &lt;/span&gt;&lt;span style=&quot;color:#d8d8d8;&quot;&gt;bookDAO&lt;/span&gt;&lt;span style=&quot;color:#d8d8d8;&quot;&gt;.&lt;/span&gt;&lt;span style=&quot;color:#d8d8d8;&quot;&gt;getAllBooks&lt;/span&gt;&lt;span style=&quot;color:#d8d8d8;&quot;&gt;();&lt;/span&gt;&lt;/p&gt;&lt;p style=&quot;margin:0;&quot;&gt;&lt;span style=&quot;color:#d8d8d8;&quot;&gt;&lt;span style=&quot;white-space: pre;&quot;&gt;&amp;nbsp;&amp;nbsp;&amp;nbsp;&amp;nbsp;&lt;/span&gt;&lt;/span&gt;&lt;span style=&quot;color:#d8d8d8;&quot;&gt;%&amp;gt;&lt;/span&gt;&lt;/p&gt;&lt;p style=&quot;margin:0;&quot;&gt;&lt;span style=&quot;color:#d8d8d8;&quot;&gt;      &lt;/span&gt;&lt;/p&gt;&lt;p style=&quot;margin:0;&quot;&gt;&lt;span style=&quot;color:#d8d8d8;&quot;&gt;&lt;span style=&quot;white-space: pre;&quot;&gt;&amp;nbsp;&amp;nbsp;&amp;nbsp;&amp;nbsp;&lt;/span&gt; &lt;/span&gt;&lt;span style=&quot;color:#79abff;&quot;&gt;&amp;lt;&lt;/span&gt;&lt;span style=&quot;color:#bed6ff;&quot;&gt;div&lt;/span&gt; &lt;span style=&quot;color:#bed6ff;&quot;&gt;class&lt;/span&gt;&lt;span style=&quot;color:#d8d8d8;&quot;&gt;=&lt;/span&gt;&lt;span style=&quot;color:#a5c25c;&quot;&gt;&quot;row align-items-md-stretch   text-center&quot;&lt;/span&gt;&lt;span style=&quot;color:#79abff;&quot;&gt;&amp;gt;&lt;/span&gt;&lt;span style=&quot;color:#d8d8d8;&quot;&gt;&lt;span style=&quot;white-space: pre;&quot;&gt;&amp;nbsp;&amp;nbsp;&amp;nbsp;&amp;nbsp;&lt;/span&gt; &lt;span style=&quot;white-space: pre;&quot;&gt;&amp;nbsp;&amp;nbsp;&amp;nbsp;&amp;nbsp;&lt;/span&gt;&lt;/span&gt;&lt;/p&gt;&lt;p style=&quot;margin:0;&quot;&gt;&lt;span style=&quot;color:#d8d8d8;&quot;&gt;&lt;span style=&quot;white-space: pre;&quot;&gt;&amp;nbsp;&amp;nbsp;&amp;nbsp;&amp;nbsp;&lt;/span&gt; &lt;/span&gt;&lt;span style=&quot;color:#d8d8d8;&quot;&gt;&amp;lt;%&lt;/span&gt;&lt;/p&gt;&lt;p style=&quot;margin:0;&quot;&gt;&lt;span style=&quot;color:#d8d8d8;&quot;&gt;&lt;span style=&quot;white-space: pre;&quot;&gt;&amp;nbsp;&amp;nbsp;&amp;nbsp;&amp;nbsp;&lt;/span&gt;&lt;span style=&quot;white-space: pre;&quot;&gt;&amp;nbsp;&amp;nbsp;&amp;nbsp;&amp;nbsp;&lt;/span&gt;&lt;/span&gt;&lt;span style=&quot;color:#cc7832;&quot;&gt;for&lt;/span&gt;&lt;span style=&quot;color:#d8d8d8;&quot;&gt; (&lt;/span&gt;&lt;span style=&quot;color:#cc7832;&quot;&gt;int&lt;/span&gt;&lt;span style=&quot;color:#d8d8d8;&quot;&gt; &lt;/span&gt;&lt;span style=&quot;color:#d8d8d8;&quot;&gt;i&lt;/span&gt;&lt;span style=&quot;color:#d8d8d8;&quot;&gt; = 0; &lt;/span&gt;&lt;span style=&quot;color:#d8d8d8;&quot;&gt;i&lt;/span&gt;&lt;span style=&quot;color:#d8d8d8;&quot;&gt; &amp;lt; &lt;/span&gt;&lt;span style=&quot;color:#d8d8d8;&quot;&gt;listOfBooks&lt;/span&gt;&lt;span style=&quot;color:#d8d8d8;&quot;&gt;.&lt;/span&gt;&lt;span style=&quot;color:#d8d8d8;&quot;&gt;size&lt;/span&gt;&lt;span style=&quot;color:#d8d8d8;&quot;&gt;(); &lt;/span&gt;&lt;span style=&quot;color:#d8d8d8;&quot;&gt;i&lt;/span&gt;&lt;span style=&quot;color:#d8d8d8;&quot;&gt;++) {&lt;/span&gt;&lt;/p&gt;&lt;p style=&quot;margin:0;&quot;&gt;&lt;span style=&quot;color:#d8d8d8;&quot;&gt;&lt;span style=&quot;white-space: pre;&quot;&gt;&amp;nbsp;&amp;nbsp;&amp;nbsp;&amp;nbsp;&lt;/span&gt;&lt;span style=&quot;white-space: pre;&quot;&gt;&amp;nbsp;&amp;nbsp;&amp;nbsp;&amp;nbsp;&lt;/span&gt;&lt;span style=&quot;white-space: pre;&quot;&gt;&amp;nbsp;&amp;nbsp;&amp;nbsp;&amp;nbsp;&lt;/span&gt;&lt;/span&gt;&lt;span style=&quot;color:#d8d8d8;&quot;&gt;Book&lt;/span&gt;&lt;span style=&quot;color:#d8d8d8;&quot;&gt; &lt;/span&gt;&lt;span style=&quot;color:#d8d8d8;&quot;&gt;book&lt;/span&gt;&lt;span style=&quot;color:#d8d8d8;&quot;&gt; = &lt;/span&gt;&lt;span style=&quot;color:#d8d8d8;&quot;&gt;listOfBooks&lt;/span&gt;&lt;span style=&quot;color:#d8d8d8;&quot;&gt;.&lt;/span&gt;&lt;span style=&quot;color:#d8d8d8;&quot;&gt;get&lt;/span&gt;&lt;span style=&quot;color:#d8d8d8;&quot;&gt;(&lt;/span&gt;&lt;span style=&quot;color:#d8d8d8;&quot;&gt;i&lt;/span&gt;&lt;span style=&quot;color:#d8d8d8;&quot;&gt;);&lt;/span&gt;&lt;/p&gt;&lt;p style=&quot;margin:0;&quot;&gt;&lt;span style=&quot;color:#d8d8d8;&quot;&gt;&lt;span style=&quot;white-space: pre;&quot;&gt;&amp;nbsp;&amp;nbsp;&amp;nbsp;&amp;nbsp;&lt;/span&gt;  &lt;/span&gt;&lt;span style=&quot;color:#d8d8d8;&quot;&gt;%&amp;gt;&lt;/span&gt;&lt;/p&gt;&lt;p style=&quot;margin:0;&quot;&gt;&lt;span style=&quot;color:#d8d8d8;&quot;&gt;     &lt;span style=&quot;white-space: pre;&quot;&gt;&amp;nbsp;&amp;nbsp;&amp;nbsp;&amp;nbsp;&lt;/span&gt;&lt;/span&gt;&lt;span style=&quot;color:#79abff;&quot;&gt;&amp;lt;&lt;/span&gt;&lt;span style=&quot;color:#bed6ff;&quot;&gt;div&lt;/span&gt; &lt;span style=&quot;color:#bed6ff;&quot;&gt;class&lt;/span&gt;&lt;span style=&quot;color:#d8d8d8;&quot;&gt;=&lt;/span&gt;&lt;span style=&quot;color:#a5c25c;&quot;&gt;&quot;col-md-4&quot;&lt;/span&gt;&lt;span style=&quot;color:#79abff;&quot;&gt;&amp;gt;&lt;/span&gt;&lt;/p&gt;&lt;p style=&quot;margin:0;&quot;&gt;&lt;span style=&quot;color:#d8d8d8;&quot;&gt;       &lt;span style=&quot;white-space: pre;&quot;&gt;&amp;nbsp;&amp;nbsp;&amp;nbsp;&amp;nbsp;&lt;/span&gt;&lt;span style=&quot;white-space: pre;&quot;&gt;&amp;nbsp;&amp;nbsp;&amp;nbsp;&amp;nbsp;&lt;/span&gt;&lt;/span&gt;&lt;span style=&quot;color:#79abff;&quot;&gt;&amp;lt;&lt;/span&gt;&lt;span style=&quot;color:#bed6ff;&quot;&gt;div&lt;/span&gt; &lt;span style=&quot;color:#bed6ff;&quot;&gt;class&lt;/span&gt;&lt;span style=&quot;color:#d8d8d8;&quot;&gt;=&lt;/span&gt;&lt;span style=&quot;color:#a5c25c;&quot;&gt;&quot;h-100 p-2&quot;&lt;/span&gt;&lt;span style=&quot;color:#79abff;&quot;&gt;&amp;gt;&lt;/span&gt;&lt;span style=&quot;color:#d8d8d8;&quot;&gt;&lt;span style=&quot;white-space: pre;&quot;&gt;&amp;nbsp;&amp;nbsp;&amp;nbsp;&amp;nbsp;&lt;/span&gt;&lt;/span&gt;&lt;/p&gt;&lt;p style=&quot;margin:0;&quot;&gt;&lt;span style=&quot;color:#d8d8d8;&quot;&gt;&lt;span style=&quot;white-space: pre;&quot;&gt;&amp;nbsp;&amp;nbsp;&amp;nbsp;&amp;nbsp;&lt;/span&gt;&lt;span style=&quot;white-space: pre;&quot;&gt;&amp;nbsp;&amp;nbsp;&amp;nbsp;&amp;nbsp;&lt;/span&gt;&lt;/span&gt;&lt;/p&gt;&lt;p style=&quot;margin:0;&quot;&gt;&lt;span style=&quot;color:#d8d8d8;&quot;&gt;&lt;span style=&quot;white-space: pre;&quot;&gt;&amp;nbsp;&amp;nbsp;&amp;nbsp;&amp;nbsp;&lt;/span&gt;&lt;span style=&quot;white-space: pre;&quot;&gt;&amp;nbsp;&amp;nbsp;&amp;nbsp;&amp;nbsp;&lt;/span&gt;&lt;span style=&quot;white-space: pre;&quot;&gt;&amp;nbsp;&amp;nbsp;&amp;nbsp;&amp;nbsp;&lt;/span&gt;&lt;span style=&quot;white-space: pre;&quot;&gt;&amp;nbsp;&amp;nbsp;&amp;nbsp;&amp;nbsp;&lt;/span&gt;&lt;/span&gt;&lt;span style=&quot;color:#79abff;&quot;&gt;&amp;lt;&lt;/span&gt;&lt;span style=&quot;color:#bed6ff;&quot;&gt;h5&lt;/span&gt;&lt;span style=&quot;color:#79abff;&quot;&gt;&amp;gt;&amp;lt;&lt;/span&gt;&lt;span style=&quot;color:#bed6ff;&quot;&gt;b&lt;/span&gt;&lt;span style=&quot;color:#79abff;&quot;&gt;&amp;gt;&lt;/span&gt;&lt;span style=&quot;color:#d8d8d8;&quot;&gt;&amp;lt;%=book.getName()%&amp;gt;&lt;/span&gt;&lt;span style=&quot;color:#79abff;&quot;&gt;&amp;lt;/&lt;/span&gt;&lt;span style=&quot;color:#bed6ff;&quot;&gt;b&lt;/span&gt;&lt;span style=&quot;color:#79abff;&quot;&gt;&amp;gt;&amp;lt;/&lt;/span&gt;&lt;span style=&quot;color:#bed6ff;&quot;&gt;h5&lt;/span&gt;&lt;span style=&quot;color:#79abff;&quot;&gt;&amp;gt;&lt;/span&gt;&lt;/p&gt;&lt;p style=&quot;margin:0;&quot;&gt;&lt;span style=&quot;color:#d8d8d8;&quot;&gt;&lt;span style=&quot;white-space: pre;&quot;&gt;&amp;nbsp;&amp;nbsp;&amp;nbsp;&amp;nbsp;&lt;/span&gt;&lt;span style=&quot;white-space: pre;&quot;&gt;&amp;nbsp;&amp;nbsp;&amp;nbsp;&amp;nbsp;&lt;/span&gt;&lt;span style=&quot;white-space: pre;&quot;&gt;&amp;nbsp;&amp;nbsp;&amp;nbsp;&amp;nbsp;&lt;/span&gt;&lt;span style=&quot;white-space: pre;&quot;&gt;&amp;nbsp;&amp;nbsp;&amp;nbsp;&amp;nbsp;&lt;/span&gt;&lt;/span&gt;&lt;span style=&quot;color:#79abff;&quot;&gt;&amp;lt;&lt;/span&gt;&lt;span style=&quot;color:#bed6ff;&quot;&gt;p&lt;/span&gt;&lt;span style=&quot;color:#79abff;&quot;&gt;&amp;gt;&lt;/span&gt;&lt;span style=&quot;color:#d8d8d8;&quot;&gt;&amp;lt;%=book.getAuthor()%&amp;gt;&lt;/span&gt;&lt;/p&gt;&lt;p style=&quot;margin:0;&quot;&gt;&lt;span style=&quot;color:#d8d8d8;&quot;&gt;&lt;span style=&quot;white-space: pre;&quot;&gt;&amp;nbsp;&amp;nbsp;&amp;nbsp;&amp;nbsp;&lt;/span&gt;&lt;span style=&quot;white-space: pre;&quot;&gt;&amp;nbsp;&amp;nbsp;&amp;nbsp;&amp;nbsp;&lt;/span&gt;&lt;span style=&quot;white-space: pre;&quot;&gt;&amp;nbsp;&amp;nbsp;&amp;nbsp;&amp;nbsp;&lt;/span&gt;&lt;span style=&quot;white-space: pre;&quot;&gt;&amp;nbsp;&amp;nbsp;&amp;nbsp;&amp;nbsp;&lt;/span&gt;&lt;/span&gt;&lt;span style=&quot;color:#79abff;&quot;&gt;&amp;lt;&lt;/span&gt;&lt;span style=&quot;color:#bed6ff;&quot;&gt;br&lt;/span&gt;&lt;span style=&quot;color:#79abff;&quot;&gt;&amp;gt;&lt;/span&gt;&lt;span style=&quot;color:#d8d8d8;&quot;&gt; &amp;lt;%=book.getPublisher()%&amp;gt; | &amp;lt;%=book.getReleaseDate()%&amp;gt;&lt;/span&gt;&lt;/p&gt;&lt;p style=&quot;margin:0;&quot;&gt;&lt;span style=&quot;color:#d8d8d8;&quot;&gt;&lt;span style=&quot;white-space: pre;&quot;&gt;&amp;nbsp;&amp;nbsp;&amp;nbsp;&amp;nbsp;&lt;/span&gt;&lt;span style=&quot;white-space: pre;&quot;&gt;&amp;nbsp;&amp;nbsp;&amp;nbsp;&amp;nbsp;&lt;/span&gt;&lt;span style=&quot;white-space: pre;&quot;&gt;&amp;nbsp;&amp;nbsp;&amp;nbsp;&amp;nbsp;&lt;/span&gt;&lt;span style=&quot;white-space: pre;&quot;&gt;&amp;nbsp;&amp;nbsp;&amp;nbsp;&amp;nbsp;&lt;/span&gt;&lt;/span&gt;&lt;span style=&quot;color:#79abff;&quot;&gt;&amp;lt;&lt;/span&gt;&lt;span style=&quot;color:#bed6ff;&quot;&gt;p&lt;/span&gt;&lt;span style=&quot;color:#79abff;&quot;&gt;&amp;gt;&lt;/span&gt;&lt;span style=&quot;color:#d8d8d8;&quot;&gt; &amp;lt;%=book.getDescription().substring(0,60)%&amp;gt;...&lt;/span&gt;&lt;/p&gt;&lt;p style=&quot;margin:0;&quot;&gt;&lt;span style=&quot;color:#d8d8d8;&quot;&gt;&lt;span style=&quot;white-space: pre;&quot;&gt;&amp;nbsp;&amp;nbsp;&amp;nbsp;&amp;nbsp;&lt;/span&gt;&lt;span style=&quot;white-space: pre;&quot;&gt;&amp;nbsp;&amp;nbsp;&amp;nbsp;&amp;nbsp;&lt;/span&gt;&lt;span style=&quot;white-space: pre;&quot;&gt;&amp;nbsp;&amp;nbsp;&amp;nbsp;&amp;nbsp;&lt;/span&gt;&lt;span style=&quot;white-space: pre;&quot;&gt;&amp;nbsp;&amp;nbsp;&amp;nbsp;&amp;nbsp;&lt;/span&gt;&lt;/span&gt;&lt;span style=&quot;color:#79abff;&quot;&gt;&amp;lt;&lt;/span&gt;&lt;span style=&quot;color:#bed6ff;&quot;&gt;p&lt;/span&gt;&lt;span style=&quot;color:#79abff;&quot;&gt;&amp;gt;&lt;/span&gt;&lt;span style=&quot;color:#d8d8d8;&quot;&gt;&amp;lt;%=book.getUnitPrice()%&amp;gt;원&lt;/span&gt;&lt;/p&gt;&lt;p style=&quot;margin:0;&quot;&gt;&lt;span style=&quot;color:#d8d8d8;&quot;&gt;&lt;span style=&quot;white-space: pre;&quot;&gt;&amp;nbsp;&amp;nbsp;&amp;nbsp;&amp;nbsp;&lt;/span&gt;&lt;span style=&quot;white-space: pre;&quot;&gt;&amp;nbsp;&amp;nbsp;&amp;nbsp;&amp;nbsp;&lt;/span&gt;&lt;span style=&quot;white-space: pre;&quot;&gt;&amp;nbsp;&amp;nbsp;&amp;nbsp;&amp;nbsp;&lt;/span&gt;&lt;/span&gt;&lt;span style=&quot;color:#79abff;&quot;&gt;&amp;lt;/&lt;/span&gt;&lt;span style=&quot;color:#bed6ff;&quot;&gt;div&lt;/span&gt;&lt;span style=&quot;color:#79abff;&quot;&gt;&amp;gt;&lt;/span&gt;&lt;span style=&quot;color:#d8d8d8;&quot;&gt;&lt;span style=&quot;white-space: pre;&quot;&gt;&amp;nbsp;&amp;nbsp;&amp;nbsp;&amp;nbsp;&lt;/span&gt;&lt;/span&gt;&lt;/p&gt;&lt;p style=&quot;margin:0;&quot;&gt;&lt;span style=&quot;color:#d8d8d8;&quot;&gt;&lt;span style=&quot;white-space: pre;&quot;&gt;&amp;nbsp;&amp;nbsp;&amp;nbsp;&amp;nbsp;&lt;/span&gt;&lt;span style=&quot;white-space: pre;&quot;&gt;&amp;nbsp;&amp;nbsp;&amp;nbsp;&amp;nbsp;&lt;/span&gt;&lt;/span&gt;&lt;span style=&quot;color:#79abff;&quot;&gt;&amp;lt;/&lt;/span&gt;&lt;span style=&quot;color:#bed6ff;&quot;&gt;div&lt;/span&gt;&lt;span style=&quot;color:#79abff;&quot;&gt;&amp;gt;&lt;/span&gt;&lt;span style=&quot;color:#d8d8d8;&quot;&gt;&lt;span style=&quot;white-space: pre;&quot;&gt;&amp;nbsp;&amp;nbsp;&amp;nbsp;&amp;nbsp;&lt;/span&gt;&lt;span style=&quot;white-space: pre;&quot;&gt;&amp;nbsp;&amp;nbsp;&amp;nbsp;&amp;nbsp;&lt;/span&gt;&lt;span style=&quot;white-space: pre;&quot;&gt;&amp;nbsp;&amp;nbsp;&amp;nbsp;&amp;nbsp;&lt;/span&gt;&lt;/span&gt;&lt;/p&gt;&lt;p style=&quot;margin:0;&quot;&gt;&lt;span style=&quot;color:#d8d8d8;&quot;&gt;&lt;span style=&quot;white-space: pre;&quot;&gt;&amp;nbsp;&amp;nbsp;&amp;nbsp;&amp;nbsp;&lt;/span&gt;&lt;span style=&quot;white-space: pre;&quot;&gt;&amp;nbsp;&amp;nbsp;&amp;nbsp;&amp;nbsp;&lt;/span&gt;&lt;/span&gt;&lt;span style=&quot;color:#d8d8d8;&quot;&gt;&amp;lt;%&lt;/span&gt;&lt;/p&gt;&lt;p style=&quot;margin:0;&quot;&gt;&lt;span style=&quot;color:#d8d8d8;&quot;&gt;&lt;span style=&quot;white-space: pre;&quot;&gt;&amp;nbsp;&amp;nbsp;&amp;nbsp;&amp;nbsp;&lt;/span&gt;&lt;span style=&quot;white-space: pre;&quot;&gt;&amp;nbsp;&amp;nbsp;&amp;nbsp;&amp;nbsp;&lt;/span&gt;&lt;span style=&quot;white-space: pre;&quot;&gt;&amp;nbsp;&amp;nbsp;&amp;nbsp;&amp;nbsp;&lt;/span&gt;}&lt;/span&gt;&lt;/p&gt;&lt;p style=&quot;margin:0;&quot;&gt;&lt;span style=&quot;color:#d8d8d8;&quot;&gt;&lt;span style=&quot;white-space: pre;&quot;&gt;&amp;nbsp;&amp;nbsp;&amp;nbsp;&amp;nbsp;&lt;/span&gt;&lt;span style=&quot;white-space: pre;&quot;&gt;&amp;nbsp;&amp;nbsp;&amp;nbsp;&amp;nbsp;&lt;/span&gt;&lt;/span&gt;&lt;span style=&quot;color:#d8d8d8;&quot;&gt;%&amp;gt;&lt;/span&gt;&lt;/p&gt;&lt;p style=&quot;margin:0;&quot;&gt;&lt;span style=&quot;color:#d8d8d8;&quot;&gt;&lt;span style=&quot;white-space: pre;&quot;&gt;&amp;nbsp;&amp;nbsp;&amp;nbsp;&amp;nbsp;&lt;/span&gt;&lt;/span&gt;&lt;/p&gt;&lt;p style=&quot;margin:0;&quot;&gt;&lt;span style=&quot;color:#d8d8d8;&quot;&gt;&lt;span style=&quot;white-space: pre;&quot;&gt;&amp;nbsp;&amp;nbsp;&amp;nbsp;&amp;nbsp;&lt;/span&gt;&lt;span style=&quot;white-space: pre;&quot;&gt;&amp;nbsp;&amp;nbsp;&amp;nbsp;&amp;nbsp;&lt;/span&gt;&lt;/span&gt;&lt;span style=&quot;color:#79abff;&quot;&gt;&amp;lt;/&lt;/span&gt;&lt;span style=&quot;color:#bed6ff;&quot;&gt;div&lt;/span&gt;&lt;span style=&quot;color:#79abff;&quot;&gt;&amp;gt;&lt;/span&gt;&lt;span style=&quot;color:#d8d8d8;&quot;&gt;&lt;span style=&quot;white-space: pre;&quot;&gt;&amp;nbsp;&amp;nbsp;&amp;nbsp;&amp;nbsp;&lt;/span&gt;&lt;/span&gt;&lt;/p&gt;&lt;p style=&quot;margin:0;&quot;&gt;&lt;span style=&quot;color:#d8d8d8;&quot;&gt;&lt;span style=&quot;white-space: pre;&quot;&gt;&amp;nbsp;&amp;nbsp;&amp;nbsp;&amp;nbsp;&lt;/span&gt;&lt;span style=&quot;white-space: pre;&quot;&gt;&amp;nbsp;&amp;nbsp;&amp;nbsp;&amp;nbsp;&lt;/span&gt;&lt;/span&gt;&lt;span style=&quot;color:#d8d8d8;&quot;&gt;&amp;lt;%@&lt;/span&gt; &lt;span style=&quot;color:#03a8d8;font-weight:bold;&quot;&gt;include&lt;/span&gt; &lt;span style=&quot;color:#cc7832;&quot;&gt;file&lt;/span&gt;&lt;span style=&quot;color:#d8d8d8;&quot;&gt;=&lt;/span&gt;&lt;span style=&quot;color:#a5c25c;&quot;&gt;&quot;footer.jsp&quot;&lt;/span&gt;&lt;span style=&quot;color:#d8d8d8;&quot;&gt;%&amp;gt;&lt;/span&gt;&lt;span style=&quot;color:#d8d8d8;&quot;&gt;   &lt;/span&gt;&lt;/p&gt;&lt;p style=&quot;margin:0;&quot;&gt;&lt;span style=&quot;color:#d8d8d8;&quot;&gt;  &lt;/span&gt;&lt;span style=&quot;color:#79abff;&quot;&gt;&amp;lt;/&lt;/span&gt;&lt;span style=&quot;color:#bed6ff;&quot;&gt;div&lt;/span&gt;&lt;span style=&quot;color:#79abff;&quot;&gt;&amp;gt;&lt;/span&gt;&lt;/p&gt;&lt;p style=&quot;margin:0;&quot;&gt;&lt;span style=&quot;color:#79abff;&quot;&gt;&amp;lt;/&lt;/span&gt;&lt;span style=&quot;color:#bed6ff;&quot;&gt;body&lt;/span&gt;&lt;span style=&quot;color:#79abff;&quot;&gt;&amp;gt;&lt;/span&gt;&lt;/p&gt;&lt;p style=&quot;margin:0;&quot;&gt;&lt;span style=&quot;color:#79abff;&quot;&gt;&amp;lt;/&lt;/span&gt;&lt;span style=&quot;color:#bed6ff;&quot;&gt;html&lt;/span&gt;&lt;span style=&quot;color:#79abff;&quot;&gt;&amp;gt;&lt;/span&gt;&lt;/p&gt;&lt;p style=&quot;margin:0;&quot;&gt;&lt;/p&gt;&lt;/div&gt;&lt;/div&gt;" id="sL9KzqHIcuMjWzqX6_P6-20">
          <mxCell style="text;whiteSpace=wrap;html=1;" parent="hI6aEkzv5kinHOjtL3IV-5" vertex="1">
            <mxGeometry width="540" height="470" as="geometry" />
          </mxCell>
        </UserObject>
        <mxCell id="sL9KzqHIcuMjWzqX6_P6-44" value="&lt;font color=&quot;#ffffff&quot;&gt;@4&lt;/font&gt;" style="text;html=1;align=center;verticalAlign=middle;whiteSpace=wrap;rounded=0;" parent="hI6aEkzv5kinHOjtL3IV-5" vertex="1">
          <mxGeometry x="224" y="160" width="60" height="30" as="geometry" />
        </mxCell>
        <mxCell id="sL9KzqHIcuMjWzqX6_P6-45" value="&lt;font color=&quot;#ffffff&quot;&gt;@4&lt;/font&gt;" style="text;html=1;align=center;verticalAlign=middle;whiteSpace=wrap;rounded=0;" parent="hI6aEkzv5kinHOjtL3IV-5" vertex="1">
          <mxGeometry x="190" y="210" width="60" height="30" as="geometry" />
        </mxCell>
        <mxCell id="sL9KzqHIcuMjWzqX6_P6-47" value="&lt;font color=&quot;#ffffff&quot;&gt;0&lt;/font&gt;" style="text;html=1;align=center;verticalAlign=middle;whiteSpace=wrap;rounded=0;" parent="hI6aEkzv5kinHOjtL3IV-5" vertex="1">
          <mxGeometry x="270" y="210" width="60" height="30" as="geometry" />
        </mxCell>
        <mxCell id="sL9KzqHIcuMjWzqX6_P6-49" value="&lt;font color=&quot;#ffffff&quot;&gt;Book@1&lt;/font&gt;" style="text;html=1;align=center;verticalAlign=middle;whiteSpace=wrap;rounded=0;" parent="hI6aEkzv5kinHOjtL3IV-5" vertex="1">
          <mxGeometry x="120" y="210" width="60" height="30" as="geometry" />
        </mxCell>
        <mxCell id="sL9KzqHIcuMjWzqX6_P6-50" value="&lt;font color=&quot;#ffffff&quot;&gt;Book@1&lt;/font&gt;" style="text;html=1;align=center;verticalAlign=middle;whiteSpace=wrap;rounded=0;" parent="hI6aEkzv5kinHOjtL3IV-5" vertex="1">
          <mxGeometry x="111" y="228" width="60" height="30" as="geometry" />
        </mxCell>
      </root>
    </mxGraphModel>
  </diagram>
</mxfile>
